SplineFontDB: 3.2
FontName: Krub-ExtraLight
FullName: Krub ExtraLight
FamilyName: Krub ExtraLight
Weight: Light
Copyright: Copyright 2018 The Krub Project Authors (https://github.com/cadsondemak/Krub)
Version: 1.000; ttfautohint (v1.6)
ItalicAngle: 0
UnderlinePosition: -100
UnderlineWidth: 50
Ascent: 800
Descent: 200
InvalidEm: 0
sfntRevision: 0x00010000
LayerCount: 2
Layer: 0 1 "Back" 1
Layer: 1 1 "Fore" 0
XUID: [1021 226 -1497385041 11798725]
StyleMap: 0x0040
FSType: 0
OS2Version: 3
OS2_WeightWidthSlopeOnly: 0
OS2_UseTypoMetrics: 0
CreationTime: 1534948280
ModificationTime: 1627862721
PfmFamily: 81
TTFWeight: 275
TTFWidth: 5
LineGap: 0
VLineGap: 0
Panose: 0 0 3 0 0 0 0 0 0 0
OS2TypoAscent: 1007
OS2TypoAOffset: 0
OS2TypoDescent: -293
OS2TypoDOffset: 0
OS2TypoLinegap: 0
OS2WinAscent: 1232
OS2WinAOffset: 0
OS2WinDescent: 507
OS2WinDOffset: 0
HheadAscent: 1007
HheadAOffset: 0
HheadDescent: -293
HheadDOffset: 0
OS2SubXSize: 650
OS2SubYSize: 600
OS2SubXOff: 0
OS2SubYOff: 75
OS2SupXSize: 650
OS2SupYSize: 600
OS2SupXOff: 0
OS2SupYOff: 350
OS2StrikeYSize: 50
OS2StrikeYPos: 330
OS2CapHeight: 700
OS2XHeight: 550
OS2Vendor: 'CDK '
OS2CodePages: 20010193.00000000
OS2UnicodeRanges: 21000007.00000001.00000000.00000000
Lookup: 1 0 0 "'aalt' Access All Alternates lookup 0" { "'aalt' Access All Alternates lookup 0 subtable"  } ['aalt' ('DFLT' <'dflt' > 'latn' <'CAT ' 'MOL ' 'ROM ' 'dflt' > 'thai' <'dflt' > ) ]
Lookup: 3 0 0 "'aalt' Access All Alternates lookup 1" { "'aalt' Access All Alternates lookup 1 subtable"  } ['aalt' ('DFLT' <'dflt' > 'latn' <'CAT ' 'MOL ' 'ROM ' 'dflt' > 'thai' <'dflt' > ) ]
Lookup: 6 0 0 "'ccmp' Glyph Composition/Decomposition in Latin lookup 2" { "'ccmp' Glyph Composition/Decomposition in Latin lookup 2 contextual 0"  "'ccmp' Glyph Composition/Decomposition in Latin lookup 2 contextual 1"  } ['ccmp' ('latn' <'dflt' > ) ]

StartChar: A
Encoding: 65 65 4
Width: 620
GlyphClass: 2
Flags: W
AnchorPoint: "Anchor-10" 0 0 basechar 0
AnchorPoint: "Anchor-9" 310 660 basechar 0
AnchorPoint: "Anchor-8" 605 0 basechar 0
AnchorPoint: "Anchor-7" 310 0 basechar 0
LayerCount: 2
Fore
SplineSet
512 203 m 1,1,-1
 108 203 l 1,2,3
 80 112 80 112 59 0 c 1,4,-1
 15 0 l 1,5,6
 53 199 53 199 120.5 369 c 128,-1,7
 188 539 188 539 293 700 c 1,8,-1
 328 700 l 1,9,10
 432 540 432 540 499.5 370.5 c 128,-1,11
 567 201 567 201 605 0 c 1,12,-1
 561 0 l 1,13,0
 540 112 540 112 512 203 c 1,1,-1
500 243 m 1,14,15
 463 361 463 361 414.5 466 c 128,-1,16
 366 571 366 571 310 652 c 1,17,18
 254 571 254 571 205.5 466 c 128,-1,19
 157 361 157 361 120 243 c 1,20,-1
 500 243 l 1,14,15
EndSplineSet
Substitution2: "Single Substitution lookup 20 subtable" ordfeminine
Substitution2: "'aalt' Access All Alternates lookup 0 subtable" ordfeminine
EndChar

StartChar: AE
Encoding: 198 198 28
Width: 930
GlyphClass: 2
Flags: W
AnchorPoint: "Anchor-10" 0 0 basechar 0
AnchorPoint: "Anchor-9" 525 700 basechar 0
AnchorPoint: "Anchor-8" 0 0 basechar 0
AnchorPoint: "Anchor-7" 465 0 basechar 0
LayerCount: 2
Fore
SplineSet
505 660 m 1,0,-1
 505 383 l 1,1,-1
 832 383 l 1,2,-1
 832 343 l 1,3,-1
 505 343 l 1,4,-1
 505 38 l 1,5,-1
 870 38 l 1,6,7
 870 17 870 17 862.5 8.5 c 128,-1,8
 855 0 855 0 838 0 c 2,9,-1
 470 0 l 1,10,-1
 470 206 l 1,11,-1
 127 206 l 1,12,13
 79 101 79 101 59 0 c 1,14,-1
 15 0 l 1,15,16
 52 184 52 184 168.5 370.5 c 128,-1,17
 285 557 285 557 455 700 c 1,18,-1
 875 700 l 1,19,-1
 875 660 l 1,20,-1
 505 660 l 1,0,-1
470 246 m 1,21,-1
 470 660 l 1,22,-1
 461 660 l 1,23,24
 373 586 373 586 289 476 c 128,-1,25
 205 366 205 366 146 246 c 1,26,-1
 470 246 l 1,21,-1
EndSplineSet
EndChar

StartChar: B
Encoding: 66 66 30
Width: 615
GlyphClass: 2
Flags: W
AnchorPoint: "Anchor-10" 0 0 basechar 0
AnchorPoint: "Anchor-9" 308 660 basechar 0
AnchorPoint: "Anchor-8" 0 0 basechar 0
AnchorPoint: "Anchor-7" 308 0 basechar 0
LayerCount: 2
Fore
SplineSet
537.5 297 m 128,-1,1
 570 254 570 254 570 184 c 0,2,3
 570 94 570 94 510 47 c 128,-1,4
 450 0 450 0 335 0 c 2,5,-1
 86 0 l 1,6,-1
 86 700 l 1,7,-1
 326 700 l 2,8,9
 430 700 430 700 487.5 652 c 128,-1,10
 545 604 545 604 545 516 c 0,11,12
 545 454 545 454 518 412 c 128,-1,13
 491 370 491 370 442 353 c 1,14,0
 505 340 505 340 537.5 297 c 128,-1,1
456 623 m 128,-1,16
 411 660 411 660 326 660 c 2,17,-1
 128 660 l 1,18,-1
 128 366 l 1,19,-1
 324 366 l 2,20,21
 407 366 407 366 454 405.5 c 128,-1,22
 501 445 501 445 501 516 c 0,23,15
 501 586 501 586 456 623 c 128,-1,16
480 75 m 128,-1,25
 526 110 526 110 526 184 c 0,26,27
 526 237 526 237 506.5 268.5 c 128,-1,28
 487 300 487 300 443 314 c 128,-1,29
 399 328 399 328 325 328 c 2,30,-1
 128 328 l 1,31,-1
 128 40 l 1,32,-1
 334 40 l 2,33,24
 434 40 434 40 480 75 c 128,-1,25
EndSplineSet
EndChar

StartChar: C
Encoding: 67 67 31
Width: 596
GlyphClass: 2
Flags: W
AnchorPoint: "Anchor-10" 0 0 basechar 0
AnchorPoint: "Anchor-9" 352 660 basechar 0
AnchorPoint: "Anchor-8" 0 0 basechar 0
AnchorPoint: "Anchor-7" 352 0 basechar 0
LayerCount: 2
Fore
SplineSet
130.5 84 m 128,-1,1
 52 178 52 178 52 350 c 0,2,3
 52 523 52 523 130 616.5 c 128,-1,4
 208 710 208 710 352 710 c 0,5,6
 410 710 410 710 460 690.5 c 128,-1,7
 510 671 510 671 546 633 c 1,8,9
 543 623 543 623 535.5 616 c 128,-1,10
 528 609 528 609 521 609 c 0,11,12
 511 609 511 609 499 618 c 0,13,14
 463 646 463 646 428.5 658 c 128,-1,15
 394 670 394 670 350 670 c 0,16,17
 231 670 231 670 163.5 585 c 128,-1,18
 96 500 96 500 96 350 c 0,19,20
 96 251 96 251 126.5 179 c 128,-1,21
 157 107 157 107 214.5 68.5 c 128,-1,22
 272 30 272 30 350 30 c 0,23,24
 411 30 411 30 452 46 c 128,-1,25
 493 62 493 62 519 96 c 1,26,27
 540 94 540 94 540 78 c 0,28,29
 540 57 540 57 512.5 36.5 c 128,-1,30
 485 16 485 16 441.5 3 c 128,-1,31
 398 -10 398 -10 352 -10 c 0,32,0
 209 -10 209 -10 130.5 84 c 128,-1,1
EndSplineSet
EndChar

StartChar: Ccedilla
Encoding: 199 199 34
Width: 596
GlyphClass: 2
Flags: W
AnchorPoint: "Anchor-10" 0 0 basechar 0
AnchorPoint: "Anchor-9" 0 0 basechar 0
AnchorPoint: "Anchor-8" 0 0 basechar 0
AnchorPoint: "Anchor-7" 352 -214 basechar 0
LayerCount: 2
Fore
SplineSet
540 78 m 0,1,2
 540 58 540 58 515.5 38.5 c 128,-1,3
 491 19 491 19 450.5 5.5 c 128,-1,4
 410 -8 410 -8 367 -10 c 1,5,-1
 326 -61 l 1,6,7
 340 -59 340 -59 347 -59 c 0,8,9
 386 -59 386 -59 411.5 -78.5 c 128,-1,10
 437 -98 437 -98 437 -136 c 0,11,12
 437 -180 437 -180 402 -204.5 c 128,-1,13
 367 -229 367 -229 316 -229 c 0,14,15
 270 -229 270 -229 244 -219.5 c 128,-1,16
 218 -210 218 -210 218 -191 c 0,17,18
 218 -183 218 -183 220 -179 c 1,19,20
 245 -186 245 -186 265 -189.5 c 128,-1,21
 285 -193 285 -193 312 -193 c 0,22,23
 358 -193 358 -193 377.5 -179.5 c 128,-1,24
 397 -166 397 -166 397 -135 c 0,25,26
 397 -113 397 -113 381.5 -101.5 c 128,-1,27
 366 -90 366 -90 338 -90 c 0,28,29
 323 -90 323 -90 298 -95 c 1,30,-1
 278 -75 l 1,31,-1
 326 -9 l 1,32,33
 195 -1 195 -1 123.5 92.5 c 128,-1,34
 52 186 52 186 52 350 c 0,35,36
 52 523 52 523 130 616.5 c 128,-1,37
 208 710 208 710 352 710 c 0,38,39
 410 710 410 710 460 690.5 c 128,-1,40
 510 671 510 671 546 633 c 1,41,42
 543 623 543 623 535.5 616 c 128,-1,43
 528 609 528 609 521 609 c 0,44,45
 511 609 511 609 499 618 c 0,46,47
 463 646 463 646 428.5 658 c 128,-1,48
 394 670 394 670 350 670 c 0,49,50
 231 670 231 670 163.5 585 c 128,-1,51
 96 500 96 500 96 350 c 0,52,53
 96 251 96 251 126.5 179 c 128,-1,54
 157 107 157 107 214.5 68.5 c 128,-1,55
 272 30 272 30 350 30 c 0,56,57
 411 30 411 30 452 46 c 128,-1,58
 493 62 493 62 519 96 c 1,59,0
 540 94 540 94 540 78 c 0,1,2
EndSplineSet
EndChar

StartChar: D
Encoding: 68 68 37
Width: 672
GlyphClass: 2
Flags: W
AnchorPoint: "Anchor-10" 0 0 basechar 0
AnchorPoint: "Anchor-9" 336 660 basechar 0
AnchorPoint: "Anchor-8" 0 0 basechar 0
AnchorPoint: "Anchor-7" 336 0 basechar 0
LayerCount: 2
Fore
SplineSet
531.5 609.5 m 128,-1,1
 615 519 615 519 615 350 c 0,2,3
 615 242 615 242 576.5 163 c 128,-1,4
 538 84 538 84 465.5 42 c 128,-1,5
 393 0 393 0 293 0 c 2,6,-1
 86 0 l 1,7,-1
 86 700 l 1,8,-1
 293 700 l 2,9,0
 448 700 448 700 531.5 609.5 c 128,-1,1
497.5 121.5 m 128,-1,11
 571 203 571 203 571 349 c 0,12,13
 571 501 571 501 500 580.5 c 128,-1,14
 429 660 429 660 293 660 c 2,15,-1
 128 660 l 1,16,-1
 128 40 l 1,17,-1
 293 40 l 2,18,10
 424 40 424 40 497.5 121.5 c 128,-1,11
EndSplineSet
EndChar

StartChar: Eth
Encoding: 208 208 38
Width: 672
GlyphClass: 2
Flags: W
AnchorPoint: "Anchor-10" 0 0 basechar 0
AnchorPoint: "Anchor-9" 336 660 basechar 0
AnchorPoint: "Anchor-8" 0 0 basechar 0
AnchorPoint: "Anchor-7" 336 0 basechar 0
LayerCount: 2
Fore
SplineSet
531.5 609.5 m 128,-1,1
 615 519 615 519 615 350 c 0,2,3
 615 242 615 242 576.5 163 c 128,-1,4
 538 84 538 84 465.5 42 c 128,-1,5
 393 0 393 0 293 0 c 2,6,-1
 86 0 l 1,7,-1
 86 338 l 1,8,-1
 0 338 l 1,9,-1
 0 374 l 1,10,-1
 86 374 l 1,11,-1
 86 700 l 1,12,-1
 293 700 l 2,13,0
 448 700 448 700 531.5 609.5 c 128,-1,1
497.5 121.5 m 128,-1,15
 571 203 571 203 571 349 c 0,16,17
 571 501 571 501 500 580.5 c 128,-1,18
 429 660 429 660 293 660 c 2,19,-1
 128 660 l 1,20,-1
 128 374 l 1,21,-1
 345 374 l 1,22,-1
 345 338 l 1,23,-1
 128 338 l 1,24,-1
 128 40 l 1,25,-1
 293 40 l 2,26,14
 424 40 424 40 497.5 121.5 c 128,-1,15
EndSplineSet
EndChar

StartChar: Dcroat
Encoding: 272 272 40
Width: 672
GlyphClass: 2
Flags: W
AnchorPoint: "Anchor-10" 0 0 basechar 0
AnchorPoint: "Anchor-9" 336 660 basechar 0
AnchorPoint: "Anchor-8" 0 0 basechar 0
AnchorPoint: "Anchor-7" 336 0 basechar 0
LayerCount: 2
Fore
SplineSet
531.5 609.5 m 128,-1,1
 615 519 615 519 615 350 c 0,2,3
 615 242 615 242 576.5 163 c 128,-1,4
 538 84 538 84 465.5 42 c 128,-1,5
 393 0 393 0 293 0 c 2,6,-1
 86 0 l 1,7,-1
 86 338 l 1,8,-1
 0 338 l 1,9,-1
 0 374 l 1,10,-1
 86 374 l 1,11,-1
 86 700 l 1,12,-1
 293 700 l 2,13,0
 448 700 448 700 531.5 609.5 c 128,-1,1
497.5 121.5 m 128,-1,15
 571 203 571 203 571 349 c 0,16,17
 571 501 571 501 500 580.5 c 128,-1,18
 429 660 429 660 293 660 c 2,19,-1
 128 660 l 1,20,-1
 128 374 l 1,21,-1
 345 374 l 1,22,-1
 345 338 l 1,23,-1
 128 338 l 1,24,-1
 128 40 l 1,25,-1
 293 40 l 2,26,14
 424 40 424 40 497.5 121.5 c 128,-1,15
EndSplineSet
EndChar

StartChar: E
Encoding: 69 69 43
Width: 560
GlyphClass: 2
Flags: W
AnchorPoint: "Anchor-10" 0 0 basechar 0
AnchorPoint: "Anchor-9" 295 660 basechar 0
AnchorPoint: "Anchor-8" 499 10 basechar 0
AnchorPoint: "Anchor-7" 280 0 basechar 0
LayerCount: 2
Fore
SplineSet
505 40 m 1,0,1
 505 18 505 18 499 9 c 128,-1,2
 493 0 493 0 477 0 c 2,3,-1
 86 0 l 1,4,-1
 86 700 l 1,5,-1
 504 700 l 1,6,-1
 504 660 l 1,7,-1
 128 660 l 1,8,-1
 128 388 l 1,9,-1
 456 388 l 1,10,-1
 456 348 l 1,11,-1
 128 348 l 1,12,-1
 128 40 l 1,13,-1
 505 40 l 1,0,1
EndSplineSet
EndChar

StartChar: Eogonek
Encoding: 280 280 59
Width: 560
GlyphClass: 2
Flags: W
AnchorPoint: "Anchor-10" 0 0 basechar 0
AnchorPoint: "Anchor-9" 295 660 basechar 0
AnchorPoint: "Anchor-8" 499 10 basechar 0
AnchorPoint: "Anchor-7" 280 0 basechar 0
LayerCount: 2
Fore
SplineSet
538 -171 m 0,1,2
 538 -184 538 -184 520.5 -192 c 128,-1,3
 503 -200 503 -200 469 -200 c 0,4,5
 429 -200 429 -200 402 -175.5 c 128,-1,6
 375 -151 375 -151 375 -112 c 0,7,8
 375 -75 375 -75 392 -48 c 128,-1,9
 409 -21 409 -21 441 0 c 1,10,-1
 86 0 l 1,11,-1
 86 700 l 1,12,-1
 504 700 l 1,13,-1
 504 660 l 1,14,-1
 128 660 l 1,15,-1
 128 388 l 1,16,-1
 456 388 l 1,17,-1
 456 348 l 1,18,-1
 128 348 l 1,19,-1
 128 40 l 1,20,-1
 505 40 l 1,21,22
 505 21 505 21 500.5 11.5 c 128,-1,23
 496 2 496 2 484 0 c 1,24,25
 450 -23 450 -23 432.5 -49.5 c 128,-1,26
 415 -76 415 -76 415 -109 c 0,27,28
 415 -136 415 -136 432.5 -151 c 128,-1,29
 450 -166 450 -166 479 -166 c 0,30,31
 511 -166 511 -166 532 -153 c 1,32,0
 538 -162 538 -162 538 -171 c 0,1,2
EndSplineSet
EndChar

StartChar: F
Encoding: 70 70 61
Width: 530
GlyphClass: 2
Flags: W
AnchorPoint: "Anchor-10" 0 0 basechar 0
AnchorPoint: "Anchor-9" 292 660 basechar 0
AnchorPoint: "Anchor-8" 0 0 basechar 0
AnchorPoint: "Anchor-7" 122 0 basechar 0
LayerCount: 2
Fore
SplineSet
128 660 m 1,0,-1
 128 373 l 1,1,-1
 455 373 l 1,2,-1
 455 333 l 1,3,-1
 128 333 l 1,4,-1
 128 0 l 1,5,-1
 86 0 l 1,6,-1
 86 700 l 1,7,-1
 498 700 l 1,8,-1
 498 660 l 1,9,-1
 128 660 l 1,0,-1
EndSplineSet
EndChar

StartChar: G
Encoding: 71 71 62
Width: 666
GlyphClass: 2
Flags: W
AnchorPoint: "Anchor-10" 0 0 basechar 0
AnchorPoint: "Anchor-9" 377 660 basechar 0
AnchorPoint: "Anchor-8" 0 0 basechar 0
AnchorPoint: "Anchor-7" 377 0 basechar 0
LayerCount: 2
Fore
SplineSet
604 363 m 1,0,-1
 604 73 l 1,1,2
 567 35 567 35 505.5 12.5 c 128,-1,3
 444 -10 444 -10 377 -10 c 0,4,5
 279 -10 279 -10 208 33 c 128,-1,6
 137 76 137 76 99.5 157 c 128,-1,7
 62 238 62 238 62 350 c 256,8,9
 62 462 62 462 99.5 543 c 128,-1,10
 137 624 137 624 208 667 c 128,-1,11
 279 710 279 710 377 710 c 0,12,13
 450 710 450 710 507.5 690 c 128,-1,14
 565 670 565 670 601 633 c 1,15,16
 598 623 598 623 590.5 616 c 128,-1,17
 583 609 583 609 576 609 c 0,18,19
 566 609 566 609 554 618 c 0,20,21
 486 670 486 670 375 670 c 0,22,23
 245 670 245 670 175.5 587 c 128,-1,24
 106 504 106 504 106 350 c 256,25,26
 106 196 106 196 176 113 c 128,-1,27
 246 30 246 30 375 30 c 0,28,29
 434 30 434 30 482.5 47 c 128,-1,30
 531 64 531 64 562 96 c 1,31,-1
 562 323 l 1,32,-1
 385 323 l 2,33,34
 368 323 368 323 361 332 c 128,-1,35
 354 341 354 341 354 363 c 1,36,-1
 604 363 l 1,0,-1
EndSplineSet
EndChar

StartChar: H
Encoding: 72 72 69
Width: 680
GlyphClass: 2
Flags: W
AnchorPoint: "Anchor-10" 0 0 basechar 0
AnchorPoint: "Anchor-9" 340 660 basechar 0
AnchorPoint: "Anchor-8" 0 0 basechar 0
AnchorPoint: "Anchor-7" 340 0 basechar 0
LayerCount: 2
Fore
SplineSet
594 700 m 1,0,-1
 594 0 l 1,1,-1
 550 0 l 1,2,-1
 550 350 l 1,3,-1
 130 350 l 1,4,-1
 130 0 l 1,5,-1
 86 0 l 1,6,-1
 86 700 l 1,7,-1
 130 700 l 1,8,-1
 130 388 l 1,9,-1
 550 388 l 1,10,-1
 550 700 l 1,11,-1
 594 700 l 1,0,-1
EndSplineSet
EndChar

StartChar: Hbar
Encoding: 294 294 70
Width: 680
GlyphClass: 2
Flags: W
AnchorPoint: "Anchor-10" 0 0 basechar 0
AnchorPoint: "Anchor-9" 340 660 basechar 0
AnchorPoint: "Anchor-8" 0 0 basechar 0
AnchorPoint: "Anchor-7" 340 0 basechar 0
LayerCount: 2
Fore
SplineSet
670 544 m 1,0,-1
 594 544 l 1,1,-1
 594 0 l 1,2,-1
 550 0 l 1,3,-1
 550 350 l 1,4,-1
 130 350 l 1,5,-1
 130 0 l 1,6,-1
 86 0 l 1,7,-1
 86 544 l 1,8,-1
 10 544 l 1,9,-1
 10 584 l 1,10,-1
 86 584 l 1,11,-1
 86 700 l 1,12,-1
 130 700 l 1,13,-1
 130 584 l 1,14,-1
 550 584 l 1,15,-1
 550 700 l 1,16,-1
 594 700 l 1,17,-1
 594 584 l 1,18,-1
 670 584 l 1,19,-1
 670 544 l 1,0,-1
550 544 m 1,20,-1
 130 544 l 1,21,-1
 130 388 l 1,22,-1
 550 388 l 1,23,-1
 550 544 l 1,20,-1
EndSplineSet
EndChar

StartChar: I
Encoding: 73 73 74
Width: 350
GlyphClass: 2
Flags: W
AnchorPoint: "Anchor-10" 0 0 basechar 0
AnchorPoint: "Anchor-9" 175 660 basechar 0
AnchorPoint: "Anchor-8" 196 0 basechar 0
AnchorPoint: "Anchor-7" 175 0 basechar 0
LayerCount: 2
Fore
SplineSet
154 700 m 1,0,-1
 196 700 l 1,1,-1
 196 0 l 1,2,-1
 154 0 l 1,3,-1
 154 700 l 1,0,-1
EndSplineSet
EndChar

StartChar: J
Encoding: 74 74 88
Width: 427
GlyphClass: 2
Flags: W
AnchorPoint: "Anchor-10" 0 0 basechar 0
AnchorPoint: "Anchor-9" 318 660 basechar 0
AnchorPoint: "Anchor-8" 0 0 basechar 0
AnchorPoint: "Anchor-7" 214 0 basechar 0
LayerCount: 2
Fore
SplineSet
76 -2 m 128,-1,1
 44 6 44 6 24 17 c 1,2,3
 24 49 24 49 41 49 c 0,4,5
 43 49 43 49 67 43 c 0,6,7
 117 28 117 28 149 28 c 0,8,9
 224 28 224 28 260.5 66 c 128,-1,10
 297 104 297 104 297 183 c 2,11,-1
 297 700 l 1,12,-1
 339 700 l 1,13,-1
 339 183 l 2,14,15
 339 89 339 89 289.5 39.5 c 128,-1,16
 240 -10 240 -10 147 -10 c 0,17,0
 108 -10 108 -10 76 -2 c 128,-1,1
EndSplineSet
EndChar

StartChar: K
Encoding: 75 75 90
Width: 610
GlyphClass: 2
Flags: W
AnchorPoint: "Anchor-10" 0 0 basechar 0
AnchorPoint: "Anchor-9" 305 660 basechar 0
AnchorPoint: "Anchor-8" 0 0 basechar 0
AnchorPoint: "Anchor-7" 315 0 basechar 0
LayerCount: 2
Fore
SplineSet
585 3 m 1,0,1
 580 -2 580 -2 572 -5 c 128,-1,2
 564 -8 564 -8 557 -8 c 0,3,4
 547 -8 547 -8 541 -2.5 c 128,-1,5
 535 3 535 3 522 22 c 2,6,-1
 361 269 l 2,7,8
 341 300 341 300 325 314.5 c 128,-1,9
 309 329 309 329 287.5 334 c 128,-1,10
 266 339 266 339 227 339 c 2,11,-1
 142 339 l 1,12,-1
 142 0 l 1,13,-1
 100 0 l 1,14,-1
 100 700 l 1,15,-1
 142 700 l 1,16,-1
 142 377 l 1,17,-1
 242 377 l 2,18,19
 254 377 254 377 276 375 c 1,20,-1
 524 700 l 1,21,-1
 577 700 l 1,22,-1
 316 363 l 1,23,24
 358 345 358 345 397 286 c 2,25,-1
 585 3 l 1,0,1
EndSplineSet
EndChar

StartChar: L
Encoding: 76 76 92
Width: 513
GlyphClass: 2
Flags: W
AnchorPoint: "Anchor-10" 443 660 basechar 0
AnchorPoint: "Anchor-9" 107 660 basechar 0
AnchorPoint: "Anchor-8" 0 0 basechar 0
AnchorPoint: "Anchor-7" 292 0 basechar 0
LayerCount: 2
Fore
SplineSet
498 38 m 1,0,-1
 498 0 l 1,1,-1
 86 0 l 1,2,-1
 86 700 l 1,3,-1
 128 700 l 1,4,-1
 128 38 l 1,5,-1
 498 38 l 1,0,-1
EndSplineSet
EndChar

StartChar: Lslash
Encoding: 321 321 100
Width: 547
GlyphClass: 2
Flags: W
AnchorPoint: "Anchor-10" 463 660 basechar 0
AnchorPoint: "Anchor-9" 127 660 basechar 0
AnchorPoint: "Anchor-8" 0 0 basechar 0
AnchorPoint: "Anchor-7" 312 0 basechar 0
LayerCount: 2
Fore
SplineSet
518 38 m 1,0,-1
 518 0 l 1,1,-1
 106 0 l 1,2,-1
 106 353 l 1,3,-1
 17 317 l 1,4,-1
 17 356 l 1,5,-1
 106 392 l 1,6,-1
 106 700 l 1,7,-1
 148 700 l 1,8,-1
 148 408 l 1,9,-1
 369 497 l 1,10,-1
 369 458 l 1,11,-1
 148 369 l 1,12,-1
 148 38 l 1,13,-1
 518 38 l 1,0,-1
EndSplineSet
EndChar

StartChar: M
Encoding: 77 77 101
Width: 829
GlyphClass: 2
Flags: W
AnchorPoint: "Anchor-10" 0 0 basechar 0
AnchorPoint: "Anchor-9" 415 660 basechar 0
AnchorPoint: "Anchor-8" 0 0 basechar 0
AnchorPoint: "Anchor-7" 415 0 basechar 0
LayerCount: 2
Fore
SplineSet
711 0 m 1,0,1
 691 417 691 417 650 638 c 1,2,3
 579 487 579 487 526 353.5 c 128,-1,4
 473 220 473 220 431 80 c 1,5,-1
 399 80 l 1,6,7
 358 214 358 214 308 340.5 c 128,-1,8
 258 467 258 467 178 635 c 1,9,10
 139 408 139 408 118 0 c 1,11,-1
 76 0 l 1,12,13
 99 460 99 460 151 700 c 1,14,-1
 191 700 l 1,15,16
 275 530 275 530 327 404 c 128,-1,17
 379 278 379 278 415 160 c 1,18,19
 452 280 452 280 504 406 c 128,-1,20
 556 532 556 532 638 700 c 1,21,-1
 678 700 l 1,22,23
 729 471 729 471 753 0 c 1,24,-1
 711 0 l 1,0,1
EndSplineSet
EndChar

StartChar: N
Encoding: 78 78 103
Width: 689
GlyphClass: 2
Flags: W
AnchorPoint: "Anchor-10" 0 0 basechar 0
AnchorPoint: "Anchor-9" 343 660 basechar 0
AnchorPoint: "Anchor-8" 0 0 basechar 0
AnchorPoint: "Anchor-7" 343 0 basechar 0
LayerCount: 2
Fore
SplineSet
601 64 m 0,1,2
 603 36 603 36 603 27 c 0,3,4
 603 0 603 0 577 0 c 2,5,-1
 557 0 l 1,6,-1
 557 74 l 2,7,8
 557 102 557 102 552 116 c 128,-1,9
 547 130 547 130 528 153 c 2,10,-1
 128 642 l 1,11,-1
 128 0 l 1,12,-1
 86 0 l 1,13,-1
 86 700 l 1,14,-1
 121 700 l 2,15,16
 129 700 129 700 132.5 697.5 c 128,-1,17
 136 695 136 695 143 688 c 2,18,-1
 557 182 l 1,19,-1
 557 700 l 1,20,-1
 599 700 l 1,21,-1
 599 137 l 2,22,0
 599 106 599 106 601 64 c 0,1,2
EndSplineSet
EndChar

StartChar: Eng
Encoding: 330 330 109
Width: 685
Flags: W
LayerCount: 2
Fore
SplineSet
599 700 m 1,0,-1
 599 -69 l 2,1,2
 599 -128 599 -128 565 -160 c 128,-1,3
 531 -192 531 -192 477 -192 c 0,4,5
 447 -192 447 -192 419.5 -183.5 c 128,-1,6
 392 -175 392 -175 392 -159 c 0,7,8
 392 -153 392 -153 394.5 -148.5 c 128,-1,9
 397 -144 397 -144 401 -142 c 0,10,11
 433 -158 433 -158 478 -158 c 0,12,13
 557 -158 557 -158 557 -68 c 2,14,-1
 557 74 l 2,15,16
 557 102 557 102 552.5 115.5 c 128,-1,17
 548 129 548 129 528 153 c 2,18,-1
 128 642 l 1,19,-1
 128 0 l 1,20,-1
 86 0 l 1,21,-1
 86 700 l 1,22,-1
 121 700 l 2,23,24
 129 700 129 700 132.5 697.5 c 128,-1,25
 136 695 136 695 143 688 c 2,26,-1
 557 182 l 1,27,-1
 557 700 l 1,28,-1
 599 700 l 1,0,-1
EndSplineSet
EndChar

StartChar: O
Encoding: 79 79 112
Width: 680
GlyphClass: 2
Flags: W
AnchorPoint: "Anchor-10" 482 639 basechar 0
AnchorPoint: "Anchor-9" 340 660 basechar 0
AnchorPoint: "Anchor-8" 439 31 basechar 0
AnchorPoint: "Anchor-7" 340 0 basechar 0
LayerCount: 2
Fore
SplineSet
122.5 83 m 128,-1,1
 48 176 48 176 48 354 c 0,2,3
 48 528 48 528 122.5 619 c 128,-1,4
 197 710 197 710 340 710 c 256,5,6
 483 710 483 710 557.5 619 c 128,-1,7
 632 528 632 528 632 354 c 0,8,9
 632 176 632 176 557.5 83 c 128,-1,10
 483 -10 483 -10 340 -10 c 256,11,0
 197 -10 197 -10 122.5 83 c 128,-1,1
588 354 m 0,13,14
 588 513 588 513 526.5 591.5 c 128,-1,15
 465 670 465 670 340 670 c 256,16,17
 215 670 215 670 153.5 591.5 c 128,-1,18
 92 513 92 513 92 354 c 0,19,20
 92 30 92 30 340 30 c 256,21,12
 588 30 588 30 588 354 c 0,13,14
EndSplineSet
Substitution2: "Single Substitution lookup 20 subtable" ordmasculine
Substitution2: "'aalt' Access All Alternates lookup 0 subtable" ordmasculine
EndChar

StartChar: Ohorn
Encoding: 416 416 126
Width: 680
GlyphClass: 2
Flags: W
AnchorPoint: "Anchor-10" 482 639 basechar 0
AnchorPoint: "Anchor-9" 340 660 basechar 0
AnchorPoint: "Anchor-8" 439 31 basechar 0
AnchorPoint: "Anchor-7" 340 0 basechar 0
LayerCount: 2
Fore
SplineSet
632 354 m 0,1,2
 632 176 632 176 557.5 83 c 128,-1,3
 483 -10 483 -10 340 -10 c 256,4,5
 197 -10 197 -10 122.5 83 c 128,-1,6
 48 176 48 176 48 354 c 0,7,8
 48 528 48 528 122.5 619 c 128,-1,9
 197 710 197 710 340 710 c 0,10,11
 443 710 443 710 513 661 c 1,12,13
 540 668 540 668 557.5 686.5 c 128,-1,14
 575 705 575 705 575 733 c 0,15,16
 575 760 575 760 562 775.5 c 128,-1,17
 549 791 549 791 529 796 c 1,18,19
 531 806 531 806 538.5 812 c 128,-1,20
 546 818 546 818 557 818 c 0,21,22
 581 818 581 818 598 795.5 c 128,-1,23
 615 773 615 773 615 743 c 0,24,25
 615 705 615 705 595.5 678 c 128,-1,26
 576 651 576 651 540 638 c 1,27,0
 632 548 632 548 632 354 c 0,1,2
588 354 m 0,29,30
 588 554 588 554 490 627 c 0,31,32
 488 626 488 626 482 626 c 1,33,-1
 482 633 l 1,34,35
 427 670 427 670 340 670 c 0,36,37
 215 670 215 670 153.5 591.5 c 128,-1,38
 92 513 92 513 92 354 c 0,39,40
 92 30 92 30 340 30 c 256,41,28
 588 30 588 30 588 354 c 0,29,30
EndSplineSet
EndChar

StartChar: Oslash
Encoding: 216 216 134
Width: 680
GlyphClass: 2
Flags: W
AnchorPoint: "Anchor-10" 482 639 basechar 0
AnchorPoint: "Anchor-9" 340 660 basechar 0
AnchorPoint: "Anchor-8" 439 31 basechar 0
AnchorPoint: "Anchor-7" 340 0 basechar 0
LayerCount: 2
Fore
SplineSet
632 354 m 0,1,2
 632 176 632 176 557.5 83 c 128,-1,3
 483 -10 483 -10 340 -10 c 0,4,5
 231 -10 231 -10 161 45 c 1,6,-1
 131 0 l 1,7,-1
 83 0 l 1,8,-1
 131 73 l 1,9,10
 48 167 48 167 48 354 c 0,11,12
 48 528 48 528 122.5 619 c 128,-1,13
 197 710 197 710 340 710 c 0,14,15
 448 710 448 710 515 659 c 1,16,-1
 543 701 l 1,17,-1
 591 701 l 1,18,-1
 546 632 l 1,19,0
 632 541 632 541 632 354 c 0,1,2
155 110 m 1,21,-1
 493 625 l 1,22,23
 435 670 435 670 340 670 c 0,24,25
 215 670 215 670 153.5 591.5 c 128,-1,26
 92 513 92 513 92 354 c 0,27,20
 92 191 92 191 155 110 c 1,21,-1
588 354 m 0,29,30
 588 518 588 518 522 596 c 1,31,-1
 184 80 l 1,32,33
 243 30 243 30 340 30 c 0,34,28
 588 30 588 30 588 354 c 0,29,30
EndSplineSet
EndChar

StartChar: OE
Encoding: 338 338 137
Width: 1065
GlyphClass: 2
Flags: W
AnchorPoint: "Anchor-10" 482 639 basechar 0
AnchorPoint: "Anchor-9" 800 660 basechar 0
AnchorPoint: "Anchor-8" 1004 10 basechar 0
AnchorPoint: "Anchor-7" 785 0 basechar 0
LayerCount: 2
Fore
SplineSet
1010 40 m 1,0,1
 1010 18 1010 18 1004 9 c 128,-1,2
 998 0 998 0 982 0 c 2,3,-1
 591 0 l 1,4,-1
 591 137 l 1,5,6
 556 65 556 65 493 27.5 c 128,-1,7
 430 -10 430 -10 340 -10 c 0,8,9
 197 -10 197 -10 122.5 83 c 128,-1,10
 48 176 48 176 48 354 c 0,11,12
 48 528 48 528 122.5 619 c 128,-1,13
 197 710 197 710 340 710 c 0,14,15
 430 710 430 710 493 673.5 c 128,-1,16
 556 637 556 637 591 566 c 1,17,-1
 591 700 l 1,18,-1
 1009 700 l 1,19,-1
 1009 660 l 1,20,-1
 633 660 l 1,21,-1
 633 388 l 1,22,-1
 961 388 l 1,23,-1
 961 348 l 1,24,-1
 633 348 l 1,25,-1
 633 40 l 1,26,-1
 1010 40 l 1,0,1
588 354 m 0,28,29
 588 513 588 513 526.5 591.5 c 128,-1,30
 465 670 465 670 340 670 c 256,31,32
 215 670 215 670 153.5 591.5 c 128,-1,33
 92 513 92 513 92 354 c 0,34,35
 92 30 92 30 340 30 c 256,36,27
 588 30 588 30 588 354 c 0,28,29
EndSplineSet
EndChar

StartChar: P
Encoding: 80 80 138
Width: 615
GlyphClass: 2
Flags: W
AnchorPoint: "Anchor-10" 0 0 basechar 0
AnchorPoint: "Anchor-9" 308 660 basechar 0
AnchorPoint: "Anchor-8" 0 0 basechar 0
AnchorPoint: "Anchor-7" 308 0 basechar 0
LayerCount: 2
Fore
SplineSet
501.5 643.5 m 128,-1,1
 572 587 572 587 572 477 c 0,2,3
 572 365 572 365 501.5 308 c 128,-1,4
 431 251 431 251 294 251 c 2,5,-1
 128 251 l 1,6,-1
 128 0 l 1,7,-1
 86 0 l 1,8,-1
 86 700 l 1,9,-1
 294 700 l 2,10,0
 431 700 431 700 501.5 643.5 c 128,-1,1
469.5 338.5 m 128,-1,12
 530 386 530 386 530 477 c 0,13,14
 530 566 530 566 469.5 613 c 128,-1,15
 409 660 409 660 294 660 c 2,16,-1
 128 660 l 1,17,-1
 128 291 l 1,18,-1
 294 291 l 2,19,11
 409 291 409 291 469.5 338.5 c 128,-1,12
EndSplineSet
EndChar

StartChar: Thorn
Encoding: 222 222 139
Width: 641
GlyphClass: 2
Flags: W
AnchorPoint: "Anchor-10" 0 0 basechar 0
AnchorPoint: "Anchor-9" 321 700 basechar 0
AnchorPoint: "Anchor-8" 0 0 basechar 0
AnchorPoint: "Anchor-7" 321 0 basechar 0
LayerCount: 2
Fore
SplineSet
525 524 m 128,-1,1
 588 460 588 460 588 353 c 256,2,3
 588 246 588 246 525 182 c 128,-1,4
 462 118 462 118 327 118 c 2,5,-1
 151 118 l 1,6,-1
 151 0 l 1,7,-1
 109 0 l 1,8,-1
 109 700 l 1,9,-1
 151 700 l 1,10,-1
 151 588 l 1,11,-1
 327 588 l 2,12,0
 462 588 462 588 525 524 c 128,-1,1
491.5 209 m 128,-1,14
 544 262 544 262 544 353 c 256,15,16
 544 444 544 444 491.5 497 c 128,-1,17
 439 550 439 550 327 550 c 2,18,-1
 151 550 l 1,19,-1
 151 156 l 1,20,-1
 327 156 l 2,21,13
 439 156 439 156 491.5 209 c 128,-1,14
EndSplineSet
EndChar

StartChar: Q
Encoding: 81 81 140
Width: 680
GlyphClass: 2
Flags: W
AnchorPoint: "Anchor-10" 482 639 basechar 0
AnchorPoint: "Anchor-9" 340 660 basechar 0
AnchorPoint: "Anchor-8" 439 31 basechar 0
AnchorPoint: "Anchor-7" 340 0 basechar 0
LayerCount: 2
Fore
SplineSet
588.5 132.5 m 128,-1,1
 545 46 545 46 462 12 c 1,2,3
 488 -27 488 -27 520 -67 c 1,4,5
 511 -76 511 -76 505.5 -79 c 128,-1,6
 500 -82 500 -82 491 -82 c 256,7,8
 482 -82 482 -82 476 -77 c 128,-1,9
 470 -72 470 -72 461 -58 c 2,10,-1
 424 0 l 1,11,12
 387 -10 387 -10 340 -10 c 0,13,14
 197 -10 197 -10 122.5 83 c 128,-1,15
 48 176 48 176 48 354 c 0,16,17
 48 528 48 528 122.5 619 c 128,-1,18
 197 710 197 710 340 710 c 256,19,20
 483 710 483 710 557.5 619 c 128,-1,21
 632 528 632 528 632 354 c 0,22,0
 632 219 632 219 588.5 132.5 c 128,-1,1
588 354 m 0,24,25
 588 513 588 513 526.5 591.5 c 128,-1,26
 465 670 465 670 340 670 c 256,27,28
 215 670 215 670 153.5 591.5 c 128,-1,29
 92 513 92 513 92 354 c 0,30,31
 92 30 92 30 340 30 c 0,32,33
 373 30 373 30 401 36 c 1,34,-1
 386 59 l 2,35,36
 345 119 345 119 324 149 c 1,37,-1
 370 149 l 1,38,39
 394 110 394 110 438 46 c 1,40,23
 588 103 588 103 588 354 c 0,24,25
EndSplineSet
EndChar

StartChar: R
Encoding: 82 82 141
Width: 629
GlyphClass: 2
Flags: W
AnchorPoint: "Anchor-10" 0 0 basechar 0
AnchorPoint: "Anchor-9" 313 660 basechar 0
AnchorPoint: "Anchor-8" 0 0 basechar 0
AnchorPoint: "Anchor-7" 315 0 basechar 0
LayerCount: 2
Fore
SplineSet
585 3 m 1,0,1
 580 -2 580 -2 572 -5 c 128,-1,2
 564 -8 564 -8 557 -8 c 0,3,4
 547 -8 547 -8 541 -2.5 c 128,-1,5
 535 3 535 3 522 22 c 2,6,-1
 398 216 l 2,7,8
 366 265 366 265 333.5 282 c 128,-1,9
 301 299 301 299 237 299 c 2,10,-1
 128 299 l 1,11,-1
 128 0 l 1,12,-1
 86 0 l 1,13,-1
 86 700 l 1,14,-1
 313 700 l 2,15,16
 440 700 440 700 506 648.5 c 128,-1,17
 572 597 572 597 572 498 c 0,18,19
 572 415 572 415 519 361 c 128,-1,20
 466 307 466 307 377 298 c 1,21,22
 414 273 414 273 437 236 c 2,23,-1
 585 3 l 1,0,1
308 337 m 2,24,25
 416 337 416 337 471.5 378 c 128,-1,26
 527 419 527 419 527 498 c 0,27,28
 527 580 527 580 474 620 c 128,-1,29
 421 660 421 660 313 660 c 2,30,-1
 128 660 l 1,31,-1
 128 337 l 1,32,-1
 308 337 l 2,24,25
EndSplineSet
EndChar

StartChar: S
Encoding: 83 83 148
Width: 642
GlyphClass: 2
Flags: W
AnchorPoint: "Anchor-10" 0 0 basechar 0
AnchorPoint: "Anchor-9" 321 660 basechar 0
AnchorPoint: "Anchor-8" 0 0 basechar 0
AnchorPoint: "Anchor-7" 321 0 basechar 0
LayerCount: 2
Fore
SplineSet
199.5 12 m 128,-1,1
 140 34 140 34 104.5 70.5 c 128,-1,2
 69 107 69 107 69 149 c 0,3,4
 69 174 69 174 96 175 c 1,5,6
 107 108 107 108 170 68 c 128,-1,7
 233 28 233 28 330 28 c 256,8,9
 427 28 427 28 484 68.5 c 128,-1,10
 541 109 541 109 541 177 c 0,11,12
 541 222 541 222 520.5 252 c 128,-1,13
 500 282 500 282 453 302 c 128,-1,14
 406 322 406 322 323 338 c 0,15,16
 204 361 204 361 146.5 408 c 128,-1,17
 89 455 89 455 89 529 c 0,18,19
 89 613 89 613 151 661.5 c 128,-1,20
 213 710 213 710 320 710 c 0,21,22
 412 710 412 710 478.5 667 c 128,-1,23
 545 624 545 624 567 550 c 1,24,25
 561 540 561 540 548 540 c 0,26,27
 538 540 538 540 531 546 c 128,-1,28
 524 552 524 552 517 567 c 0,29,30
 491 622 491 622 442.5 648 c 128,-1,31
 394 674 394 674 320 674 c 0,32,33
 228 674 228 674 180.5 637.5 c 128,-1,34
 133 601 133 601 133 529 c 0,35,36
 133 471 133 471 178 437 c 128,-1,37
 223 403 223 403 332 378 c 0,38,39
 427 357 427 357 481.5 331.5 c 128,-1,40
 536 306 536 306 560.5 270.5 c 128,-1,41
 585 235 585 235 585 183 c 0,42,43
 585 93 585 93 516.5 41.5 c 128,-1,44
 448 -10 448 -10 328 -10 c 0,45,0
 259 -10 259 -10 199.5 12 c 128,-1,1
EndSplineSet
EndChar

StartChar: Scedilla
Encoding: 350 350 151
Width: 642
GlyphClass: 2
Flags: W
AnchorPoint: "Anchor-10" 0 0 basechar 0
AnchorPoint: "Anchor-9" 0 0 basechar 0
AnchorPoint: "Anchor-8" 0 0 basechar 0
AnchorPoint: "Anchor-7" 321 -214 basechar 0
LayerCount: 2
Fore
SplineSet
518.5 42.5 m 128,-1,1
 452 -9 452 -9 336 -10 c 1,2,-1
 295 -61 l 1,3,4
 309 -59 309 -59 316 -59 c 0,5,6
 355 -59 355 -59 380.5 -78.5 c 128,-1,7
 406 -98 406 -98 406 -136 c 0,8,9
 406 -180 406 -180 371 -204.5 c 128,-1,10
 336 -229 336 -229 285 -229 c 0,11,12
 239 -229 239 -229 213 -219.5 c 128,-1,13
 187 -210 187 -210 187 -191 c 0,14,15
 187 -183 187 -183 189 -179 c 1,16,17
 214 -186 214 -186 234 -189.5 c 128,-1,18
 254 -193 254 -193 281 -193 c 0,19,20
 327 -193 327 -193 346.5 -179.5 c 128,-1,21
 366 -166 366 -166 366 -135 c 0,22,23
 366 -113 366 -113 350.5 -101.5 c 128,-1,24
 335 -90 335 -90 307 -90 c 0,25,26
 292 -90 292 -90 267 -95 c 1,27,-1
 247 -75 l 1,28,-1
 296 -9 l 1,29,30
 234 -4 234 -4 182 18.5 c 128,-1,31
 130 41 130 41 99.5 75.5 c 128,-1,32
 69 110 69 110 69 149 c 0,33,34
 69 174 69 174 96 175 c 1,35,36
 107 108 107 108 170 68 c 128,-1,37
 233 28 233 28 330 28 c 256,38,39
 427 28 427 28 484 68.5 c 128,-1,40
 541 109 541 109 541 177 c 0,41,42
 541 222 541 222 520.5 252 c 128,-1,43
 500 282 500 282 453 302 c 128,-1,44
 406 322 406 322 323 338 c 0,45,46
 204 361 204 361 146.5 408 c 128,-1,47
 89 455 89 455 89 529 c 0,48,49
 89 613 89 613 151 661.5 c 128,-1,50
 213 710 213 710 320 710 c 0,51,52
 412 710 412 710 478.5 667 c 128,-1,53
 545 624 545 624 567 550 c 1,54,55
 561 540 561 540 548 540 c 0,56,57
 538 540 538 540 531 546 c 128,-1,58
 524 552 524 552 517 567 c 0,59,60
 491 622 491 622 442.5 648 c 128,-1,61
 394 674 394 674 320 674 c 0,62,63
 228 674 228 674 180.5 637.5 c 128,-1,64
 133 601 133 601 133 529 c 0,65,66
 133 471 133 471 178 437 c 128,-1,67
 223 403 223 403 332 378 c 0,68,69
 427 357 427 357 481.5 331.5 c 128,-1,70
 536 306 536 306 560.5 270.5 c 128,-1,71
 585 235 585 235 585 183 c 0,72,0
 585 94 585 94 518.5 42.5 c 128,-1,1
EndSplineSet
Substitution2: "'locl' Localized Forms in Latin lookup 7 subtable" uni0218
Substitution2: "'locl' Localized Forms in Latin lookup 6 subtable" uni0218
Substitution2: "'aalt' Access All Alternates lookup 0 subtable" uni0218
EndChar

StartChar: uni1E9E
Encoding: 7838 7838 156
Width: 700
Flags: W
LayerCount: 2
Fore
SplineSet
554.5 333 m 128,-1,1
 616 286 616 286 616 194 c 0,2,3
 616 129 616 129 586 83 c 128,-1,4
 556 37 556 37 504 13.5 c 128,-1,5
 452 -10 452 -10 388 -10 c 0,6,7
 344 -10 344 -10 303 1.5 c 128,-1,8
 262 13 262 13 241 31 c 0,9,10
 227 44 227 44 227 57 c 0,11,12
 227 64 227 64 231 70 c 128,-1,13
 235 76 235 76 242 78 c 1,14,15
 308 28 308 28 392 28 c 0,16,17
 472 28 472 28 522 72 c 128,-1,18
 572 116 572 116 572 193 c 0,19,20
 572 271 572 271 516.5 308.5 c 128,-1,21
 461 346 461 346 374 346 c 0,22,23
 357 346 357 346 346.5 358.5 c 128,-1,24
 336 371 336 371 336 388 c 1,25,-1
 529 550 l 1,26,27
 514 605 514 605 461 637.5 c 128,-1,28
 408 670 408 670 325 670 c 0,29,30
 270 670 270 670 224.5 644.5 c 128,-1,31
 179 619 179 619 152.5 573.5 c 128,-1,32
 126 528 126 528 126 469 c 2,33,-1
 126 0 l 1,34,-1
 84 0 l 1,35,-1
 84 469 l 2,36,37
 84 542 84 542 118 596.5 c 128,-1,38
 152 651 152 651 207.5 679.5 c 128,-1,39
 263 708 263 708 328 708 c 256,40,41
 393 708 393 708 447 685.5 c 128,-1,42
 501 663 501 663 535.5 624.5 c 128,-1,43
 570 586 570 586 581 539 c 1,44,-1
 395 388 l 1,45,0
 493 380 493 380 554.5 333 c 128,-1,1
EndSplineSet
EndChar

StartChar: uni018F
Encoding: 399 399 157
Width: 692
Flags: W
LayerCount: 2
Fore
SplineSet
488 667 m 128,-1,1
 559 624 559 624 596.5 542.5 c 128,-1,2
 634 461 634 461 634 348 c 0,3,4
 634 173 634 173 555.5 81.5 c 128,-1,5
 477 -10 477 -10 328 -10 c 0,6,7
 188 -10 188 -10 115 73 c 128,-1,8
 42 156 42 156 42 315 c 2,9,-1
 42 363 l 1,10,-1
 590 363 l 1,11,12
 586 509 586 509 516 588 c 128,-1,13
 446 667 446 667 320 667 c 0,14,15
 265 667 265 667 214 649 c 128,-1,16
 163 631 163 631 125 599 c 0,17,18
 111 587 111 587 101 587 c 0,19,20
 94 587 94 587 86 592.5 c 128,-1,21
 78 598 78 598 65 613 c 1,22,23
 112 657 112 657 181.5 683.5 c 128,-1,24
 251 710 251 710 319 710 c 0,25,0
 417 710 417 710 488 667 c 128,-1,1
518 102.5 m 128,-1,27
 584 177 584 177 589 321 c 1,28,-1
 84 321 l 1,29,30
 84 176 84 176 146 102 c 128,-1,31
 208 28 208 28 329 28 c 0,32,26
 452 28 452 28 518 102.5 c 128,-1,27
EndSplineSet
EndChar

StartChar: T
Encoding: 84 84 158
Width: 534
GlyphClass: 2
Flags: W
AnchorPoint: "Anchor-10" 0 0 basechar 0
AnchorPoint: "Anchor-9" 270 660 basechar 0
AnchorPoint: "Anchor-8" 0 0 basechar 0
AnchorPoint: "Anchor-7" 269 0 basechar 0
LayerCount: 2
Fore
SplineSet
523 681 m 0,1,2
 523 660 523 660 497 660 c 2,3,-1
 292 660 l 1,4,-1
 292 0 l 1,5,-1
 250 0 l 1,6,-1
 250 660 l 1,7,-1
 15 660 l 1,8,-1
 15 700 l 1,9,-1
 519 700 l 1,10,0
 523 688 523 688 523 681 c 0,1,2
EndSplineSet
EndChar

StartChar: Tbar
Encoding: 358 358 159
Width: 533
GlyphClass: 2
Flags: W
AnchorPoint: "Anchor-10" 0 0 basechar 0
AnchorPoint: "Anchor-9" 270 660 basechar 0
AnchorPoint: "Anchor-8" 0 0 basechar 0
AnchorPoint: "Anchor-7" 269 0 basechar 0
LayerCount: 2
Fore
SplineSet
523 681 m 0,1,2
 523 660 523 660 497 660 c 2,3,-1
 292 660 l 1,4,-1
 292 363 l 1,5,-1
 434 363 l 1,6,-1
 434 325 l 1,7,-1
 292 325 l 1,8,-1
 292 0 l 1,9,-1
 250 0 l 1,10,-1
 250 325 l 1,11,-1
 102 325 l 1,12,-1
 102 363 l 1,13,-1
 250 363 l 1,14,-1
 250 660 l 1,15,-1
 15 660 l 1,16,-1
 15 700 l 1,17,-1
 519 700 l 1,18,0
 523 688 523 688 523 681 c 0,1,2
EndSplineSet
EndChar

StartChar: U
Encoding: 85 85 165
Width: 708
GlyphClass: 2
Flags: W
AnchorPoint: "Anchor-10" 625 673 basechar 0
AnchorPoint: "Anchor-9" 354 660 basechar 0
AnchorPoint: "Anchor-8" 445 10 basechar 0
AnchorPoint: "Anchor-7" 354 0 basechar 0
LayerCount: 2
Fore
SplineSet
152.5 54.5 m 128,-1,1
 86 119 86 119 86 251 c 2,2,-1
 86 700 l 1,3,-1
 128 700 l 1,4,-1
 128 251 l 2,5,6
 128 138 128 138 184 83 c 128,-1,7
 240 28 240 28 356 28 c 256,8,9
 472 28 472 28 527.5 82 c 128,-1,10
 583 136 583 136 583 251 c 2,11,-1
 583 700 l 1,12,-1
 625 700 l 1,13,-1
 625 251 l 2,14,15
 625 117 625 117 560 53.5 c 128,-1,16
 495 -10 495 -10 356 -10 c 0,17,0
 219 -10 219 -10 152.5 54.5 c 128,-1,1
EndSplineSet
EndChar

StartChar: Uogonek
Encoding: 370 370 186
Width: 708
GlyphClass: 2
Flags: W
AnchorPoint: "Anchor-10" 625 673 basechar 0
AnchorPoint: "Anchor-9" 354 660 basechar 0
AnchorPoint: "Anchor-8" 445 10 basechar 0
AnchorPoint: "Anchor-7" 354 0 basechar 0
LayerCount: 2
Fore
SplineSet
625 700 m 1,0,-1
 625 251 l 2,1,2
 625 133 625 133 575 70 c 128,-1,3
 525 7 525 7 420 -6 c 1,4,5
 361 -49 361 -49 361 -109 c 0,6,7
 361 -136 361 -136 378.5 -151 c 128,-1,8
 396 -166 396 -166 425 -166 c 0,9,10
 457 -166 457 -166 478 -153 c 1,11,12
 484 -162 484 -162 484 -171 c 0,13,14
 484 -184 484 -184 466.5 -192 c 128,-1,15
 449 -200 449 -200 415 -200 c 0,16,17
 375 -200 375 -200 348 -175.5 c 128,-1,18
 321 -151 321 -151 321 -112 c 0,19,20
 321 -49 321 -49 373 -10 c 1,21,-1
 356 -10 l 2,22,23
 219 -10 219 -10 152.5 54.5 c 128,-1,24
 86 119 86 119 86 251 c 2,25,-1
 86 700 l 1,26,-1
 128 700 l 1,27,-1
 128 251 l 2,28,29
 128 138 128 138 184 83 c 128,-1,30
 240 28 240 28 356 28 c 256,31,32
 472 28 472 28 527.5 82 c 128,-1,33
 583 136 583 136 583 251 c 2,34,-1
 583 700 l 1,35,-1
 625 700 l 1,0,-1
EndSplineSet
EndChar

StartChar: V
Encoding: 86 86 189
Width: 638
GlyphClass: 2
Flags: W
AnchorPoint: "Anchor-10" 0 0 basechar 0
AnchorPoint: "Anchor-9" 319 660 basechar 0
AnchorPoint: "Anchor-8" 0 0 basechar 0
AnchorPoint: "Anchor-7" 319 0 basechar 0
LayerCount: 2
Fore
SplineSet
608 700 m 1,0,1
 574 492 574 492 506.5 315 c 128,-1,2
 439 138 439 138 342 0 c 1,3,-1
 297 0 l 1,4,5
 200 139 200 139 132 316.5 c 128,-1,6
 64 494 64 494 30 700 c 1,7,-1
 78 700 l 1,8,9
 109 508 109 508 170 341.5 c 128,-1,10
 231 175 231 175 320 44 c 1,11,12
 498 309 498 309 560 700 c 1,13,-1
 608 700 l 1,0,1
EndSplineSet
EndChar

StartChar: W
Encoding: 87 87 190
Width: 856
GlyphClass: 2
Flags: W
AnchorPoint: "Anchor-10" 0 0 basechar 0
AnchorPoint: "Anchor-9" 428 660 basechar 0
AnchorPoint: "Anchor-8" 0 0 basechar 0
AnchorPoint: "Anchor-7" 428 0 basechar 0
LayerCount: 2
Fore
SplineSet
841 700 m 1,0,1
 818 540 818 540 772.5 375.5 c 128,-1,2
 727 211 727 211 646 0 c 1,3,-1
 604 0 l 1,4,5
 529 243 529 243 492 370 c 128,-1,6
 455 497 455 497 433 593 c 1,7,8
 411 496 411 496 374 367.5 c 128,-1,9
 337 239 337 239 262 0 c 1,10,-1
 220 0 l 1,11,12
 137 205 137 205 88.5 371 c 128,-1,13
 40 537 40 537 15 700 c 1,14,-1
 57 700 l 1,15,16
 79 564 79 564 128.5 389.5 c 128,-1,17
 178 215 178 215 239 60 c 1,18,19
 332 331 332 331 420 700 c 1,20,-1
 442 700 l 1,21,22
 538 325 538 325 626 61 c 1,23,24
 685 216 685 216 733.5 390.5 c 128,-1,25
 782 565 782 565 803 700 c 1,26,-1
 841 700 l 1,0,1
EndSplineSet
EndChar

StartChar: X
Encoding: 88 88 195
Width: 582
GlyphClass: 2
Flags: W
AnchorPoint: "Anchor-10" 0 0 basechar 0
AnchorPoint: "Anchor-9" 301 660 basechar 0
AnchorPoint: "Anchor-8" 0 0 basechar 0
AnchorPoint: "Anchor-7" 301 0 basechar 0
LayerCount: 2
Fore
SplineSet
429 261.5 m 128,-1,1
 473 213 473 213 508 148 c 128,-1,2
 543 83 543 83 558 0 c 1,3,-1
 511 0 l 1,4,5
 499 73 499 73 467.5 132.5 c 128,-1,6
 436 192 436 192 394 239 c 128,-1,7
 352 286 352 286 291 342 c 1,8,9
 230 286 230 286 188 239 c 128,-1,10
 146 192 146 192 114.5 132.5 c 128,-1,11
 83 73 83 73 71 0 c 1,12,-1
 24 0 l 1,13,14
 39 83 39 83 74 148 c 128,-1,15
 109 213 109 213 153 261.5 c 128,-1,16
 197 310 197 310 262 369 c 1,17,18
 199 428 199 428 158.5 472 c 128,-1,19
 118 516 118 516 85.5 573.5 c 128,-1,20
 53 631 53 631 39 700 c 1,21,-1
 84 700 l 1,22,23
 97 636 97 636 127 583 c 128,-1,24
 157 530 157 530 195.5 489 c 128,-1,25
 234 448 234 448 291 396 c 1,26,27
 348 448 348 448 386.5 489 c 128,-1,28
 425 530 425 530 455 583 c 128,-1,29
 485 636 485 636 498 700 c 1,30,-1
 543 700 l 1,31,32
 529 631 529 631 496.5 573.5 c 128,-1,33
 464 516 464 516 423.5 472 c 128,-1,34
 383 428 383 428 320 369 c 1,35,0
 385 310 385 310 429 261.5 c 128,-1,1
EndSplineSet
EndChar

StartChar: Y
Encoding: 89 89 196
Width: 590
GlyphClass: 2
Flags: W
AnchorPoint: "Anchor-10" 0 0 basechar 0
AnchorPoint: "Anchor-9" 295 660 basechar 0
AnchorPoint: "Anchor-8" 0 0 basechar 0
AnchorPoint: "Anchor-7" 295 0 basechar 0
LayerCount: 2
Fore
SplineSet
570 700 m 1,0,-1
 316 294 l 1,1,-1
 316 0 l 1,2,-1
 274 0 l 1,3,-1
 274 294 l 1,4,-1
 20 700 l 1,5,-1
 68 700 l 1,6,-1
 296 323 l 1,7,-1
 523 700 l 1,8,-1
 570 700 l 1,0,-1
EndSplineSet
EndChar

StartChar: Z
Encoding: 90 90 205
Width: 580
GlyphClass: 2
Flags: W
AnchorPoint: "Anchor-10" 0 0 basechar 0
AnchorPoint: "Anchor-9" 290 660 basechar 0
AnchorPoint: "Anchor-8" 0 0 basechar 0
AnchorPoint: "Anchor-7" 290 0 basechar 0
LayerCount: 2
Fore
SplineSet
528 40 m 1,0,-1
 528 0 l 1,1,-1
 54 0 l 1,2,-1
 54 40 l 1,3,-1
 471 660 l 1,4,-1
 52 660 l 1,5,-1
 52 700 l 1,6,-1
 520 700 l 1,7,-1
 520 666 l 1,8,-1
 106 40 l 1,9,-1
 528 40 l 1,0,-1
EndSplineSet
EndChar

StartChar: a
Encoding: 97 97 210
Width: 558
GlyphClass: 2
Flags: W
AnchorPoint: "Anchor-10" 0 0 basechar 0
AnchorPoint: "Anchor-9" 277 550 basechar 0
AnchorPoint: "Anchor-8" 502 10 basechar 0
AnchorPoint: "Anchor-7" 279 0 basechar 0
LayerCount: 2
Fore
SplineSet
483.5 55.5 m 128,-1,1
 491 31 491 31 510 17 c 1,2,3
 509 10 509 10 500.5 2.5 c 128,-1,4
 492 -5 492 -5 484 -5 c 0,5,6
 464 -5 464 -5 450 26 c 128,-1,7
 436 57 436 57 434 103 c 1,8,9
 397 50 397 50 337 20 c 128,-1,10
 277 -10 277 -10 208 -10 c 0,11,12
 163 -10 163 -10 127 9 c 128,-1,13
 91 28 91 28 70.5 61.5 c 128,-1,14
 50 95 50 95 50 137 c 0,15,16
 50 325 50 325 434 341 c 1,17,-1
 434 373 l 2,18,19
 434 524 434 524 283 524 c 0,20,21
 172 524 172 524 92 444 c 0,22,23
 87 439 87 439 80 439 c 0,24,25
 72 439 72 439 64 445 c 128,-1,26
 56 451 56 451 51 461 c 1,27,28
 93 508 93 508 155 534 c 128,-1,29
 217 560 217 560 286 560 c 0,30,31
 377 560 377 560 426.5 511 c 128,-1,32
 476 462 476 462 476 373 c 2,33,-1
 476 127 l 2,34,0
 476 80 476 80 483.5 55.5 c 128,-1,1
332 61 m 128,-1,36
 390 96 390 96 434 158 c 1,37,-1
 434 305 l 1,38,39
 259 298 259 298 175.5 257 c 128,-1,40
 92 216 92 216 92 138 c 0,41,42
 92 88 92 88 125.5 57 c 128,-1,43
 159 26 159 26 213 26 c 0,44,35
 274 26 274 26 332 61 c 128,-1,36
EndSplineSet
Substitution2: "Single Substitution lookup 20 subtable" ordfeminine
Substitution2: "'aalt' Access All Alternates lookup 0 subtable" ordfeminine
EndChar

StartChar: uni0251
Encoding: 593 593 229
Width: 598
Flags: W
LayerCount: 2
Fore
SplineSet
510.5 44.5 m 128,-1,1
 514 23 514 23 521 8 c 1,2,3
 512 -4 512 -4 498 -4 c 256,4,5
 484 -4 484 -4 477.5 14 c 128,-1,6
 471 32 471 32 469 68 c 1,7,8
 439 32 439 32 390 11 c 128,-1,9
 341 -10 341 -10 283 -10 c 0,10,11
 219 -10 219 -10 166.5 19.5 c 128,-1,12
 114 49 114 49 82 112.5 c 128,-1,13
 50 176 50 176 50 272 c 0,14,15
 50 406 50 406 114.5 483 c 128,-1,16
 179 560 179 560 292 560 c 0,17,18
 346 560 346 560 391.5 543.5 c 128,-1,19
 437 527 437 527 469 502 c 1,20,-1
 469 550 l 1,21,-1
 507 550 l 1,22,-1
 507 128 l 2,23,0
 507 66 507 66 510.5 44.5 c 128,-1,1
390.5 48.5 m 128,-1,25
 437 71 437 71 469 112 c 1,26,-1
 469 461 l 1,27,28
 429 493 429 493 387 509.5 c 128,-1,29
 345 526 345 526 292 526 c 0,30,31
 235 526 235 526 189.5 497 c 128,-1,32
 144 468 144 468 117 410.5 c 128,-1,33
 90 353 90 353 90 272 c 256,34,35
 90 191 90 191 116.5 135.5 c 128,-1,36
 143 80 143 80 188 53 c 128,-1,37
 233 26 233 26 288 26 c 0,38,24
 344 26 344 26 390.5 48.5 c 128,-1,25
EndSplineSet
EndChar

StartChar: aogonek
Encoding: 261 261 231
Width: 558
GlyphClass: 2
Flags: W
AnchorPoint: "Anchor-10" 0 0 basechar 0
AnchorPoint: "Anchor-9" 277 550 basechar 0
AnchorPoint: "Anchor-8" 502 10 basechar 0
AnchorPoint: "Anchor-7" 279 0 basechar 0
LayerCount: 2
Fore
SplineSet
541 -171 m 0,1,2
 541 -184 541 -184 523.5 -192 c 128,-1,3
 506 -200 506 -200 472 -200 c 0,4,5
 432 -200 432 -200 405 -175.5 c 128,-1,6
 378 -151 378 -151 378 -112 c 0,7,8
 378 -71 378 -71 399 -42 c 128,-1,9
 420 -13 420 -13 460 9 c 1,10,11
 449 23 449 23 442 48 c 128,-1,12
 435 73 435 73 434 103 c 1,13,14
 397 50 397 50 337 20 c 128,-1,15
 277 -10 277 -10 208 -10 c 0,16,17
 163 -10 163 -10 127 9 c 128,-1,18
 91 28 91 28 70.5 61.5 c 128,-1,19
 50 95 50 95 50 137 c 0,20,21
 50 325 50 325 434 341 c 1,22,-1
 434 373 l 2,23,24
 434 524 434 524 283 524 c 0,25,26
 172 524 172 524 92 444 c 0,27,28
 87 439 87 439 80 439 c 0,29,30
 72 439 72 439 64 445 c 128,-1,31
 56 451 56 451 51 461 c 1,32,33
 93 508 93 508 155 534 c 128,-1,34
 217 560 217 560 286 560 c 0,35,36
 377 560 377 560 426.5 511 c 128,-1,37
 476 462 476 462 476 373 c 2,38,-1
 476 127 l 2,39,40
 476 80 476 80 483.5 55.5 c 128,-1,41
 491 31 491 31 510 17 c 1,42,43
 509 10 509 10 500.5 2.5 c 128,-1,44
 492 -5 492 -5 484 -5 c 2,45,-1
 479 -5 l 1,46,47
 418 -49 418 -49 418 -109 c 0,48,49
 418 -136 418 -136 435.5 -151 c 128,-1,50
 453 -166 453 -166 482 -166 c 0,51,52
 514 -166 514 -166 535 -153 c 1,53,0
 541 -162 541 -162 541 -171 c 0,1,2
332 61 m 128,-1,55
 390 96 390 96 434 158 c 1,56,-1
 434 305 l 1,57,58
 259 298 259 298 175.5 257 c 128,-1,59
 92 216 92 216 92 138 c 0,60,61
 92 88 92 88 125.5 57 c 128,-1,62
 159 26 159 26 213 26 c 0,63,54
 274 26 274 26 332 61 c 128,-1,55
EndSplineSet
EndChar

StartChar: ae
Encoding: 230 230 235
Width: 945
GlyphClass: 2
Flags: W
AnchorPoint: "Anchor-10" 0 0 basechar 0
AnchorPoint: "Anchor-9" 449 550 basechar 0
AnchorPoint: "Anchor-8" 0 0 basechar 0
AnchorPoint: "Anchor-7" 449 0 basechar 0
LayerCount: 2
Fore
SplineSet
478 288 m 1,0,-1
 478 277 l 2,1,2
 478 194 478 194 504 137.5 c 128,-1,3
 530 81 530 81 575 53.5 c 128,-1,4
 620 26 620 26 675 26 c 0,5,6
 745 26 745 26 785.5 51.5 c 128,-1,7
 826 77 826 77 849 128 c 0,8,9
 855 139 855 139 866 139 c 0,10,11
 878 139 878 139 894 128 c 1,12,13
 866 60 866 60 813.5 24 c 128,-1,14
 761 -12 761 -12 675 -12 c 0,15,16
 603 -12 603 -12 547.5 23.5 c 128,-1,17
 492 59 492 59 464 128 c 1,18,19
 424 63 424 63 359.5 25.5 c 128,-1,20
 295 -12 295 -12 218 -12 c 0,21,22
 146 -12 146 -12 98 26.5 c 128,-1,23
 50 65 50 65 50 132 c 0,24,25
 50 231 50 231 149 276 c 128,-1,26
 248 321 248 321 438 322 c 1,27,-1
 438 373 l 2,28,29
 438 524 438 524 273 524 c 0,30,31
 217 524 217 524 176 504 c 128,-1,32
 135 484 135 484 93 439 c 0,33,34
 84 429 84 429 77 429 c 0,35,36
 67 429 67 429 51 451 c 1,37,38
 93 501 93 501 149.5 530.5 c 128,-1,39
 206 560 206 560 276 560 c 0,40,41
 347 560 347 560 399.5 528.5 c 128,-1,42
 452 497 452 497 469 431 c 1,43,44
 499 495 499 495 555 527.5 c 128,-1,45
 611 560 611 560 679 560 c 0,46,47
 784 560 784 560 842.5 499.5 c 128,-1,48
 901 439 901 439 905 315 c 0,49,50
 905 304 905 304 903 288 c 1,51,-1
 478 288 l 1,0,-1
545.5 475 m 128,-1,53
 491 424 491 424 480 322 c 1,54,-1
 865 322 l 1,55,56
 861 426 861 426 810.5 476 c 128,-1,57
 760 526 760 526 676 526 c 0,58,52
 600 526 600 526 545.5 475 c 128,-1,53
360 68 m 128,-1,60
 422 112 422 112 449 176 c 1,61,62
 438 223 438 223 438 277 c 2,63,-1
 438 286 l 1,64,65
 308 283 308 283 232 265.5 c 128,-1,66
 156 248 156 248 123 216 c 128,-1,67
 90 184 90 184 90 133 c 0,68,69
 90 84 90 84 127 54 c 128,-1,70
 164 24 164 24 223 24 c 0,71,59
 298 24 298 24 360 68 c 128,-1,60
EndSplineSet
EndChar

StartChar: b
Encoding: 98 98 237
Width: 610
Flags: W
LayerCount: 2
Fore
SplineSet
495.5 486.5 m 128,-1,1
 560 413 560 413 560 284 c 0,2,3
 560 144 560 144 495.5 67 c 128,-1,4
 431 -10 431 -10 313 -10 c 0,5,6
 261 -10 261 -10 215 8 c 128,-1,7
 169 26 169 26 139 57 c 1,8,9
 135 30 135 30 128 14 c 128,-1,10
 121 -2 121 -2 112 -2 c 0,11,12
 101 -2 101 -2 82 12 c 1,13,14
 101 54 101 54 101 132 c 2,15,-1
 101 791 l 1,16,-1
 143 791 l 1,17,-1
 143 504 l 1,18,19
 178 530 178 530 224 545 c 128,-1,20
 270 560 270 560 318 560 c 0,21,0
 431 560 431 560 495.5 486.5 c 128,-1,1
463.5 96 m 128,-1,23
 518 164 518 164 518 284 c 0,24,25
 518 397 518 397 465 460.5 c 128,-1,26
 412 524 412 524 318 524 c 0,27,28
 219 524 219 524 143 460 c 1,29,-1
 143 108 l 1,30,-1
 143 102 l 1,31,32
 174 68 174 68 219.5 48 c 128,-1,33
 265 28 265 28 313 28 c 0,34,22
 409 28 409 28 463.5 96 c 128,-1,23
EndSplineSet
EndChar

StartChar: c
Encoding: 99 99 238
Width: 547
GlyphClass: 2
Flags: W
AnchorPoint: "Anchor-10" 0 0 basechar 0
AnchorPoint: "Anchor-9" 287 550 basechar 0
AnchorPoint: "Anchor-8" 0 0 basechar 0
AnchorPoint: "Anchor-7" 287 0 basechar 0
LayerCount: 2
Fore
SplineSet
156 25.5 m 128,-1,1
 100 61 100 61 70 126 c 128,-1,2
 40 191 40 191 40 278 c 0,3,4
 40 362 40 362 71.5 426 c 128,-1,5
 103 490 103 490 160 525 c 128,-1,6
 217 560 217 560 292 560 c 0,7,8
 381 560 381 560 438.5 513 c 128,-1,9
 496 466 496 466 503 387 c 1,10,11
 488 378 488 378 477 378 c 0,12,13
 469 378 469 378 465 383.5 c 128,-1,14
 461 389 461 389 457 405 c 0,15,16
 444 460 444 460 400 492 c 128,-1,17
 356 524 356 524 292 524 c 0,18,19
 230 524 230 524 182.5 493 c 128,-1,20
 135 462 135 462 108.5 406 c 128,-1,21
 82 350 82 350 82 278 c 0,22,23
 82 203 82 203 107 146.5 c 128,-1,24
 132 90 132 90 178.5 59 c 128,-1,25
 225 28 225 28 286 28 c 0,26,27
 353 28 353 28 400 56 c 128,-1,28
 447 84 447 84 472 139 c 1,29,30
 481 139 481 139 487 132.5 c 128,-1,31
 493 126 493 126 493 116 c 0,32,33
 493 85 493 85 463 56 c 128,-1,34
 433 27 433 27 385 8.5 c 128,-1,35
 337 -10 337 -10 286 -10 c 0,36,0
 212 -10 212 -10 156 25.5 c 128,-1,1
EndSplineSet
EndChar

StartChar: ccedilla
Encoding: 231 231 241
Width: 547
GlyphClass: 2
Flags: W
AnchorPoint: "Anchor-10" 0 0 basechar 0
AnchorPoint: "Anchor-9" 0 0 basechar 0
AnchorPoint: "Anchor-8" 0 0 basechar 0
AnchorPoint: "Anchor-7" 287 -214 basechar 0
LayerCount: 2
Fore
SplineSet
487 132.5 m 128,-1,1
 493 126 493 126 493 116 c 0,2,3
 493 87 493 87 466 59 c 128,-1,4
 439 31 439 31 395 12.5 c 128,-1,5
 351 -6 351 -6 302 -9 c 1,6,-1
 261 -61 l 1,7,8
 275 -59 275 -59 282 -59 c 0,9,10
 321 -59 321 -59 346.5 -78.5 c 128,-1,11
 372 -98 372 -98 372 -136 c 0,12,13
 372 -180 372 -180 337 -204.5 c 128,-1,14
 302 -229 302 -229 251 -229 c 0,15,16
 205 -229 205 -229 179 -219.5 c 128,-1,17
 153 -210 153 -210 153 -191 c 0,18,19
 153 -183 153 -183 155 -179 c 1,20,21
 180 -186 180 -186 200 -189.5 c 128,-1,22
 220 -193 220 -193 247 -193 c 0,23,24
 293 -193 293 -193 312.5 -179.5 c 128,-1,25
 332 -166 332 -166 332 -135 c 0,26,27
 332 -113 332 -113 316.5 -101.5 c 128,-1,28
 301 -90 301 -90 273 -90 c 0,29,30
 258 -90 258 -90 233 -95 c 1,31,-1
 213 -75 l 1,32,-1
 261 -9 l 1,33,34
 159 0 159 0 99.5 77 c 128,-1,35
 40 154 40 154 40 278 c 0,36,37
 40 362 40 362 71.5 426 c 128,-1,38
 103 490 103 490 160 525 c 128,-1,39
 217 560 217 560 292 560 c 0,40,41
 381 560 381 560 438.5 513 c 128,-1,42
 496 466 496 466 503 387 c 1,43,44
 488 378 488 378 477 378 c 0,45,46
 469 378 469 378 465 383.5 c 128,-1,47
 461 389 461 389 457 405 c 0,48,49
 444 460 444 460 400 492 c 128,-1,50
 356 524 356 524 292 524 c 0,51,52
 230 524 230 524 182.5 493 c 128,-1,53
 135 462 135 462 108.5 406 c 128,-1,54
 82 350 82 350 82 278 c 0,55,56
 82 203 82 203 107 146.5 c 128,-1,57
 132 90 132 90 178.5 59 c 128,-1,58
 225 28 225 28 286 28 c 0,59,60
 353 28 353 28 400 56 c 128,-1,61
 447 84 447 84 472 139 c 1,62,0
 481 139 481 139 487 132.5 c 128,-1,1
EndSplineSet
EndChar

StartChar: d
Encoding: 100 100 244
Width: 598
GlyphClass: 2
Flags: W
AnchorPoint: "Anchor-10" 578 550 basechar 0
AnchorPoint: "Anchor-9" 299 750 basechar 0
AnchorPoint: "Anchor-8" 0 0 basechar 0
AnchorPoint: "Anchor-7" 299 0 basechar 0
LayerCount: 2
Fore
SplineSet
510 52.5 m 128,-1,1
 513 26 513 26 521 8 c 1,2,3
 517 3 517 3 510 -0.5 c 128,-1,4
 503 -4 503 -4 496 -4 c 0,5,6
 483 -4 483 -4 475 13.5 c 128,-1,7
 467 31 467 31 466 63 c 1,8,9
 434 29 434 29 386 9.5 c 128,-1,10
 338 -10 338 -10 283 -10 c 0,11,12
 174 -10 174 -10 112 65.5 c 128,-1,13
 50 141 50 141 50 273 c 0,14,15
 50 407 50 407 114.5 483.5 c 128,-1,16
 179 560 179 560 292 560 c 0,17,18
 339 560 339 560 385 545.5 c 128,-1,19
 431 531 431 531 465 505 c 1,20,-1
 465 791 l 1,21,-1
 507 791 l 1,22,-1
 507 128 l 2,23,0
 507 79 507 79 510 52.5 c 128,-1,1
387 49.5 m 128,-1,25
 433 71 433 71 465 110 c 1,26,-1
 465 462 l 1,27,28
 424 494 424 494 382 509 c 128,-1,29
 340 524 340 524 292 524 c 0,30,31
 232 524 232 524 186.5 493 c 128,-1,32
 141 462 141 462 116.5 405.5 c 128,-1,33
 92 349 92 349 92 273 c 0,34,35
 92 160 92 160 144.5 94 c 128,-1,36
 197 28 197 28 288 28 c 0,37,24
 341 28 341 28 387 49.5 c 128,-1,25
EndSplineSet
EndChar

StartChar: eth
Encoding: 240 240 245
Width: 547
Flags: W
LayerCount: 2
Fore
SplineSet
507 275 m 0,1,2
 507 151 507 151 452 69.5 c 128,-1,3
 397 -12 397 -12 274 -12 c 0,4,5
 150 -12 150 -12 95 69.5 c 128,-1,6
 40 151 40 151 40 275 c 0,7,8
 40 349 40 349 62.5 413 c 128,-1,9
 85 477 85 477 137.5 518.5 c 128,-1,10
 190 560 190 560 274 560 c 0,11,12
 357 560 357 560 417 510 c 1,13,14
 373 594 373 594 291 672 c 1,15,-1
 183 605 l 1,16,-1
 159 636 l 1,17,-1
 260 699 l 1,18,19
 212 738 212 738 162 762 c 1,20,-1
 188 794 l 1,21,22
 247 761 247 761 297 721 c 1,23,-1
 416 795 l 1,24,-1
 439 763 l 1,25,-1
 328 695 l 1,26,0
 507 532 507 532 507 275 c 0,1,2
420.5 93 m 128,-1,28
 467 160 467 160 467 275 c 0,29,30
 467 385 467 385 420 453.5 c 128,-1,31
 373 522 373 522 274 522 c 256,32,33
 175 522 175 522 127.5 453.5 c 128,-1,34
 80 385 80 385 80 275 c 0,35,36
 80 159 80 159 127 92.5 c 128,-1,37
 174 26 174 26 274 26 c 256,38,27
 374 26 374 26 420.5 93 c 128,-1,28
EndSplineSet
EndChar

StartChar: dcroat
Encoding: 273 273 247
Width: 602
GlyphClass: 2
Flags: W
AnchorPoint: "Anchor-10" 578 550 basechar 0
AnchorPoint: "Anchor-9" 299 750 basechar 0
AnchorPoint: "Anchor-8" 0 0 basechar 0
AnchorPoint: "Anchor-7" 299 0 basechar 0
LayerCount: 2
Fore
SplineSet
507 670 m 1,0,-1
 507 128 l 2,1,2
 507 79 507 79 510 52.5 c 128,-1,3
 513 26 513 26 521 8 c 1,4,5
 517 3 517 3 510 -0.5 c 128,-1,6
 503 -4 503 -4 496 -4 c 0,7,8
 483 -4 483 -4 475 13.5 c 128,-1,9
 467 31 467 31 466 63 c 1,10,11
 434 29 434 29 386 9.5 c 128,-1,12
 338 -10 338 -10 283 -10 c 0,13,14
 174 -10 174 -10 112 65.5 c 128,-1,15
 50 141 50 141 50 273 c 0,16,17
 50 407 50 407 114.5 483.5 c 128,-1,18
 179 560 179 560 292 560 c 0,19,20
 339 560 339 560 385 545.5 c 128,-1,21
 431 531 431 531 465 505 c 1,22,-1
 465 670 l 1,23,-1
 291 670 l 1,24,-1
 291 700 l 1,25,-1
 465 700 l 1,26,-1
 465 791 l 1,27,-1
 507 791 l 1,28,-1
 507 700 l 1,29,-1
 602 700 l 1,30,-1
 602 670 l 1,31,-1
 507 670 l 1,0,-1
387 49.5 m 128,-1,33
 433 71 433 71 465 110 c 1,34,-1
 465 462 l 1,35,36
 424 494 424 494 382 509 c 128,-1,37
 340 524 340 524 292 524 c 0,38,39
 232 524 232 524 186.5 493 c 128,-1,40
 141 462 141 462 116.5 405.5 c 128,-1,41
 92 349 92 349 92 273 c 0,42,43
 92 160 92 160 144.5 94 c 128,-1,44
 197 28 197 28 288 28 c 0,45,32
 341 28 341 28 387 49.5 c 128,-1,33
EndSplineSet
EndChar

StartChar: e
Encoding: 101 101 250
Width: 560
GlyphClass: 2
Flags: W
AnchorPoint: "Anchor-10" 0 0 basechar 0
AnchorPoint: "Anchor-9" 286 550 basechar 0
AnchorPoint: "Anchor-8" 391 10 basechar 0
AnchorPoint: "Anchor-7" 290 0 basechar 0
LayerCount: 2
Fore
SplineSet
518 268 m 1,0,-1
 92 268 l 1,1,2
 95 158 95 158 148.5 93 c 128,-1,3
 202 28 202 28 290 28 c 0,4,5
 348 28 348 28 388 49.5 c 128,-1,6
 428 71 428 71 459 118 c 0,7,8
 472 138 472 138 485 138 c 0,9,10
 496 138 496 138 509 130 c 1,11,12
 480 61 480 61 425 25.5 c 128,-1,13
 370 -10 370 -10 290 -10 c 0,14,15
 217 -10 217 -10 163 25 c 128,-1,16
 109 60 109 60 79.5 124.5 c 128,-1,17
 50 189 50 189 50 276 c 0,18,19
 50 410 50 410 113.5 485 c 128,-1,20
 177 560 177 560 291 560 c 0,21,22
 398 560 398 560 459 491 c 128,-1,23
 520 422 520 422 520 300 c 1,24,-1
 518 268 l 1,0,-1
478 306 m 1,25,26
 478 410 478 410 428.5 466 c 128,-1,27
 379 522 379 522 288 522 c 0,28,29
 203 522 203 522 151 464.5 c 128,-1,30
 99 407 99 407 93 306 c 1,31,-1
 478 306 l 1,25,26
EndSplineSet
EndChar

StartChar: eogonek
Encoding: 281 281 266
Width: 560
GlyphClass: 2
Flags: W
AnchorPoint: "Anchor-10" 0 0 basechar 0
AnchorPoint: "Anchor-9" 286 550 basechar 0
AnchorPoint: "Anchor-8" 391 10 basechar 0
AnchorPoint: "Anchor-7" 290 0 basechar 0
LayerCount: 2
Fore
SplineSet
518 268 m 1,0,-1
 92 268 l 1,1,2
 95 158 95 158 148.5 93 c 128,-1,3
 202 28 202 28 290 28 c 0,4,5
 348 28 348 28 388 49.5 c 128,-1,6
 428 71 428 71 459 118 c 0,7,8
 472 138 472 138 485 138 c 0,9,10
 496 138 496 138 509 130 c 1,11,12
 470 36 470 36 382 4 c 1,13,14
 345 -19 345 -19 326 -46.5 c 128,-1,15
 307 -74 307 -74 307 -109 c 0,16,17
 307 -136 307 -136 324.5 -151 c 128,-1,18
 342 -166 342 -166 371 -166 c 0,19,20
 403 -166 403 -166 424 -153 c 1,21,22
 430 -162 430 -162 430 -171 c 0,23,24
 430 -184 430 -184 412.5 -192 c 128,-1,25
 395 -200 395 -200 361 -200 c 0,26,27
 321 -200 321 -200 294 -175.5 c 128,-1,28
 267 -151 267 -151 267 -112 c 0,29,30
 267 -47 267 -47 321 -9 c 1,31,32
 311 -10 311 -10 290 -10 c 0,33,34
 217 -10 217 -10 163 25 c 128,-1,35
 109 60 109 60 79.5 124.5 c 128,-1,36
 50 189 50 189 50 276 c 0,37,38
 50 410 50 410 113.5 485 c 128,-1,39
 177 560 177 560 291 560 c 0,40,41
 398 560 398 560 459 491 c 128,-1,42
 520 422 520 422 520 300 c 1,43,-1
 518 268 l 1,0,-1
478 306 m 1,44,45
 478 410 478 410 428.5 466 c 128,-1,46
 379 522 379 522 288 522 c 0,47,48
 203 522 203 522 151 464.5 c 128,-1,49
 99 407 99 407 93 306 c 1,50,-1
 478 306 l 1,44,45
EndSplineSet
EndChar

StartChar: uni0259
Encoding: 601 601 268
Width: 560
GlyphClass: 2
Flags: W
AnchorPoint: "Anchor-10" 0 0 basechar 0
AnchorPoint: "Anchor-9" 270 550 basechar 0
AnchorPoint: "Anchor-8" 169 540 basechar 0
AnchorPoint: "Anchor-7" 274 0 basechar 0
LayerCount: 2
Fore
SplineSet
397 525 m 128,-1,1
 451 490 451 490 480.5 425.5 c 128,-1,2
 510 361 510 361 510 274 c 0,3,4
 510 140 510 140 446.5 65 c 128,-1,5
 383 -10 383 -10 269 -10 c 0,6,7
 162 -10 162 -10 101 59 c 128,-1,8
 40 128 40 128 40 250 c 1,9,-1
 42 282 l 1,10,-1
 468 282 l 1,11,12
 465 392 465 392 411.5 457 c 128,-1,13
 358 522 358 522 270 522 c 0,14,15
 212 522 212 522 172 500.5 c 128,-1,16
 132 479 132 479 101 432 c 0,17,18
 88 412 88 412 75 412 c 0,19,20
 64 412 64 412 51 420 c 1,21,22
 80 489 80 489 135 524.5 c 128,-1,23
 190 560 190 560 270 560 c 0,24,0
 343 560 343 560 397 525 c 128,-1,1
409 85.5 m 128,-1,26
 461 143 461 143 467 244 c 1,27,-1
 82 244 l 1,28,29
 82 140 82 140 131.5 84 c 128,-1,30
 181 28 181 28 272 28 c 0,31,25
 357 28 357 28 409 85.5 c 128,-1,26
EndSplineSet
EndChar

StartChar: f
Encoding: 102 102 269
Width: 335
Flags: W
LayerCount: 2
Fore
SplineSet
326 771.5 m 128,-1,1
 350 761 350 761 350 743 c 0,2,3
 350 737 350 737 346 733 c 128,-1,4
 342 729 342 729 337 729 c 0,5,6
 324 739 324 739 306.5 742.5 c 128,-1,7
 289 746 289 746 259 746 c 0,8,9
 210 746 210 746 183.5 714 c 128,-1,10
 157 682 157 682 157 623 c 2,11,-1
 157 550 l 1,12,-1
 307 550 l 1,13,-1
 307 514 l 1,14,-1
 157 514 l 1,15,-1
 157 0 l 1,16,-1
 115 0 l 1,17,-1
 115 514 l 1,18,-1
 12 514 l 1,19,-1
 12 550 l 1,20,-1
 115 550 l 1,21,-1
 115 624 l 2,22,23
 115 697 115 697 154 739.5 c 128,-1,24
 193 782 193 782 261 782 c 0,25,0
 302 782 302 782 326 771.5 c 128,-1,1
EndSplineSet
EndChar

StartChar: g
Encoding: 103 103 270
Width: 585
GlyphClass: 2
Flags: W
AnchorPoint: "Anchor-10" 0 0 basechar 0
AnchorPoint: "Anchor-9" 293 550 basechar 0
AnchorPoint: "Anchor-8" 0 0 basechar 0
AnchorPoint: "Anchor-7" 293 -190 basechar 0
LayerCount: 2
Fore
SplineSet
483.5 49.5 m 128,-1,1
 546 17 546 17 546 -46 c 0,2,3
 546 -129 546 -129 485.5 -165.5 c 128,-1,4
 425 -202 425 -202 289 -202 c 0,5,6
 176 -202 176 -202 113 -164.5 c 128,-1,7
 50 -127 50 -127 50 -60 c 0,8,9
 50 -11 50 -11 75.5 18 c 128,-1,10
 101 47 101 47 155 61 c 1,11,-1
 155 64 l 1,12,13
 126 70 126 70 109 88.5 c 128,-1,14
 92 107 92 107 92 133 c 0,15,16
 92 197 92 197 175 206 c 1,17,18
 127 228 127 228 99.5 269.5 c 128,-1,19
 72 311 72 311 72 364 c 0,20,21
 72 560 72 560 298 560 c 0,22,23
 369 560 369 560 419 529 c 1,24,25
 445 552 445 552 474.5 565.5 c 128,-1,26
 504 579 504 579 530 579 c 0,27,28
 550 579 550 579 556.5 572 c 128,-1,29
 563 565 563 565 563 545 c 1,30,31
 481 545 481 545 444 511 c 1,32,33
 471 487 471 487 485.5 452.5 c 128,-1,34
 500 418 500 418 500 376 c 0,35,36
 500 184 500 184 279 184 c 0,37,38
 197 184 197 184 163.5 173 c 128,-1,39
 130 162 130 162 130 135 c 0,40,41
 130 112 130 112 143.5 101 c 128,-1,42
 157 90 157 90 192 86 c 128,-1,43
 227 82 227 82 299 82 c 0,44,0
 421 82 421 82 483.5 49.5 c 128,-1,1
158.5 261.5 m 128,-1,46
 203 222 203 222 285 222 c 0,47,48
 373 222 373 222 415 258.5 c 128,-1,49
 457 295 457 295 457 372 c 0,50,51
 457 524 457 524 285 524 c 0,52,53
 201 524 201 524 157.5 485.5 c 128,-1,54
 114 447 114 447 114 372 c 0,55,45
 114 301 114 301 158.5 261.5 c 128,-1,46
454 -138.5 m 128,-1,57
 503 -113 503 -113 503 -52 c 0,58,59
 503 1 503 1 454.5 23.5 c 128,-1,60
 406 46 406 46 293 46 c 0,61,62
 186 46 186 46 139.5 23.5 c 128,-1,63
 93 1 93 1 93 -52 c 0,64,65
 93 -112 93 -112 138.5 -138 c 128,-1,66
 184 -164 184 -164 289 -164 c 0,67,56
 405 -164 405 -164 454 -138.5 c 128,-1,57
EndSplineSet
EndChar

StartChar: h
Encoding: 104 104 277
Width: 630
GlyphClass: 2
Flags: W
AnchorPoint: "Anchor-10" 0 0 basechar 0
AnchorPoint: "Anchor-9" 125 710 basechar 0
AnchorPoint: "Anchor-8" 0 0 basechar 0
AnchorPoint: "Anchor-7" 315 0 basechar 0
LayerCount: 2
Fore
SplineSet
486.5 509.5 m 128,-1,1
 539 459 539 459 539 376 c 2,2,-1
 539 0 l 1,3,-1
 497 0 l 1,4,-1
 497 369 l 2,5,6
 497 444 497 444 457 483 c 128,-1,7
 417 522 417 522 341 522 c 0,8,9
 292 522 292 522 236 502 c 128,-1,10
 180 482 180 482 133 447 c 1,11,-1
 133 0 l 1,12,-1
 91 0 l 1,13,-1
 91 791 l 1,14,-1
 133 791 l 1,15,-1
 133 489 l 1,16,17
 187 526 187 526 239 543 c 128,-1,18
 291 560 291 560 347 560 c 0,19,0
 434 560 434 560 486.5 509.5 c 128,-1,1
EndSplineSet
EndChar

StartChar: hbar
Encoding: 295 295 278
Width: 630
GlyphClass: 2
Flags: W
AnchorPoint: "Anchor-10" 0 0 basechar 0
AnchorPoint: "Anchor-9" 125 710 basechar 0
AnchorPoint: "Anchor-8" 0 0 basechar 0
AnchorPoint: "Anchor-7" 315 0 basechar 0
LayerCount: 2
Fore
SplineSet
486.5 509.5 m 128,-1,1
 539 459 539 459 539 376 c 2,2,-1
 539 0 l 1,3,-1
 497 0 l 1,4,-1
 497 369 l 2,5,6
 497 444 497 444 457 483 c 128,-1,7
 417 522 417 522 341 522 c 0,8,9
 292 522 292 522 236 502 c 128,-1,10
 180 482 180 482 133 447 c 1,11,-1
 133 0 l 1,12,-1
 91 0 l 1,13,-1
 91 658 l 1,14,-1
 0 658 l 1,15,-1
 0 694 l 1,16,-1
 91 694 l 1,17,-1
 91 791 l 1,18,-1
 133 791 l 1,19,-1
 133 694 l 1,20,-1
 299 694 l 1,21,-1
 299 658 l 1,22,-1
 133 658 l 1,23,-1
 133 489 l 1,24,25
 187 526 187 526 239 543 c 128,-1,26
 291 560 291 560 347 560 c 0,27,0
 434 560 434 560 486.5 509.5 c 128,-1,1
EndSplineSet
EndChar

StartChar: dotlessi
Encoding: 305 305 283
Width: 290
GlyphClass: 2
Flags: W
AnchorPoint: "Anchor-10" 0 0 basechar 0
AnchorPoint: "Anchor-9" 145 550 basechar 0
AnchorPoint: "Anchor-8" 166 0 basechar 0
AnchorPoint: "Anchor-7" 145 0 basechar 0
LayerCount: 2
Fore
SplineSet
124 550 m 1,0,-1
 166 550 l 1,1,-1
 166 0 l 1,2,-1
 124 0 l 1,3,-1
 124 550 l 1,0,-1
EndSplineSet
EndChar

StartChar: uni0237
Encoding: 567 567 297
Width: 270
GlyphClass: 2
Flags: W
AnchorPoint: "Anchor-10" 0 0 basechar 0
AnchorPoint: "Anchor-9" 134 550 basechar 0
AnchorPoint: "Anchor-8" 0 0 basechar 0
AnchorPoint: "Anchor-7" 31 -192 basechar 0
LayerCount: 2
Fore
SplineSet
-15 -186.5 m 128,-1,1
 -37 -181 -37 -181 -47 -173 c 0,2,3
 -54 -167 -54 -167 -54 -158 c 0,4,5
 -54 -152 -54 -152 -51.5 -147 c 128,-1,6
 -49 -142 -49 -142 -45 -140 c 0,7,8
 -17 -154 -17 -154 32 -154 c 0,9,10
 71 -154 71 -154 92 -131.5 c 128,-1,11
 113 -109 113 -109 113 -63 c 2,12,-1
 113 550 l 1,13,-1
 155 550 l 1,14,-1
 155 -62 l 2,15,16
 155 -123 155 -123 120 -157.5 c 128,-1,17
 85 -192 85 -192 31 -192 c 0,18,0
 7 -192 7 -192 -15 -186.5 c 128,-1,1
EndSplineSet
EndChar

StartChar: k
Encoding: 107 107 299
Width: 547
Flags: W
LayerCount: 2
Fore
SplineSet
525 0 m 1,0,1
 515 0 515 0 506.5 -1 c 128,-1,2
 498 -2 498 -2 491 -2 c 0,3,4
 479 -2 479 -2 471 9 c 2,5,-1
 346 210 l 2,6,7
 322 248 322 248 293 259.5 c 128,-1,8
 264 271 264 271 205 271 c 2,9,-1
 133 269 l 1,10,-1
 133 0 l 1,11,-1
 91 0 l 1,12,-1
 91 791 l 1,13,-1
 133 791 l 1,14,-1
 133 303 l 1,15,-1
 198 305 l 2,16,17
 235 306 235 306 251.5 314 c 128,-1,18
 268 322 268 322 290 350 c 2,19,-1
 446 550 l 1,20,-1
 495 550 l 1,21,-1
 325 333 l 2,22,23
 308 309 308 309 287 297 c 1,24,25
 320 290 320 290 343 274 c 128,-1,26
 366 258 366 258 384 229 c 2,27,-1
 525 0 l 1,0,1
EndSplineSet
EndChar

StartChar: kgreenlandic
Encoding: 312 312 301
Width: 591
Flags: W
LayerCount: 2
Fore
SplineSet
521 9 m 1,0,1
 505 -2 505 -2 494 -2 c 256,2,3
 483 -2 483 -2 475 9 c 2,4,-1
 349 210 l 2,5,6
 325 248 325 248 295 259.5 c 128,-1,7
 265 271 265 271 205 271 c 2,8,-1
 129 268 l 1,9,-1
 129 0 l 1,10,-1
 91 0 l 1,11,-1
 91 550 l 1,12,-1
 129 550 l 1,13,-1
 129 303 l 1,14,-1
 198 305 l 2,15,16
 234 306 234 306 251 314 c 128,-1,17
 268 322 268 322 291 351 c 2,18,-1
 450 550 l 1,19,-1
 495 550 l 1,20,-1
 322 334 l 2,21,22
 300 307 300 307 286 297 c 1,23,24
 349 283 349 283 383 229 c 2,25,-1
 521 9 l 1,0,1
EndSplineSet
EndChar

StartChar: l
Encoding: 108 108 302
Width: 270
GlyphClass: 2
Flags: W
AnchorPoint: "Anchor-10" 247 550 basechar 0
AnchorPoint: "Anchor-9" 134 750 basechar 0
AnchorPoint: "Anchor-8" 0 0 basechar 0
AnchorPoint: "Anchor-7" 134 0 basechar 0
LayerCount: 2
Fore
SplineSet
114 791 m 1,0,-1
 156 791 l 1,1,-1
 156 0 l 1,2,-1
 114 0 l 1,3,-1
 114 791 l 1,0,-1
EndSplineSet
EndChar

StartChar: lslash
Encoding: 322 322 310
Width: 268
GlyphClass: 2
Flags: W
AnchorPoint: "Anchor-10" 247 550 basechar 0
AnchorPoint: "Anchor-9" 134 750 basechar 0
AnchorPoint: "Anchor-8" 0 0 basechar 0
AnchorPoint: "Anchor-7" 134 0 basechar 0
LayerCount: 2
Fore
SplineSet
268 445 m 1,0,-1
 156 393 l 1,1,-1
 156 0 l 1,2,-1
 114 0 l 1,3,-1
 114 373 l 1,4,-1
 0 320 l 1,5,-1
 0 360 l 1,6,-1
 114 413 l 1,7,-1
 114 791 l 1,8,-1
 156 791 l 1,9,-1
 156 432 l 1,10,-1
 268 484 l 1,11,-1
 268 445 l 1,0,-1
EndSplineSet
EndChar

StartChar: m
Encoding: 109 109 311
Width: 912
GlyphClass: 2
Flags: W
AnchorPoint: "Anchor-10" 0 0 basechar 0
AnchorPoint: "Anchor-9" 456 550 basechar 0
AnchorPoint: "Anchor-8" 0 0 basechar 0
AnchorPoint: "Anchor-7" 456 0 basechar 0
LayerCount: 2
Fore
SplineSet
773.5 516 m 128,-1,1
 821 472 821 472 821 395 c 2,2,-1
 821 0 l 1,3,-1
 779 0 l 1,4,-1
 779 392 l 2,5,6
 779 456 779 456 742.5 490 c 128,-1,7
 706 524 706 524 637 524 c 0,8,9
 592 524 592 524 548 503.5 c 128,-1,10
 504 483 504 483 468 446 c 1,11,12
 473 419 473 419 473 394 c 2,13,-1
 473 0 l 1,14,-1
 431 0 l 1,15,-1
 431 392 l 2,16,17
 431 459 431 459 403.5 491.5 c 128,-1,18
 376 524 376 524 319 524 c 0,19,20
 269 524 269 524 220 501 c 128,-1,21
 171 478 171 478 132 437 c 1,22,-1
 132 0 l 1,23,-1
 90 0 l 1,24,-1
 90 413 l 2,25,26
 90 459 90 459 89.5 487.5 c 128,-1,27
 89 516 89 516 86.5 525 c 128,-1,28
 84 534 84 534 78 539 c 1,29,30
 93 554 93 554 109 554 c 0,31,32
 132 554 132 554 132 486 c 2,33,-1
 132 483 l 1,34,35
 173 521 173 521 221.5 540.5 c 128,-1,36
 270 560 270 560 321 560 c 0,37,38
 368 560 368 560 402 540.5 c 128,-1,39
 436 521 436 521 454 484 c 1,40,41
 491 520 491 520 540.5 540 c 128,-1,42
 590 560 590 560 641 560 c 0,43,0
 726 560 726 560 773.5 516 c 128,-1,1
EndSplineSet
EndChar

StartChar: n
Encoding: 110 110 313
Width: 610
GlyphClass: 2
Flags: W
AnchorPoint: "Anchor-10" 0 0 basechar 0
AnchorPoint: "Anchor-9" 305 550 basechar 0
AnchorPoint: "Anchor-8" 0 0 basechar 0
AnchorPoint: "Anchor-7" 305 0 basechar 0
LayerCount: 2
Fore
SplineSet
524 44 m 128,-1,1
 528 24 528 24 540 7 c 1,2,3
 537 2 537 2 529 -1.5 c 128,-1,4
 521 -5 521 -5 514 -5 c 0,5,6
 495 -5 495 -5 486.5 20.5 c 128,-1,7
 478 46 478 46 478 102 c 2,8,-1
 478 373 l 2,9,10
 478 452 478 452 445 489 c 128,-1,11
 412 526 412 526 342 526 c 0,12,13
 290 526 290 526 234 500.5 c 128,-1,14
 178 475 178 475 132 431 c 1,15,-1
 132 0 l 1,16,-1
 90 0 l 1,17,-1
 90 413 l 2,18,19
 90 459 90 459 89.5 487.5 c 128,-1,20
 89 516 89 516 86.5 525 c 128,-1,21
 84 534 84 534 78 539 c 1,22,23
 93 554 93 554 109 554 c 0,24,25
 122 554 122 554 127 538.5 c 128,-1,26
 132 523 132 523 132 486 c 2,27,-1
 132 473 l 1,28,29
 180 514 180 514 237 537 c 128,-1,30
 294 560 294 560 349 560 c 0,31,32
 435 560 435 560 477.5 513.5 c 128,-1,33
 520 467 520 467 520 372 c 2,34,-1
 520 108 l 2,35,0
 520 64 520 64 524 44 c 128,-1,1
EndSplineSet
EndChar

StartChar: eng
Encoding: 331 331 320
Width: 609
Flags: W
LayerCount: 2
Fore
SplineSet
477.5 513.5 m 128,-1,1
 520 467 520 467 520 372 c 2,2,-1
 520 -69 l 2,3,4
 520 -129 520 -129 487.5 -160.5 c 128,-1,5
 455 -192 455 -192 398 -192 c 0,6,7
 377 -192 377 -192 355 -186 c 128,-1,8
 333 -180 333 -180 321 -171 c 0,9,10
 314 -165 314 -165 314 -158 c 256,11,12
 314 -151 314 -151 318 -146 c 128,-1,13
 322 -141 322 -141 328 -142 c 0,14,15
 358 -158 358 -158 399 -158 c 0,16,17
 439 -158 439 -158 459.5 -137 c 128,-1,18
 480 -116 480 -116 480 -68 c 2,19,-1
 480 373 l 2,20,21
 480 455 480 455 445 490.5 c 128,-1,22
 410 526 410 526 342 526 c 0,23,24
 291 526 291 526 234.5 500.5 c 128,-1,25
 178 475 178 475 132 431 c 1,26,-1
 132 0 l 1,27,-1
 90 0 l 1,28,-1
 90 413 l 2,29,30
 90 459 90 459 89.5 487.5 c 128,-1,31
 89 516 89 516 86.5 525 c 128,-1,32
 84 534 84 534 78 539 c 1,33,34
 93 554 93 554 109 554 c 0,35,36
 122 554 122 554 127 538.5 c 128,-1,37
 132 523 132 523 132 486 c 2,38,-1
 132 473 l 1,39,40
 177 511 177 511 233 535.5 c 128,-1,41
 289 560 289 560 349 560 c 0,42,0
 435 560 435 560 477.5 513.5 c 128,-1,1
EndSplineSet
EndChar

StartChar: o
Encoding: 111 111 323
Width: 548
GlyphClass: 2
Flags: W
AnchorPoint: "Anchor-10" 427 474 basechar 0
AnchorPoint: "Anchor-9" 274 550 basechar 0
AnchorPoint: "Anchor-8" 359 10 basechar 0
AnchorPoint: "Anchor-7" 274 0 basechar 0
LayerCount: 2
Fore
SplineSet
99 62 m 128,-1,1
 40 134 40 134 40 276 c 0,2,3
 40 560 40 560 274 560 c 256,4,5
 508 560 508 560 508 276 c 0,6,7
 508 134 508 134 449 62 c 128,-1,8
 390 -10 390 -10 274 -10 c 256,9,0
 158 -10 158 -10 99 62 c 128,-1,1
419 89 m 128,-1,11
 466 150 466 150 466 276 c 0,12,13
 466 401 466 401 418.5 462 c 128,-1,14
 371 523 371 523 274 523 c 0,15,16
 176 523 176 523 129 462.5 c 128,-1,17
 82 402 82 402 82 276 c 256,18,19
 82 150 82 150 129 89 c 128,-1,20
 176 28 176 28 274 28 c 256,21,10
 372 28 372 28 419 89 c 128,-1,11
EndSplineSet
Substitution2: "Single Substitution lookup 20 subtable" ordmasculine
Substitution2: "'aalt' Access All Alternates lookup 0 subtable" ordmasculine
EndChar

StartChar: ohorn
Encoding: 417 417 337
Width: 548
GlyphClass: 2
Flags: W
AnchorPoint: "Anchor-10" 427 474 basechar 0
AnchorPoint: "Anchor-9" 274 550 basechar 0
AnchorPoint: "Anchor-8" 359 10 basechar 0
AnchorPoint: "Anchor-7" 274 0 basechar 0
LayerCount: 2
Fore
SplineSet
535 506.5 m 128,-1,1
 510 478 510 478 465 467 c 1,2,3
 508 397 508 397 508 276 c 0,4,5
 508 134 508 134 449 62 c 128,-1,6
 390 -10 390 -10 274 -10 c 256,7,8
 158 -10 158 -10 99 62 c 128,-1,9
 40 134 40 134 40 276 c 0,10,11
 40 560 40 560 274 560 c 0,12,13
 388 560 388 560 446 493 c 1,14,15
 477 499 477 499 498.5 518 c 128,-1,16
 520 537 520 537 520 568 c 0,17,18
 520 595 520 595 507 610.5 c 128,-1,19
 494 626 494 626 474 631 c 1,20,21
 476 641 476 641 483.5 647 c 128,-1,22
 491 653 491 653 502 653 c 0,23,24
 526 653 526 653 543 630.5 c 128,-1,25
 560 608 560 608 560 578 c 0,26,0
 560 535 560 535 535 506.5 c 128,-1,1
419 89 m 128,-1,28
 466 150 466 150 466 276 c 0,29,30
 466 401 466 401 418.5 462 c 128,-1,31
 371 523 371 523 274 523 c 0,32,33
 176 523 176 523 129 462.5 c 128,-1,34
 82 402 82 402 82 276 c 256,35,36
 82 150 82 150 129 89 c 128,-1,37
 176 28 176 28 274 28 c 256,38,27
 372 28 372 28 419 89 c 128,-1,28
EndSplineSet
EndChar

StartChar: oslash
Encoding: 248 248 345
Width: 548
GlyphClass: 2
Flags: W
AnchorPoint: "Anchor-10" 427 474 basechar 0
AnchorPoint: "Anchor-9" 274 550 basechar 0
AnchorPoint: "Anchor-8" 359 10 basechar 0
AnchorPoint: "Anchor-7" 274 0 basechar 0
LayerCount: 2
Fore
SplineSet
508 276 m 0,1,2
 508 134 508 134 449 62 c 128,-1,3
 390 -10 390 -10 274 -10 c 0,4,5
 179 -10 179 -10 122 38 c 1,6,-1
 94 0 l 1,7,-1
 50 0 l 1,8,-1
 97 64 l 1,9,10
 40 136 40 136 40 276 c 0,11,12
 40 560 40 560 274 560 c 0,13,14
 371 560 371 560 426 512 c 1,15,-1
 454 550 l 1,16,-1
 498 550 l 1,17,-1
 451 487 l 1,18,0
 508 415 508 415 508 276 c 0,1,2
122 99 m 1,20,-1
 403 480 l 1,21,22
 356 523 356 523 274 523 c 0,23,24
 176 523 176 523 129 462.5 c 128,-1,25
 82 402 82 402 82 276 c 0,26,19
 82 158 82 158 122 99 c 1,20,-1
419 89 m 128,-1,28
 466 150 466 150 466 276 c 0,29,30
 466 391 466 391 426 452 c 1,31,-1
 146 71 l 1,32,33
 192 28 192 28 274 28 c 0,34,27
 372 28 372 28 419 89 c 128,-1,28
EndSplineSet
EndChar

StartChar: oe
Encoding: 339 339 348
Width: 980
GlyphClass: 2
Flags: W
AnchorPoint: "Anchor-10" 427 474 basechar 0
AnchorPoint: "Anchor-9" 706 550 basechar 0
AnchorPoint: "Anchor-8" 811 10 basechar 0
AnchorPoint: "Anchor-7" 710 0 basechar 0
LayerCount: 2
Fore
SplineSet
938 268 m 1,0,-1
 512 268 l 1,1,2
 515 158 515 158 568.5 93 c 128,-1,3
 622 28 622 28 710 28 c 0,4,5
 768 28 768 28 808 49.5 c 128,-1,6
 848 71 848 71 879 118 c 0,7,8
 892 138 892 138 905 138 c 0,9,10
 916 138 916 138 929 130 c 1,11,12
 900 61 900 61 845 25.5 c 128,-1,13
 790 -10 790 -10 710 -10 c 0,14,15
 631 -10 631 -10 574.5 30.5 c 128,-1,16
 518 71 518 71 491 144 c 1,17,18
 444 -10 444 -10 274 -10 c 0,19,20
 158 -10 158 -10 99 62 c 128,-1,21
 40 134 40 134 40 276 c 0,22,23
 40 560 40 560 274 560 c 0,24,25
 445 560 445 560 491 409 c 1,26,27
 517 482 517 482 573.5 521 c 128,-1,28
 630 560 630 560 711 560 c 0,29,30
 818 560 818 560 879 491 c 128,-1,31
 940 422 940 422 940 300 c 1,32,-1
 938 268 l 1,0,-1
419 89 m 128,-1,34
 466 150 466 150 466 276 c 0,35,36
 466 401 466 401 418.5 462 c 128,-1,37
 371 523 371 523 274 523 c 0,38,39
 176 523 176 523 129 462.5 c 128,-1,40
 82 402 82 402 82 276 c 256,41,42
 82 150 82 150 129 89 c 128,-1,43
 176 28 176 28 274 28 c 256,44,33
 372 28 372 28 419 89 c 128,-1,34
898 306 m 1,45,46
 898 410 898 410 848.5 466 c 128,-1,47
 799 522 799 522 708 522 c 0,48,49
 623 522 623 522 571 464.5 c 128,-1,50
 519 407 519 407 513 306 c 1,51,-1
 898 306 l 1,45,46
EndSplineSet
EndChar

StartChar: p
Encoding: 112 112 349
Width: 598
Flags: W
LayerCount: 2
Fore
SplineSet
497 487.5 m 128,-1,1
 558 415 558 415 558 276 c 0,2,3
 558 143 558 143 492 66.5 c 128,-1,4
 426 -10 426 -10 310 -10 c 0,5,6
 217 -10 217 -10 134 34 c 1,7,-1
 134 -220 l 1,8,-1
 92 -220 l 1,9,-1
 92 413 l 2,10,11
 92 487 92 487 90 508 c 128,-1,12
 88 529 88 529 80 543 c 1,13,14
 84 547 84 547 92.5 550.5 c 128,-1,15
 101 554 101 554 108 554 c 0,16,17
 121 554 121 554 127.5 539.5 c 128,-1,18
 134 525 134 525 134 494 c 2,19,-1
 134 485 l 1,20,21
 169 520 169 520 218 540 c 128,-1,22
 267 560 267 560 318 560 c 0,23,0
 436 560 436 560 497 487.5 c 128,-1,1
419 56.5 m 128,-1,25
 466 87 466 87 491 143.5 c 128,-1,26
 516 200 516 200 516 276 c 0,27,28
 516 395 516 395 464.5 459.5 c 128,-1,29
 413 524 413 524 318 524 c 0,30,31
 269 524 269 524 219.5 500.5 c 128,-1,32
 170 477 170 477 134 436 c 1,33,-1
 134 75 l 1,34,35
 215 26 215 26 310 26 c 0,36,24
 372 26 372 26 419 56.5 c 128,-1,25
EndSplineSet
EndChar

StartChar: thorn
Encoding: 254 254 350
Width: 609
Flags: W
LayerCount: 2
Fore
SplineSet
494 491 m 128,-1,1
 558 422 558 422 558 275 c 0,2,3
 558 184 558 184 527 119.5 c 128,-1,4
 496 55 496 55 440 21.5 c 128,-1,5
 384 -12 384 -12 310 -12 c 0,6,7
 216 -12 216 -12 130 34 c 1,8,-1
 130 -220 l 1,9,-1
 92 -220 l 1,10,-1
 92 791 l 1,11,-1
 130 791 l 1,12,-1
 130 481 l 1,13,14
 166 518 166 518 216 539 c 128,-1,15
 266 560 266 560 318 560 c 0,16,0
 430 560 430 560 494 491 c 128,-1,1
414.5 51.5 m 128,-1,18
 462 79 462 79 490 135.5 c 128,-1,19
 518 192 518 192 518 275 c 0,20,21
 518 400 518 400 463.5 462 c 128,-1,22
 409 524 409 524 318 524 c 0,23,24
 263 524 263 524 213.5 498 c 128,-1,25
 164 472 164 472 130 431 c 1,26,-1
 130 75 l 1,27,28
 214 24 214 24 310 24 c 0,29,17
 367 24 367 24 414.5 51.5 c 128,-1,18
EndSplineSet
EndChar

StartChar: q
Encoding: 113 113 351
Width: 608
Flags: W
LayerCount: 2
Fore
SplineSet
526 543 m 1,1,2
 507 504 507 504 507 424 c 2,3,-1
 507 -220 l 1,4,-1
 465 -220 l 1,5,-1
 465 41 l 1,6,7
 434 17 434 17 389 3.5 c 128,-1,8
 344 -10 344 -10 295 -10 c 0,9,10
 221 -10 221 -10 165.5 25.5 c 128,-1,11
 110 61 110 61 80 126 c 128,-1,12
 50 191 50 191 50 278 c 0,13,14
 50 363 50 363 80 427 c 128,-1,15
 110 491 110 491 165.5 525.5 c 128,-1,16
 221 560 221 560 295 560 c 0,17,18
 346 560 346 560 387.5 545.5 c 128,-1,19
 429 531 429 531 468 500 c 1,20,21
 474 554 474 554 497 554 c 0,22,0
 510 554 510 554 526 543 c 1,1,2
390.5 41.5 m 128,-1,24
 432 55 432 55 465 83 c 1,25,-1
 465 436 l 1,26,-1
 465 456 l 1,27,28
 433 488 433 488 390 505 c 128,-1,29
 347 522 347 522 295 522 c 0,30,31
 201 522 201 522 146.5 456.5 c 128,-1,32
 92 391 92 391 92 278 c 0,33,34
 92 162 92 162 146.5 95 c 128,-1,35
 201 28 201 28 295 28 c 0,36,23
 349 28 349 28 390.5 41.5 c 128,-1,24
EndSplineSet
EndChar

StartChar: r
Encoding: 114 114 352
Width: 400
GlyphClass: 2
Flags: W
AnchorPoint: "Anchor-10" 0 0 basechar 0
AnchorPoint: "Anchor-9" 200 550 basechar 0
AnchorPoint: "Anchor-8" 0 0 basechar 0
AnchorPoint: "Anchor-7" 119 0 basechar 0
LayerCount: 2
Fore
SplineSet
357.5 547.5 m 128,-1,1
 378 538 378 538 378 522 c 0,2,3
 378 515 378 515 375 509 c 128,-1,4
 372 503 372 503 367 501 c 1,5,6
 344 517 344 517 298 517 c 0,7,8
 250 517 250 517 211 489 c 128,-1,9
 172 461 172 461 149.5 413 c 128,-1,10
 127 365 127 365 127 307 c 2,11,-1
 127 0 l 1,12,-1
 85 0 l 1,13,-1
 85 550 l 1,14,-1
 127 550 l 1,15,-1
 127 442 l 1,16,17
 152 493 152 493 200 525 c 128,-1,18
 248 557 248 557 303 557 c 0,19,0
 337 557 337 557 357.5 547.5 c 128,-1,1
EndSplineSet
EndChar

StartChar: s
Encoding: 115 115 359
Width: 485
GlyphClass: 2
Flags: W
AnchorPoint: "Anchor-10" 0 0 basechar 0
AnchorPoint: "Anchor-9" 243 550 basechar 0
AnchorPoint: "Anchor-8" 0 0 basechar 0
AnchorPoint: "Anchor-7" 243 0 basechar 0
LayerCount: 2
Fore
SplineSet
138 5.5 m 128,-1,1
 92 21 92 21 66 45.5 c 128,-1,2
 40 70 40 70 40 98 c 0,3,4
 40 108 40 108 46.5 115 c 128,-1,5
 53 122 53 122 62 124 c 1,6,7
 84 78 84 78 126.5 52 c 128,-1,8
 169 26 169 26 245 26 c 0,9,10
 317 26 317 26 360 57 c 128,-1,11
 403 88 403 88 403 146 c 0,12,13
 403 182 403 182 381.5 204.5 c 128,-1,14
 360 227 360 227 328 239 c 128,-1,15
 296 251 296 251 241 265 c 0,16,17
 179 280 179 280 142 294.5 c 128,-1,18
 105 309 105 309 79 338.5 c 128,-1,19
 53 368 53 368 53 416 c 0,20,21
 53 489 53 489 108 524.5 c 128,-1,22
 163 560 163 560 240 560 c 0,23,24
 306 560 306 560 352 532 c 128,-1,25
 398 504 398 504 430 452 c 1,26,27
 422 444 422 444 416 440.5 c 128,-1,28
 410 437 410 437 402 437 c 0,29,30
 396 437 396 437 391.5 440 c 128,-1,31
 387 443 387 443 381 451 c 0,32,33
 353 486 353 486 321.5 505 c 128,-1,34
 290 524 290 524 242 524 c 0,35,36
 178 524 178 524 136.5 498 c 128,-1,37
 95 472 95 472 95 419 c 0,38,39
 95 383 95 383 116.5 361 c 128,-1,40
 138 339 138 339 170 326.5 c 128,-1,41
 202 314 202 314 256 300 c 0,42,43
 318 284 318 284 355.5 269 c 128,-1,44
 393 254 393 254 419 224.5 c 128,-1,45
 445 195 445 195 445 146 c 0,46,47
 445 73 445 73 390.5 31.5 c 128,-1,48
 336 -10 336 -10 241 -10 c 0,49,0
 184 -10 184 -10 138 5.5 c 128,-1,1
EndSplineSet
EndChar

StartChar: scedilla
Encoding: 351 351 362
Width: 485
GlyphClass: 2
Flags: W
AnchorPoint: "Anchor-10" 0 0 basechar 0
AnchorPoint: "Anchor-9" 0 0 basechar 0
AnchorPoint: "Anchor-8" 0 0 basechar 0
AnchorPoint: "Anchor-7" 243 -214 basechar 0
LayerCount: 2
Fore
SplineSet
395.5 36 m 128,-1,1
 346 -5 346 -5 258 -10 c 1,2,-1
 217 -61 l 1,3,4
 231 -59 231 -59 238 -59 c 0,5,6
 277 -59 277 -59 302.5 -78.5 c 128,-1,7
 328 -98 328 -98 328 -136 c 0,8,9
 328 -180 328 -180 293 -204.5 c 128,-1,10
 258 -229 258 -229 207 -229 c 0,11,12
 161 -229 161 -229 135 -219.5 c 128,-1,13
 109 -210 109 -210 109 -191 c 0,14,15
 109 -183 109 -183 111 -179 c 1,16,17
 136 -186 136 -186 156 -189.5 c 128,-1,18
 176 -193 176 -193 203 -193 c 0,19,20
 249 -193 249 -193 268.5 -179.5 c 128,-1,21
 288 -166 288 -166 288 -135 c 0,22,23
 288 -113 288 -113 272.5 -101.5 c 128,-1,24
 257 -90 257 -90 229 -90 c 0,25,26
 214 -90 214 -90 189 -95 c 1,27,-1
 169 -75 l 1,28,-1
 217 -9 l 1,29,30
 166 -6 166 -6 125.5 9.5 c 128,-1,31
 85 25 85 25 62.5 48.5 c 128,-1,32
 40 72 40 72 40 98 c 0,33,34
 40 108 40 108 46.5 115 c 128,-1,35
 53 122 53 122 62 124 c 1,36,37
 84 78 84 78 126.5 52 c 128,-1,38
 169 26 169 26 245 26 c 0,39,40
 317 26 317 26 360 57 c 128,-1,41
 403 88 403 88 403 146 c 0,42,43
 403 182 403 182 381.5 204.5 c 128,-1,44
 360 227 360 227 328 239 c 128,-1,45
 296 251 296 251 241 265 c 0,46,47
 179 280 179 280 142 294.5 c 128,-1,48
 105 309 105 309 79 338.5 c 128,-1,49
 53 368 53 368 53 416 c 0,50,51
 53 489 53 489 108 524.5 c 128,-1,52
 163 560 163 560 240 560 c 0,53,54
 306 560 306 560 352 532 c 128,-1,55
 398 504 398 504 430 452 c 1,56,57
 422 444 422 444 416 440.5 c 128,-1,58
 410 437 410 437 402 437 c 0,59,60
 396 437 396 437 391.5 440 c 128,-1,61
 387 443 387 443 381 451 c 0,62,63
 353 486 353 486 321.5 505 c 128,-1,64
 290 524 290 524 242 524 c 0,65,66
 178 524 178 524 136.5 498 c 128,-1,67
 95 472 95 472 95 419 c 0,68,69
 95 383 95 383 116.5 361 c 128,-1,70
 138 339 138 339 170 326.5 c 128,-1,71
 202 314 202 314 256 300 c 0,72,73
 318 284 318 284 355.5 269 c 128,-1,74
 393 254 393 254 419 224.5 c 128,-1,75
 445 195 445 195 445 146 c 0,76,0
 445 77 445 77 395.5 36 c 128,-1,1
EndSplineSet
Substitution2: "'locl' Localized Forms in Latin lookup 7 subtable" uni0219
Substitution2: "'locl' Localized Forms in Latin lookup 6 subtable" uni0219
Substitution2: "'aalt' Access All Alternates lookup 0 subtable" uni0219
EndChar

StartChar: germandbls
Encoding: 223 223 367
Width: 617
Flags: W
LayerCount: 2
Fore
SplineSet
516.5 306 m 128,-1,1
 553 261 553 261 553 199 c 0,2,3
 553 96 553 96 494.5 41 c 128,-1,4
 436 -14 436 -14 342 -14 c 0,5,6
 304 -14 304 -14 269 -5 c 128,-1,7
 234 4 234 4 212.5 17.5 c 128,-1,8
 191 31 191 31 191 45 c 0,9,10
 191 61 191 61 207 68 c 1,11,12
 238 44 238 44 271.5 33 c 128,-1,13
 305 22 305 22 346 22 c 0,14,15
 425 22 425 22 470 67 c 128,-1,16
 515 112 515 112 515 191 c 0,17,18
 515 264 515 264 465.5 305 c 128,-1,19
 416 346 416 346 340 346 c 0,20,21
 331 346 331 346 311 344 c 2,22,-1
 286 343 l 2,23,24
 271 343 271 343 263 351 c 128,-1,25
 255 359 255 359 255 372 c 0,26,27
 255 382 255 382 262 382 c 2,28,-1
 331 382 l 2,29,30
 409 382 409 382 448 422 c 128,-1,31
 487 462 487 462 487 533 c 0,32,33
 487 606 487 606 438.5 650.5 c 128,-1,34
 390 695 390 695 311 695 c 0,35,36
 227 695 227 695 175.5 648 c 128,-1,37
 124 601 124 601 124 512 c 2,38,-1
 124 0 l 1,39,-1
 84 0 l 1,40,-1
 84 512 l 2,41,42
 84 583 84 583 114.5 632 c 128,-1,43
 145 681 145 681 197 706 c 128,-1,44
 249 731 249 731 313 731 c 0,45,46
 375 731 375 731 424 706 c 128,-1,47
 473 681 473 681 500 635 c 128,-1,48
 527 589 527 589 527 530 c 0,49,50
 527 467 527 467 498 426 c 128,-1,51
 469 385 469 385 420 365 c 1,52,0
 480 351 480 351 516.5 306 c 128,-1,1
EndSplineSet
EndChar

StartChar: t
Encoding: 116 116 368
Width: 374
GlyphClass: 2
Flags: W
AnchorPoint: "Anchor-10" 328 630 basechar 0
AnchorPoint: "Anchor-9" 150 660 basechar 0
AnchorPoint: "Anchor-8" 0 0 basechar 0
AnchorPoint: "Anchor-7" 249 0 basechar 0
LayerCount: 2
Fore
SplineSet
354 29 m 0,1,2
 354 22 354 22 350.5 15.5 c 128,-1,3
 347 9 347 9 342 6 c 0,4,5
 325 -3 325 -3 305 -6.5 c 128,-1,6
 285 -10 285 -10 249 -10 c 0,7,8
 189 -10 189 -10 152.5 28.5 c 128,-1,9
 116 67 116 67 116 131 c 2,10,-1
 116 514 l 1,11,-1
 12 514 l 1,12,-1
 12 550 l 1,13,-1
 116 550 l 1,14,-1
 116 700 l 1,15,-1
 158 700 l 1,16,-1
 158 550 l 1,17,-1
 328 550 l 1,18,-1
 328 514 l 1,19,-1
 158 514 l 1,20,-1
 158 140 l 2,21,22
 158 85 158 85 183.5 55.5 c 128,-1,23
 209 26 209 26 256 26 c 0,24,25
 306 26 306 26 342 47 c 1,26,0
 354 40 354 40 354 29 c 0,1,2
EndSplineSet
EndChar

StartChar: tbar
Encoding: 359 359 369
Width: 397
GlyphClass: 2
Flags: W
AnchorPoint: "Anchor-10" 328 630 basechar 0
AnchorPoint: "Anchor-9" 150 660 basechar 0
AnchorPoint: "Anchor-8" 0 0 basechar 0
AnchorPoint: "Anchor-7" 249 0 basechar 0
LayerCount: 2
Fore
SplineSet
354 29 m 0,1,2
 354 22 354 22 350.5 15.5 c 128,-1,3
 347 9 347 9 342 6 c 0,4,5
 325 -3 325 -3 305 -6.5 c 128,-1,6
 285 -10 285 -10 249 -10 c 0,7,8
 189 -10 189 -10 152.5 28.5 c 128,-1,9
 116 67 116 67 116 131 c 2,10,-1
 116 286 l 1,11,-1
 12 286 l 1,12,-1
 12 320 l 1,13,-1
 116 320 l 1,14,-1
 116 514 l 1,15,-1
 12 514 l 1,16,-1
 12 550 l 1,17,-1
 116 550 l 1,18,-1
 116 700 l 1,19,-1
 158 700 l 1,20,-1
 158 550 l 1,21,-1
 328 550 l 1,22,-1
 328 514 l 1,23,-1
 158 514 l 1,24,-1
 158 320 l 1,25,-1
 328 320 l 1,26,-1
 328 286 l 1,27,-1
 158 286 l 1,28,-1
 158 140 l 2,29,30
 158 85 158 85 183.5 55.5 c 128,-1,31
 209 26 209 26 256 26 c 0,32,33
 306 26 306 26 342 47 c 1,34,0
 354 40 354 40 354 29 c 0,1,2
EndSplineSet
EndChar

StartChar: uni0163
Encoding: 355 355 371
Width: 374
GlyphClass: 2
Flags: W
AnchorPoint: "Anchor-10" 328 630 basechar 0
AnchorPoint: "Anchor-9" 0 0 basechar 0
AnchorPoint: "Anchor-8" 0 0 basechar 0
AnchorPoint: "Anchor-7" 249 -214 basechar 0
LayerCount: 2
Fore
SplineSet
354 29 m 0,1,2
 354 22 354 22 350.5 15.5 c 128,-1,3
 347 9 347 9 342 6 c 0,4,5
 327 -2 327 -2 310 -5.5 c 128,-1,6
 293 -9 293 -9 264 -10 c 1,7,-1
 223 -61 l 1,8,9
 237 -59 237 -59 244 -59 c 0,10,11
 283 -59 283 -59 308.5 -78.5 c 128,-1,12
 334 -98 334 -98 334 -136 c 0,13,14
 334 -180 334 -180 299 -204.5 c 128,-1,15
 264 -229 264 -229 213 -229 c 0,16,17
 167 -229 167 -229 141 -219.5 c 128,-1,18
 115 -210 115 -210 115 -191 c 0,19,20
 115 -183 115 -183 117 -179 c 1,21,22
 142 -186 142 -186 162 -189.5 c 128,-1,23
 182 -193 182 -193 209 -193 c 0,24,25
 255 -193 255 -193 274.5 -179.5 c 128,-1,26
 294 -166 294 -166 294 -135 c 0,27,28
 294 -113 294 -113 278.5 -101.5 c 128,-1,29
 263 -90 263 -90 235 -90 c 0,30,31
 220 -90 220 -90 195 -95 c 1,32,-1
 175 -75 l 1,33,-1
 224 -8 l 1,34,35
 174 0 174 0 145 37 c 128,-1,36
 116 74 116 74 116 131 c 2,37,-1
 116 514 l 1,38,-1
 12 514 l 1,39,-1
 12 550 l 1,40,-1
 116 550 l 1,41,-1
 116 700 l 1,42,-1
 158 700 l 1,43,-1
 158 550 l 1,44,-1
 328 550 l 1,45,-1
 328 514 l 1,46,-1
 158 514 l 1,47,-1
 158 140 l 2,48,49
 158 85 158 85 183.5 55.5 c 128,-1,50
 209 26 209 26 256 26 c 0,51,52
 306 26 306 26 342 47 c 1,53,0
 354 40 354 40 354 29 c 0,1,2
EndSplineSet
Substitution2: "'locl' Localized Forms in Latin lookup 7 subtable" uni021B
Substitution2: "'locl' Localized Forms in Latin lookup 6 subtable" uni021B
Substitution2: "'aalt' Access All Alternates lookup 0 subtable" uni021B
EndChar

StartChar: u
Encoding: 117 117 376
Width: 610
GlyphClass: 2
Flags: W
AnchorPoint: "Anchor-10" 507 523 basechar 0
AnchorPoint: "Anchor-9" 304 550 basechar 0
AnchorPoint: "Anchor-8" 532 7 basechar 0
AnchorPoint: "Anchor-7" 304 0 basechar 0
LayerCount: 2
Fore
SplineSet
532 7 m 1,1,2
 522 -5 522 -5 504 -5 c 0,3,4
 477 -5 477 -5 475 85 c 1,5,6
 442 42 442 42 387.5 16 c 128,-1,7
 333 -10 333 -10 274 -10 c 0,8,9
 184 -10 184 -10 137 39.5 c 128,-1,10
 90 89 90 89 90 184 c 2,11,-1
 90 550 l 1,12,-1
 132 550 l 1,13,-1
 132 181 l 2,14,15
 132 110 132 110 172 68 c 128,-1,16
 212 26 212 26 280 26 c 0,17,18
 337 26 337 26 388.5 56.5 c 128,-1,19
 440 87 440 87 475 141 c 1,20,-1
 475 550 l 1,21,-1
 517 550 l 1,22,-1
 517 113 l 2,23,0
 517 54 517 54 532 7 c 1,1,2
EndSplineSet
EndChar

StartChar: uhorn
Encoding: 432 432 389
Width: 609
GlyphClass: 2
Flags: W
AnchorPoint: "Anchor-10" 507 523 basechar 0
AnchorPoint: "Anchor-9" 304 550 basechar 0
AnchorPoint: "Anchor-8" 532 7 basechar 0
AnchorPoint: "Anchor-7" 304 0 basechar 0
LayerCount: 2
Fore
SplineSet
607.5 547.5 m 128,-1,1
 575 517 575 517 517 511 c 1,2,-1
 517 113 l 2,3,4
 517 54 517 54 532 7 c 1,5,6
 522 -5 522 -5 504 -5 c 0,7,8
 477 -5 477 -5 475 85 c 1,9,10
 442 42 442 42 387.5 16 c 128,-1,11
 333 -10 333 -10 274 -10 c 0,12,13
 184 -10 184 -10 137 39.5 c 128,-1,14
 90 89 90 89 90 184 c 2,15,-1
 90 550 l 1,16,-1
 132 550 l 1,17,-1
 132 181 l 2,18,19
 132 110 132 110 172 68 c 128,-1,20
 212 26 212 26 280 26 c 0,21,22
 337 26 337 26 388.5 56.5 c 128,-1,23
 440 87 440 87 475 141 c 1,24,-1
 475 550 l 1,25,-1
 517 550 l 1,26,-1
 517 541 l 1,27,28
 551 545 551 545 575.5 564.5 c 128,-1,29
 600 584 600 584 600 617 c 0,30,31
 600 644 600 644 587 659.5 c 128,-1,32
 574 675 574 675 554 680 c 1,33,34
 556 690 556 690 563.5 696 c 128,-1,35
 571 702 571 702 582 702 c 0,36,37
 606 702 606 702 623 679.5 c 128,-1,38
 640 657 640 657 640 627 c 0,39,0
 640 578 640 578 607.5 547.5 c 128,-1,1
EndSplineSet
EndChar

StartChar: uogonek
Encoding: 371 371 397
Width: 609
GlyphClass: 2
Flags: W
AnchorPoint: "Anchor-10" 507 523 basechar 0
AnchorPoint: "Anchor-9" 304 550 basechar 0
AnchorPoint: "Anchor-8" 532 7 basechar 0
AnchorPoint: "Anchor-7" 304 0 basechar 0
LayerCount: 2
Fore
SplineSet
571 -174 m 0,1,2
 571 -187 571 -187 553.5 -195 c 128,-1,3
 536 -203 536 -203 502 -203 c 0,4,5
 462 -203 462 -203 435 -178.5 c 128,-1,6
 408 -154 408 -154 408 -115 c 0,7,8
 408 -74 408 -74 428.5 -45 c 128,-1,9
 449 -16 449 -16 488 6 c 1,10,11
 477 25 477 25 475 85 c 1,12,13
 442 42 442 42 387.5 16 c 128,-1,14
 333 -10 333 -10 274 -10 c 0,15,16
 184 -10 184 -10 137 39.5 c 128,-1,17
 90 89 90 89 90 184 c 2,18,-1
 90 550 l 1,19,-1
 132 550 l 1,20,-1
 132 181 l 2,21,22
 132 110 132 110 172 68 c 128,-1,23
 212 26 212 26 280 26 c 0,24,25
 337 26 337 26 388.5 56.5 c 128,-1,26
 440 87 440 87 475 141 c 1,27,-1
 475 550 l 1,28,-1
 517 550 l 1,29,-1
 517 113 l 2,30,31
 517 54 517 54 532 7 c 1,32,33
 527 0 527 0 515 -3 c 1,34,35
 448 -49 448 -49 448 -112 c 0,36,37
 448 -139 448 -139 465.5 -154 c 128,-1,38
 483 -169 483 -169 512 -169 c 0,39,40
 544 -169 544 -169 565 -156 c 1,41,0
 571 -165 571 -165 571 -174 c 0,1,2
EndSplineSet
EndChar

StartChar: v
Encoding: 118 118 400
Width: 480
Flags: W
LayerCount: 2
Fore
SplineSet
465 550 m 1,0,1
 438 258 438 258 260 0 c 1,2,-1
 221 0 l 1,3,4
 136 117 136 117 85.5 253 c 128,-1,5
 35 389 35 389 15 550 c 1,6,-1
 58 550 l 1,7,8
 74 408 74 408 118 283.5 c 128,-1,9
 162 159 162 159 240 44 c 1,10,11
 395 273 395 273 422 550 c 1,12,-1
 465 550 l 1,0,1
EndSplineSet
EndChar

StartChar: w
Encoding: 119 119 401
Width: 760
GlyphClass: 2
Flags: W
AnchorPoint: "Anchor-10" 0 0 basechar 0
AnchorPoint: "Anchor-9" 380 550 basechar 0
AnchorPoint: "Anchor-8" 0 0 basechar 0
AnchorPoint: "Anchor-7" 380 0 basechar 0
LayerCount: 2
Fore
SplineSet
726 550 m 1,0,1
 685 273 685 273 555 0 c 1,2,-1
 523 0 l 1,3,4
 418 226 418 226 379 443 c 1,5,6
 342 221 342 221 241 0 c 1,7,-1
 207 0 l 1,8,9
 75 273 75 273 33 550 c 1,10,-1
 76 550 l 1,11,12
 108 312 108 312 227 61 c 1,13,14
 321 275 321 275 360 550 c 1,15,-1
 398 550 l 1,16,17
 419 413 419 413 453.5 291.5 c 128,-1,18
 488 170 488 170 540 57 c 1,19,20
 658 314 658 314 685 550 c 1,21,-1
 726 550 l 1,0,1
EndSplineSet
EndChar

StartChar: x
Encoding: 120 120 406
Width: 484
Flags: W
LayerCount: 2
Fore
SplineSet
408 141.5 m 128,-1,1
 458 75 458 75 468 0 c 1,2,-1
 426 0 l 1,3,4
 416 66 416 66 369.5 126.5 c 128,-1,5
 323 187 323 187 242 263 c 1,6,7
 161 187 161 187 114.5 126.5 c 128,-1,8
 68 66 68 66 58 0 c 1,9,-1
 16 0 l 1,10,11
 26 75 26 75 76 141.5 c 128,-1,12
 126 208 126 208 213 290 c 1,13,14
 129 370 129 370 83.5 428 c 128,-1,15
 38 486 38 486 28 550 c 1,16,-1
 70 550 l 1,17,18
 79 496 79 496 121.5 443.5 c 128,-1,19
 164 391 164 391 242 318 c 1,20,21
 320 391 320 391 362.5 443.5 c 128,-1,22
 405 496 405 496 414 550 c 1,23,-1
 456 550 l 1,24,25
 446 486 446 486 400.5 428 c 128,-1,26
 355 370 355 370 271 290 c 1,27,0
 358 208 358 208 408 141.5 c 128,-1,1
EndSplineSet
EndChar

StartChar: y
Encoding: 121 121 407
Width: 485
GlyphClass: 2
Flags: W
AnchorPoint: "Anchor-10" 0 0 basechar 0
AnchorPoint: "Anchor-9" 243 550 basechar 0
AnchorPoint: "Anchor-8" 0 0 basechar 0
AnchorPoint: "Anchor-7" 348 0 basechar 0
LayerCount: 2
Fore
SplineSet
474 550 m 1,0,-1
 251 -42 l 2,1,2
 221 -121 221 -121 179.5 -156.5 c 128,-1,3
 138 -192 138 -192 77 -192 c 0,4,5
 43 -192 43 -192 22 -183 c 128,-1,6
 1 -174 1 -174 1 -159 c 256,7,8
 1 -144 1 -144 16 -140 c 1,9,10
 38 -154 38 -154 83 -154 c 256,11,12
 128 -154 128 -154 163.5 -114.5 c 128,-1,13
 199 -75 199 -75 230 9 c 1,14,-1
 14 550 l 1,15,-1
 58 550 l 1,16,-1
 250 73 l 1,17,-1
 430 550 l 1,18,-1
 474 550 l 1,0,-1
EndSplineSet
EndChar

StartChar: z
Encoding: 122 122 416
Width: 500
GlyphClass: 2
Flags: W
AnchorPoint: "Anchor-10" 0 0 basechar 0
AnchorPoint: "Anchor-9" 250 550 basechar 0
AnchorPoint: "Anchor-8" 0 0 basechar 0
AnchorPoint: "Anchor-7" 250 0 basechar 0
LayerCount: 2
Fore
SplineSet
470 38 m 1,0,-1
 470 0 l 1,1,-1
 30 0 l 1,2,-1
 30 28 l 1,3,-1
 406 514 l 1,4,-1
 56 514 l 1,5,-1
 56 550 l 1,6,-1
 462 550 l 1,7,-1
 462 525 l 1,8,-1
 86 38 l 1,9,-1
 470 38 l 1,0,-1
EndSplineSet
EndChar

StartChar: ordfeminine
Encoding: 170 170 423
Width: 380
Flags: W
LayerCount: 2
Fore
SplineSet
334.5 403.5 m 128,-1,1
 336 388 336 388 340 370 c 1,2,3
 330 360 330 360 315 360 c 0,4,5
 295 360 295 360 295 410 c 2,6,-1
 295 425 l 1,7,8
 272 397 272 397 238.5 378 c 128,-1,9
 205 359 205 359 159 359 c 256,10,11
 113 359 113 359 79.5 384.5 c 128,-1,12
 46 410 46 410 46 451 c 0,13,14
 46 525 46 525 113.5 548.5 c 128,-1,15
 181 572 181 572 295 573 c 1,16,-1
 295 584 l 2,17,18
 295 632 295 632 267.5 656 c 128,-1,19
 240 680 240 680 193 680 c 0,20,21
 162 680 162 680 140 668 c 128,-1,22
 118 656 118 656 98 638 c 0,23,24
 89 630 89 630 84 627 c 128,-1,25
 79 624 79 624 73 624 c 0,26,27
 66 624 66 624 60.5 630 c 128,-1,28
 55 636 55 636 53 644 c 1,29,30
 111 712 111 712 199 712 c 0,31,32
 232 712 232 712 262.5 698 c 128,-1,33
 293 684 293 684 313 655 c 128,-1,34
 333 626 333 626 333 583 c 2,35,-1
 333 446 l 2,36,0
 333 419 333 419 334.5 403.5 c 128,-1,1
241 417.5 m 128,-1,38
 277 442 277 442 295 472 c 1,39,-1
 295 541 l 1,40,41
 196 540 196 540 140 523 c 128,-1,42
 84 506 84 506 84 453 c 0,43,44
 84 425 84 425 105 409 c 128,-1,45
 126 393 126 393 165 393 c 0,46,37
 205 393 205 393 241 417.5 c 128,-1,38
EndSplineSet
EndChar

StartChar: ordmasculine
Encoding: 186 186 424
Width: 380
Flags: W
LayerCount: 2
Fore
SplineSet
76 405.5 m 128,-1,1
 36 454 36 454 36 533 c 0,2,3
 36 613 36 613 76 661.5 c 128,-1,4
 116 710 116 710 191 710 c 0,5,6
 265 710 265 710 304.5 661.5 c 128,-1,7
 344 613 344 613 344 533 c 0,8,9
 344 454 344 454 304.5 405.5 c 128,-1,10
 265 357 265 357 191 357 c 0,11,0
 116 357 116 357 76 405.5 c 128,-1,1
277 426 m 128,-1,13
 308 463 308 463 308 533 c 256,14,15
 308 603 308 603 277 640.5 c 128,-1,16
 246 678 246 678 191 678 c 0,17,18
 135 678 135 678 103.5 640.5 c 128,-1,19
 72 603 72 603 72 533 c 256,20,21
 72 463 72 463 103.5 426 c 128,-1,22
 135 389 135 389 191 389 c 0,23,12
 246 389 246 389 277 426 c 128,-1,13
EndSplineSet
EndChar

StartChar: uni207F
Encoding: 8319 8319 425
Width: 380
Flags: W
LayerCount: 2
Fore
SplineSet
345 369 m 1,1,2
 334 360 334 360 319 360 c 0,3,4
 299 360 299 360 299 424 c 2,5,-1
 299 592 l 2,6,7
 299 637 299 637 278 660.5 c 128,-1,8
 257 684 257 684 217 684 c 0,9,10
 182 684 182 684 145 668 c 128,-1,11
 108 652 108 652 79 623 c 1,12,-1
 79 363 l 1,13,-1
 43 363 l 1,14,-1
 43 623 l 2,15,16
 43 656 43 656 42 671 c 128,-1,17
 41 686 41 686 35 699 c 1,18,19
 39 703 39 703 47.5 706 c 128,-1,20
 56 709 56 709 62 709 c 0,21,22
 70 709 70 709 74.5 701 c 128,-1,23
 79 693 79 693 79 678 c 2,24,-1
 79 660 l 1,25,26
 107 684 107 684 145.5 700 c 128,-1,27
 184 716 184 716 221 716 c 0,28,29
 271 716 271 716 303 687 c 128,-1,30
 335 658 335 658 335 602 c 2,31,-1
 335 434 l 2,32,0
 335 386 335 386 345 369 c 1,1,2
EndSplineSet
EndChar

StartChar: uni0394
Encoding: 916 916 426
Width: 546
Flags: W
LayerCount: 2
Fore
SplineSet
546 20 m 1,0,-1
 546 0 l 1,1,-1
 0 0 l 1,2,-1
 0 20 l 1,3,-1
 255 700 l 1,4,-1
 291 700 l 1,5,-1
 546 20 l 1,0,-1
502 38 m 1,6,-1
 273 654 l 1,7,-1
 44 38 l 1,8,-1
 502 38 l 1,6,-1
EndSplineSet
EndChar

StartChar: uni03A9
Encoding: 937 937 427
Width: 676
Flags: W
LayerCount: 2
Fore
SplineSet
50 38 m 1,0,-1
 240 38 l 1,1,-1
 240 147 l 1,2,3
 184 159 184 159 141 197 c 128,-1,4
 98 235 98 235 74 292 c 128,-1,5
 50 349 50 349 50 415 c 0,6,7
 50 504 50 504 85.5 571 c 128,-1,8
 121 638 121 638 186.5 674 c 128,-1,9
 252 710 252 710 338 710 c 0,10,11
 425 710 425 710 490 674 c 128,-1,12
 555 638 555 638 590.5 571.5 c 128,-1,13
 626 505 626 505 626 415 c 0,14,15
 626 348 626 348 602 290.5 c 128,-1,16
 578 233 578 233 534.5 195.5 c 128,-1,17
 491 158 491 158 436 147 c 1,18,-1
 436 38 l 1,19,-1
 626 38 l 1,20,-1
 626 0 l 1,21,-1
 396 0 l 1,22,-1
 396 167 l 1,23,24
 448 178 448 178 490.5 214.5 c 128,-1,25
 533 251 533 251 557.5 303.5 c 128,-1,26
 582 356 582 356 582 415 c 0,27,28
 582 535 582 535 517 603 c 128,-1,29
 452 671 452 671 338 671 c 256,30,31
 224 671 224 671 159.5 603 c 128,-1,32
 95 535 95 535 95 415 c 0,33,34
 95 356 95 356 119.5 303.5 c 128,-1,35
 144 251 144 251 186.5 214.5 c 128,-1,36
 229 178 229 178 281 167 c 1,37,-1
 281 0 l 1,38,-1
 50 0 l 1,39,-1
 50 38 l 1,0,-1
EndSplineSet
EndChar

StartChar: uni03BC
Encoding: 956 956 428
Width: 611
GlyphClass: 2
Flags: W
AnchorPoint: "Anchor-6" 518 523 basechar 0
AnchorPoint: "Anchor-5" 305 550 basechar 0
AnchorPoint: "Anchor-4" 533 7 basechar 0
AnchorPoint: "Anchor-3" 305 0 basechar 0
LayerCount: 2
Fore
SplineSet
521.5 45 m 128,-1,1
 525 21 525 21 533 7 c 1,2,3
 524 -5 524 -5 505 -5 c 0,4,5
 477 -5 477 -5 476 83 c 1,6,7
 442 39 442 39 396 13.5 c 128,-1,8
 350 -12 350 -12 291 -12 c 0,9,10
 242 -12 242 -12 199.5 4.5 c 128,-1,11
 157 21 157 21 133 55 c 1,12,-1
 133 -220 l 1,13,-1
 90 -220 l 1,14,-1
 91 550 l 1,15,-1
 133 550 l 1,16,-1
 133 180 l 2,17,18
 133 106 133 106 178.5 65 c 128,-1,19
 224 24 224 24 291 24 c 0,20,21
 350 24 350 24 396 55 c 128,-1,22
 442 86 442 86 476 139 c 1,23,-1
 476 550 l 1,24,-1
 518 550 l 1,25,-1
 518 113 l 2,26,0
 518 69 518 69 521.5 45 c 128,-1,1
EndSplineSet
EndChar

StartChar: pi
Encoding: 960 960 429
Width: 640
Flags: W
LayerCount: 2
Fore
SplineSet
457.5 15.5 m 128,-1,1
 431 41 431 41 431 91 c 2,2,-1
 431 514 l 1,3,-1
 171 514 l 1,4,-1
 171 0 l 1,5,-1
 131 0 l 1,6,-1
 131 514 l 1,7,-1
 29 514 l 1,8,-1
 29 550 l 1,9,-1
 597 550 l 1,10,-1
 597 514 l 1,11,-1
 471 514 l 1,12,-1
 471 95 l 2,13,14
 471 58 471 58 487 42 c 128,-1,15
 503 26 503 26 534 26 c 0,16,17
 554 26 554 26 577.5 31.5 c 128,-1,18
 601 37 601 37 613 44 c 1,19,-1
 613 13 l 1,20,21
 573 -10 573 -10 533 -10 c 0,22,0
 484 -10 484 -10 457.5 15.5 c 128,-1,1
EndSplineSet
EndChar

StartChar: uni0E01
Encoding: 3585 3585 430
Width: 605
GlyphClass: 2
Flags: W
AnchorPoint: "Anchor-12" 525 550 basechar 0
AnchorPoint: "Anchor-11" 525 0 basechar 0
LayerCount: 2
Fore
SplineSet
414.5 562.5 m 128,-1,1
 466 539 466 539 495.5 493.5 c 128,-1,2
 525 448 525 448 525 383 c 2,3,-1
 525 0 l 1,4,-1
 483 0 l 1,5,-1
 483 383 l 2,6,7
 483 460 483 460 431.5 505 c 128,-1,8
 380 550 380 550 298 550 c 0,9,10
 240 550 240 550 194 533 c 128,-1,11
 148 516 148 516 122 491 c 128,-1,12
 96 466 96 466 96 443 c 0,13,14
 96 423 96 423 124 407.5 c 128,-1,15
 152 392 152 392 183 392 c 0,16,17
 197 392 197 392 219 398 c 0,18,19
 234 403 234 403 243 403 c 0,20,21
 249 403 249 403 256 392.5 c 128,-1,22
 263 382 263 382 263 374 c 256,23,24
 263 366 263 366 257 366 c 0,25,26
 206 366 206 366 179.5 348.5 c 128,-1,27
 153 331 153 331 144.5 300.5 c 128,-1,28
 136 270 136 270 136 222 c 2,29,-1
 136 0 l 1,30,-1
 94 0 l 1,31,-1
 94 222 l 2,32,33
 94 275 94 275 106 308 c 128,-1,34
 118 341 118 341 145 362 c 1,35,36
 114 369 114 369 84.5 392 c 128,-1,37
 55 415 55 415 55 440 c 0,38,39
 55 475 55 475 85.5 509 c 128,-1,40
 116 543 116 543 171.5 564.5 c 128,-1,41
 227 586 227 586 298 586 c 0,42,0
 363 586 363 586 414.5 562.5 c 128,-1,1
EndSplineSet
EndChar

StartChar: uni0E02
Encoding: 3586 3586 431
Width: 560
GlyphClass: 2
Flags: W
AnchorPoint: "Anchor-12" 480 550 basechar 0
AnchorPoint: "Anchor-11" 480 0 basechar 0
LayerCount: 2
Fore
SplineSet
184 31 m 128,-1,1
 141 71 141 71 141 151 c 2,2,-1
 141 261 l 2,3,4
 141 272 141 272 143.5 278 c 128,-1,5
 146 284 146 284 153 289 c 0,6,7
 210 334 210 334 238.5 369.5 c 128,-1,8
 267 405 267 405 267 454 c 0,9,10
 267 497 267 497 242 521 c 128,-1,11
 217 545 217 545 177 545 c 0,12,13
 134 545 134 545 107.5 521 c 128,-1,14
 81 497 81 497 81 455 c 0,15,16
 81 427 81 427 96 411 c 128,-1,17
 111 395 111 395 135 395 c 256,18,19
 159 395 159 395 172 409 c 128,-1,20
 185 423 185 423 185 445 c 256,21,22
 185 467 185 467 172 479 c 128,-1,23
 159 491 159 491 138 491 c 0,24,25
 123 491 123 491 112 488 c 1,26,27
 113 499 113 499 123.5 507 c 128,-1,28
 134 515 134 515 150 515 c 0,29,30
 177 515 177 515 198 496 c 128,-1,31
 219 477 219 477 219 443 c 0,32,33
 219 406 219 406 194 383.5 c 128,-1,34
 169 361 169 361 133 361 c 0,35,36
 99 361 99 361 72 387 c 128,-1,37
 45 413 45 413 45 455 c 0,38,39
 45 513 45 513 83.5 546 c 128,-1,40
 122 579 122 579 178 579 c 0,41,42
 233 579 233 579 269 546 c 128,-1,43
 305 513 305 513 305 457 c 0,44,45
 305 415 305 415 289.5 381.5 c 128,-1,46
 274 348 274 348 249 322 c 128,-1,47
 224 296 224 296 183 262 c 1,48,-1
 183 152 l 2,49,50
 183 29 183 29 307 29 c 0,51,52
 379 29 379 29 408.5 58.5 c 128,-1,53
 438 88 438 88 438 159 c 2,54,-1
 438 576 l 1,55,-1
 480 576 l 1,56,-1
 480 159 l 2,57,58
 480 70 480 70 438.5 30.5 c 128,-1,59
 397 -9 397 -9 306 -9 c 0,60,0
 227 -9 227 -9 184 31 c 128,-1,1
EndSplineSet
EndChar

StartChar: uni0E03
Encoding: 3587 3587 432
Width: 596
GlyphClass: 2
Flags: W
AnchorPoint: "Anchor-12" 516 550 basechar 0
AnchorPoint: "Anchor-11" 516 0 basechar 0
LayerCount: 2
Fore
SplineSet
160 159 m 2,1,-1
 160 219 l 2,2,3
 160 260 160 260 181 291 c 128,-1,4
 202 322 202 322 243 362 c 0,5,6
 281 399 281 399 299 424.5 c 128,-1,7
 317 450 317 450 317 483 c 0,8,9
 317 546 317 546 263 546 c 0,10,11
 225 546 225 546 199 501 c 1,12,13
 187 523 187 523 172.5 534.5 c 128,-1,14
 158 546 158 546 136 546 c 0,15,16
 108 546 108 546 91.5 530.5 c 128,-1,17
 75 515 75 515 75 487 c 0,18,19
 75 457 75 457 91.5 440.5 c 128,-1,20
 108 424 108 424 136 424 c 0,21,22
 163 424 163 424 178.5 439.5 c 128,-1,23
 194 455 194 455 196 480 c 1,24,25
 216 479 216 479 216 458 c 0,26,27
 216 432 216 432 193 412 c 128,-1,28
 170 392 170 392 135 392 c 0,29,30
 94 392 94 392 67 418.5 c 128,-1,31
 40 445 40 445 40 486 c 0,32,33
 40 530 40 530 67 555 c 128,-1,34
 94 580 94 580 131 580 c 0,35,36
 178 580 178 580 199 545 c 1,37,38
 221 580 221 580 266 580 c 0,39,40
 306 580 306 580 331.5 556 c 128,-1,41
 357 532 357 532 357 483 c 0,42,43
 357 441 357 441 336.5 410 c 128,-1,44
 316 379 316 379 275 338 c 0,45,46
 238 301 238 301 220 275 c 128,-1,47
 202 249 202 249 202 215 c 2,48,-1
 202 159 l 2,49,50
 202 93 202 93 235.5 61 c 128,-1,51
 269 29 269 29 339 29 c 0,52,53
 410 29 410 29 442 61 c 128,-1,54
 474 93 474 93 474 159 c 2,55,-1
 474 576 l 1,56,-1
 516 576 l 1,57,-1
 516 159 l 2,58,59
 516 77 516 77 472 34 c 128,-1,60
 428 -9 428 -9 338 -9 c 0,61,0
 160 -9 160 -9 160 159 c 2,1,-1
EndSplineSet
EndChar

StartChar: uni0E04
Encoding: 3588 3588 433
Width: 624
GlyphClass: 2
Flags: W
AnchorPoint: "Anchor-12" 544 550 basechar 0
AnchorPoint: "Anchor-11" 544 0 basechar 0
LayerCount: 2
Fore
SplineSet
482 530.5 m 128,-1,1
 544 475 544 475 544 361 c 2,2,-1
 544 0 l 1,3,-1
 502 0 l 1,4,-1
 502 356 l 2,5,6
 502 458 502 458 453.5 504 c 128,-1,7
 405 550 405 550 314 550 c 0,8,9
 222 550 222 550 168 500.5 c 128,-1,10
 114 451 114 451 114 356 c 0,11,12
 114 320 114 320 122 286 c 128,-1,13
 130 252 130 252 143 228 c 1,14,15
 167 296 167 296 211.5 340.5 c 128,-1,16
 256 385 256 385 318 385 c 0,17,18
 363 385 363 385 391 358 c 128,-1,19
 419 331 419 331 419 289 c 256,20,21
 419 247 419 247 391.5 221 c 128,-1,22
 364 195 364 195 322 195 c 0,23,24
 288 195 288 195 265.5 214 c 128,-1,25
 243 233 243 233 243 264 c 0,26,27
 243 275 243 275 248.5 283 c 128,-1,28
 254 291 254 291 263 293 c 1,29,30
 267 259 267 259 281 243 c 128,-1,31
 295 227 295 227 323 227 c 256,32,33
 351 227 351 227 367 243.5 c 128,-1,34
 383 260 383 260 383 289 c 0,35,36
 383 319 383 319 366 335 c 128,-1,37
 349 351 349 351 316 351 c 0,38,39
 266 351 266 351 226.5 303.5 c 128,-1,40
 187 256 187 256 164.5 175.5 c 128,-1,41
 142 95 142 95 140 0 c 1,42,-1
 113 0 l 2,43,44
 98 0 98 0 98 20 c 0,45,46
 98 64 98 64 117 142 c 0,47,48
 123 172 123 172 123 173 c 0,49,50
 123 178 123 178 112 202 c 0,51,52
 94 237 94 237 83 272 c 128,-1,53
 72 307 72 307 72 356 c 0,54,55
 72 429 72 429 103 480.5 c 128,-1,56
 134 532 134 532 189 559 c 128,-1,57
 244 586 244 586 314 586 c 0,58,0
 420 586 420 586 482 530.5 c 128,-1,1
EndSplineSet
EndChar

StartChar: uni0E05
Encoding: 3589 3589 434
Width: 640
GlyphClass: 2
Flags: W
AnchorPoint: "Anchor-12" 560 550 basechar 0
AnchorPoint: "Anchor-11" 560 0 basechar 0
LayerCount: 2
Fore
SplineSet
528.5 514 m 128,-1,1
 560 463 560 463 560 371 c 2,2,-1
 560 0 l 1,3,-1
 518 0 l 1,4,-1
 518 371 l 2,5,6
 518 456 518 456 495.5 497 c 128,-1,7
 473 538 473 538 421 550 c 1,8,9
 408 541 408 541 396.5 534 c 128,-1,10
 385 527 385 527 376 522 c 0,11,12
 346 504 346 504 326 491 c 1,13,14
 316 497 316 497 304.5 504 c 128,-1,15
 293 511 293 511 280 519 c 0,16,17
 245 538 245 538 228 550 c 1,18,19
 179 533 179 533 146.5 484 c 128,-1,20
 114 435 114 435 114 356 c 0,21,22
 114 320 114 320 122 286 c 128,-1,23
 130 252 130 252 143 228 c 1,24,25
 168 295 168 295 214.5 340 c 128,-1,26
 261 385 261 385 323 385 c 0,27,28
 368 385 368 385 396 358 c 128,-1,29
 424 331 424 331 424 289 c 256,30,31
 424 247 424 247 396.5 221 c 128,-1,32
 369 195 369 195 327 195 c 0,33,34
 293 195 293 195 270.5 214 c 128,-1,35
 248 233 248 233 248 264 c 0,36,37
 248 275 248 275 253.5 283 c 128,-1,38
 259 291 259 291 268 293 c 1,39,40
 272 259 272 259 286 243 c 128,-1,41
 300 227 300 227 328 227 c 256,42,43
 356 227 356 227 372 243.5 c 128,-1,44
 388 260 388 260 388 289 c 0,45,46
 388 319 388 319 371 335 c 128,-1,47
 354 351 354 351 321 351 c 0,48,49
 271 351 271 351 230.5 303 c 128,-1,50
 190 255 190 255 166 174.5 c 128,-1,51
 142 94 142 94 140 0 c 1,52,-1
 113 0 l 2,53,54
 98 0 98 0 98 20 c 0,55,56
 98 64 98 64 117 142 c 0,57,58
 123 172 123 172 123 173 c 0,59,60
 123 178 123 178 112 202 c 0,61,62
 94 237 94 237 83 272 c 128,-1,63
 72 307 72 307 72 356 c 0,64,65
 72 447 72 447 111 503.5 c 128,-1,66
 150 560 150 560 229 586 c 1,67,68
 243 577 243 577 273 561 c 0,69,70
 314 539 314 539 326 529 c 1,71,72
 342 541 342 541 374 559 c 0,73,74
 401 573 401 573 420 586 c 1,75,0
 497 565 497 565 528.5 514 c 128,-1,1
EndSplineSet
EndChar

StartChar: uni0E06
Encoding: 3590 3590 435
Width: 652
GlyphClass: 2
Flags: W
AnchorPoint: "Anchor-12" 552 550 basechar 0
AnchorPoint: "Anchor-11" 552 0 basechar 0
LayerCount: 2
Fore
SplineSet
556 44 m 2,1,-1
 558 15 l 2,2,3
 558 0 558 0 544 0 c 2,4,-1
 513 0 l 1,5,6
 478 94 478 94 407.5 151.5 c 128,-1,7
 337 209 337 209 256 219 c 1,8,-1
 257 152 l 2,9,10
 258 133 258 133 258 102 c 0,11,12
 258 53 258 53 233 22 c 128,-1,13
 208 -9 208 -9 163 -9 c 0,14,15
 120 -9 120 -9 92 21.5 c 128,-1,16
 64 52 64 52 64 112 c 0,17,18
 64 177 64 177 106.5 216 c 128,-1,19
 149 255 149 255 218 258 c 1,20,21
 224 288 224 288 237 310.5 c 128,-1,22
 250 333 250 333 274 367 c 0,23,24
 298 400 298 400 310 425 c 128,-1,25
 322 450 322 450 322 483 c 256,26,27
 322 516 322 516 309 531 c 128,-1,28
 296 546 296 546 269 546 c 0,29,30
 229 546 229 546 203 501 c 1,31,32
 191 523 191 523 176 534.5 c 128,-1,33
 161 546 161 546 139 546 c 0,34,35
 111 546 111 546 96 530.5 c 128,-1,36
 81 515 81 515 81 487 c 0,37,38
 81 457 81 457 96.5 440.5 c 128,-1,39
 112 424 112 424 140 424 c 0,40,41
 167 424 167 424 183 439.5 c 128,-1,42
 199 455 199 455 202 480 c 1,43,44
 220 479 220 479 220 458 c 0,45,46
 220 432 220 432 197 412 c 128,-1,47
 174 392 174 392 139 392 c 0,48,49
 98 392 98 392 71 418.5 c 128,-1,50
 44 445 44 445 44 486 c 0,51,52
 44 530 44 530 70.5 555 c 128,-1,53
 97 580 97 580 134 580 c 0,54,55
 158 580 158 580 175.5 570.5 c 128,-1,56
 193 561 193 561 203 545 c 1,57,58
 225 580 225 580 272 580 c 0,59,60
 313 580 313 580 338.5 556 c 128,-1,61
 364 532 364 532 364 483 c 0,62,63
 364 441 364 441 349.5 409.5 c 128,-1,64
 335 378 335 378 309 342 c 0,65,66
 287 311 287 311 276.5 294 c 128,-1,67
 266 277 266 277 260 256 c 1,68,69
 335 247 335 247 403.5 202 c 128,-1,70
 472 157 472 157 510 95 c 1,71,-1
 510 576 l 1,72,-1
 552 576 l 1,73,-1
 552 111 l 2,74,0
 552 80 552 80 556 44 c 2,1,-1
203.5 44.5 m 128,-1,76
 216 63 216 63 216 112 c 0,77,78
 216 134 216 134 215 149 c 0,79,80
 213 201 213 201 214 221 c 1,81,82
 106 215 106 215 106 115 c 0,83,84
 106 26 106 26 163 26 c 0,85,75
 191 26 191 26 203.5 44.5 c 128,-1,76
EndSplineSet
EndChar

StartChar: uni0E07
Encoding: 3591 3591 436
Width: 520
GlyphClass: 2
Flags: W
AnchorPoint: "Anchor-12" 450 550 basechar 0
AnchorPoint: "Anchor-11" 386 0 basechar 0
LayerCount: 2
Fore
SplineSet
216.5 6.5 m 128,-1,1
 184 17 184 17 182 28 c 0,2,3
 158 147 158 147 124.5 232.5 c 128,-1,4
 91 318 91 318 45 382 c 1,5,6
 59 396 59 396 75 396 c 0,7,8
 83 396 83 396 89 391 c 128,-1,9
 95 386 95 386 103 372 c 0,10,11
 178 253 178 253 217 48 c 0,12,13
 219 40 219 40 238.5 34 c 128,-1,14
 258 28 258 28 288 28 c 0,15,16
 325 28 325 28 340 33 c 128,-1,17
 355 38 355 38 357 48 c 0,18,19
 382 192 382 192 395.5 291.5 c 128,-1,20
 409 391 409 391 409 446 c 256,21,22
 409 501 409 501 390 524.5 c 128,-1,23
 371 548 371 548 336 548 c 0,24,25
 309 548 309 548 292.5 533 c 128,-1,26
 276 518 276 518 276 494 c 0,27,28
 276 468 276 468 291.5 453.5 c 128,-1,29
 307 439 307 439 332 439 c 0,30,31
 359 439 359 439 379 455 c 1,32,33
 380 452 380 452 380 446 c 0,34,35
 380 430 380 430 365 418.5 c 128,-1,36
 350 407 350 407 326 407 c 0,37,38
 290 407 290 407 266 430.5 c 128,-1,39
 242 454 242 454 242 494 c 0,40,41
 242 533 242 533 268.5 557.5 c 128,-1,42
 295 582 295 582 337 582 c 0,43,44
 391 582 391 582 420.5 548 c 128,-1,45
 450 514 450 514 450 452 c 0,46,47
 450 389 450 389 435 285 c 128,-1,48
 420 181 420 181 391 28 c 0,49,50
 389 16 389 16 358.5 6 c 128,-1,51
 328 -4 328 -4 288 -4 c 0,52,0
 249 -4 249 -4 216.5 6.5 c 128,-1,1
EndSplineSet
EndChar

StartChar: uni0E08
Encoding: 3592 3592 437
Width: 588
GlyphClass: 2
Flags: W
AnchorPoint: "Anchor-12" 508 550 basechar 0
AnchorPoint: "Anchor-11" 466 0 basechar 0
LayerCount: 2
Fore
SplineSet
298.5 -1.5 m 128,-1,1
 274 6 274 6 273 18 c 0,2,3
 265 127 265 127 249 240 c 0,4,5
 243 280 243 280 227.5 298 c 128,-1,6
 212 316 212 316 182 316 c 0,7,8
 153 316 153 316 137 301 c 128,-1,9
 121 286 121 286 121 259 c 0,10,11
 121 231 121 231 137 214.5 c 128,-1,12
 153 198 153 198 179 198 c 0,13,14
 197 198 197 198 217 204 c 0,15,16
 219 201 219 201 219 195 c 0,17,18
 218 183 218 183 205.5 175.5 c 128,-1,19
 193 168 193 168 171 168 c 0,20,21
 132 168 132 168 108.5 193 c 128,-1,22
 85 218 85 218 85 258 c 256,23,24
 85 298 85 298 112.5 324 c 128,-1,25
 140 350 140 350 182 350 c 0,26,27
 275 350 275 350 289 247 c 0,28,29
 293 211 293 211 305 93 c 0,30,31
 306 75 306 75 310 37 c 0,32,33
 311 33 311 33 328 29.5 c 128,-1,34
 345 26 345 26 363 26 c 0,35,36
 383 26 383 26 400 29.5 c 128,-1,37
 417 33 417 33 418 38 c 2,38,-1
 439 168 l 2,39,40
 453 247 453 247 459.5 292.5 c 128,-1,41
 466 338 466 338 466 383 c 0,42,43
 466 464 466 464 422 507 c 128,-1,44
 378 550 378 550 292 550 c 0,45,46
 226 550 226 550 177.5 528 c 128,-1,47
 129 506 129 506 87 464 c 0,48,49
 81 458 81 458 74 458 c 0,50,51
 68 458 68 458 60.5 465.5 c 128,-1,52
 53 473 53 473 48 483 c 1,53,54
 95 531 95 531 152.5 558.5 c 128,-1,55
 210 586 210 586 292 586 c 0,56,57
 394 586 394 586 451 533.5 c 128,-1,58
 508 481 508 481 508 383 c 0,59,60
 508 342 508 342 501.5 301 c 128,-1,61
 495 260 495 260 482 195 c 0,62,63
 480 185 480 185 469.5 131 c 128,-1,64
 459 77 459 77 452 18 c 0,65,66
 450 6 450 6 426.5 -1.5 c 128,-1,67
 403 -9 403 -9 363 -9 c 256,68,0
 323 -9 323 -9 298.5 -1.5 c 128,-1,1
EndSplineSet
EndChar

StartChar: uni0E09
Encoding: 3593 3593 438
Width: 629
GlyphClass: 2
Flags: W
AnchorPoint: "Anchor-12" 544 550 basechar 0
AnchorPoint: "Anchor-11" 544 0 basechar 0
LayerCount: 2
Fore
SplineSet
562.5 157.5 m 128,-1,1
 584 130 584 130 584 96 c 0,2,3
 584 47 584 47 554.5 21.5 c 128,-1,4
 525 -4 525 -4 485 -4 c 0,5,6
 446 -4 446 -4 418 21 c 128,-1,7
 390 46 390 46 390 89 c 0,8,9
 390 118 390 118 400 138.5 c 128,-1,10
 410 159 410 159 428 178 c 1,11,-1
 425 178 l 2,12,13
 381 178 381 178 341.5 151.5 c 128,-1,14
 302 125 302 125 274 84 c 128,-1,15
 246 43 246 43 233 0 c 1,16,-1
 213 0 l 2,17,18
 204 0 204 0 201.5 3 c 128,-1,19
 199 6 199 6 199 15 c 2,20,-1
 199 121 l 2,21,22
 199 133 199 133 202 202 c 0,23,24
 205 232 205 232 205 264 c 0,25,26
 205 326 205 326 148 326 c 0,27,28
 123 326 123 326 108 311 c 128,-1,29
 93 296 93 296 93 272 c 0,30,31
 93 247 93 247 108 232.5 c 128,-1,32
 123 218 123 218 148 218 c 0,33,34
 171 218 171 218 186 228 c 1,35,36
 189 222 189 222 189 217 c 0,37,38
 189 205 189 205 175 195.5 c 128,-1,39
 161 186 161 186 141 186 c 0,40,41
 106 186 106 186 81.5 210 c 128,-1,42
 57 234 57 234 57 273 c 0,43,44
 57 310 57 310 84.5 336 c 128,-1,45
 112 362 112 362 149 362 c 0,46,47
 193 362 193 362 219.5 336 c 128,-1,48
 246 310 246 310 246 264 c 0,49,50
 246 249 246 249 244 209 c 0,51,52
 241 134 241 134 241 125 c 2,53,-1
 241 99 l 1,54,55
 275 150 275 150 324.5 180.5 c 128,-1,56
 374 211 374 211 428 211 c 0,57,58
 441 211 441 211 461 209 c 1,59,60
 481 228 481 228 491.5 247.5 c 128,-1,61
 502 267 502 267 502 294 c 2,62,-1
 502 383 l 2,63,64
 502 462 502 462 451 506.5 c 128,-1,65
 400 551 400 551 312 551 c 0,66,67
 184 551 184 551 98 465 c 0,68,69
 92 459 92 459 85 459 c 0,70,71
 79 459 79 459 71 466.5 c 128,-1,72
 63 474 63 474 58 481 c 1,73,74
 107 530 107 530 167 558 c 128,-1,75
 227 586 227 586 312 586 c 0,76,77
 416 586 416 586 480 532.5 c 128,-1,78
 544 479 544 479 544 383 c 2,79,-1
 544 284 l 2,80,81
 544 259 544 259 533 239 c 128,-1,82
 522 219 522 219 503 199 c 1,83,0
 541 185 541 185 562.5 157.5 c 128,-1,1
548 99 m 0,85,86
 548 125 548 125 530 144.5 c 128,-1,87
 512 164 512 164 476 173 c 1,88,89
 451 149 451 149 438.5 131 c 128,-1,90
 426 113 426 113 426 92 c 0,91,92
 426 63 426 63 441.5 46.5 c 128,-1,93
 457 30 457 30 485 30 c 0,94,84
 548 30 548 30 548 99 c 0,85,86
EndSplineSet
EndChar

StartChar: uni0E0A
Encoding: 3594 3594 439
Width: 615
GlyphClass: 2
Flags: W
AnchorPoint: "Anchor-12" 513 550 basechar 0
AnchorPoint: "Anchor-11" 513 0 basechar 0
LayerCount: 2
Fore
SplineSet
513 339 m 2,1,-1
 513 159 l 2,2,3
 513 78 513 78 465 34.5 c 128,-1,4
 417 -9 417 -9 326 -9 c 0,5,6
 241 -9 241 -9 191.5 34 c 128,-1,7
 142 77 142 77 142 151 c 2,8,-1
 142 249 l 2,9,10
 142 267 142 267 155 275 c 0,11,12
 211 310 211 310 245.5 352 c 128,-1,13
 280 394 280 394 280 451 c 0,14,15
 280 545 280 545 180 545 c 0,16,17
 137 545 137 545 112.5 523 c 128,-1,18
 88 501 88 501 88 467 c 0,19,20
 88 442 88 442 101.5 428 c 128,-1,21
 115 414 115 414 141 414 c 0,22,23
 168 414 168 414 179.5 429 c 128,-1,24
 191 444 191 444 191 467 c 0,25,26
 191 486 191 486 182.5 498.5 c 128,-1,27
 174 511 174 511 159 521 c 1,28,29
 165 524 165 524 176 524 c 0,30,31
 196 524 196 524 210 508.5 c 128,-1,32
 224 493 224 493 224 465 c 0,33,34
 224 431 224 431 201 406.5 c 128,-1,35
 178 382 178 382 139 382 c 0,36,37
 101 382 101 382 76.5 405.5 c 128,-1,38
 52 429 52 429 52 467 c 0,39,40
 52 515 52 515 87.5 547 c 128,-1,41
 123 579 123 579 185 579 c 0,42,43
 245 579 245 579 282.5 545.5 c 128,-1,44
 320 512 320 512 320 454 c 0,45,46
 320 405 320 405 300.5 368 c 128,-1,47
 281 331 281 331 254 306 c 128,-1,48
 227 281 227 281 184 250 c 1,49,-1
 184 152 l 2,50,51
 184 87 184 87 220 57 c 128,-1,52
 256 27 256 27 327 27 c 0,53,54
 405 27 405 27 438 59.5 c 128,-1,55
 471 92 471 92 471 159 c 2,56,-1
 471 339 l 2,57,58
 471 389 471 389 456.5 409 c 128,-1,59
 442 429 442 429 410 429 c 0,60,61
 401 429 401 429 389.5 427 c 128,-1,62
 378 425 378 425 372 425 c 0,63,64
 368 425 368 425 362.5 435.5 c 128,-1,65
 357 446 357 446 357 452 c 0,66,67
 357 459 357 459 363 459 c 0,68,69
 426 459 426 459 462.5 501.5 c 128,-1,70
 499 544 499 544 502 611 c 1,71,72
 541 611 541 611 541 583 c 0,73,74
 541 547 541 547 516 507.5 c 128,-1,75
 491 468 491 468 451 451 c 1,76,0
 513 427 513 427 513 339 c 2,1,-1
EndSplineSet
EndChar

StartChar: uni0E0B
Encoding: 3595 3595 440
Width: 615
GlyphClass: 2
Flags: W
AnchorPoint: "Anchor-12" 515 550 basechar 0
AnchorPoint: "Anchor-11" 515 0 basechar 0
LayerCount: 2
Fore
SplineSet
498.5 413.5 m 128,-1,1
 515 387 515 387 515 339 c 2,2,-1
 515 159 l 2,3,4
 515 77 515 77 469 34 c 128,-1,5
 423 -9 423 -9 333 -9 c 0,6,7
 250 -9 250 -9 205 30.5 c 128,-1,8
 160 70 160 70 160 159 c 2,9,-1
 160 219 l 2,10,11
 160 260 160 260 179.5 291 c 128,-1,12
 199 322 199 322 237 361 c 0,13,14
 272 399 272 399 288.5 424.5 c 128,-1,15
 305 450 305 450 305 482 c 0,16,17
 305 512 305 512 291.5 528.5 c 128,-1,18
 278 545 278 545 254 545 c 0,19,20
 214 545 214 545 189 499 c 1,21,22
 178 520 178 520 163 532.5 c 128,-1,23
 148 545 148 545 126 545 c 0,24,25
 98 545 98 545 83 529.5 c 128,-1,26
 68 514 68 514 68 486 c 0,27,28
 68 456 68 456 83 439.5 c 128,-1,29
 98 423 98 423 126 423 c 0,30,31
 153 423 153 423 168 438.5 c 128,-1,32
 183 454 183 454 186 479 c 1,33,34
 206 478 206 478 206 457 c 0,35,36
 206 429 206 429 183 409 c 128,-1,37
 160 389 160 389 125 389 c 0,38,39
 84 389 84 389 57 416.5 c 128,-1,40
 30 444 30 444 30 485 c 0,41,42
 30 529 30 529 57 554.5 c 128,-1,43
 84 580 84 580 121 580 c 0,44,45
 167 580 167 580 189 544 c 1,46,47
 211 580 211 580 256 580 c 0,48,49
 296 580 296 580 321.5 555.5 c 128,-1,50
 347 531 347 531 347 482 c 0,51,52
 347 440 347 440 327 408.5 c 128,-1,53
 307 377 307 377 269 338 c 0,54,55
 234 301 234 301 217 275 c 128,-1,56
 200 249 200 249 200 215 c 2,57,-1
 200 159 l 2,58,59
 200 84 200 84 231 55.5 c 128,-1,60
 262 27 262 27 334 27 c 0,61,62
 412 27 412 27 442.5 59 c 128,-1,63
 473 91 473 91 473 159 c 2,64,-1
 473 339 l 2,65,66
 473 389 473 389 458.5 409 c 128,-1,67
 444 429 444 429 412 429 c 0,68,69
 403 429 403 429 391.5 427 c 128,-1,70
 380 425 380 425 374 425 c 0,71,72
 370 425 370 425 364.5 435.5 c 128,-1,73
 359 446 359 446 359 452 c 0,74,75
 359 459 359 459 365 459 c 0,76,77
 428 459 428 459 464 501 c 128,-1,78
 500 543 500 543 503 611 c 1,79,80
 543 611 543 611 543 585 c 0,81,82
 543 549 543 549 518 508.5 c 128,-1,83
 493 468 493 468 453 451 c 1,84,0
 482 440 482 440 498.5 413.5 c 128,-1,1
EndSplineSet
EndChar

StartChar: uni0E0C
Encoding: 3596 3596 441
Width: 918
GlyphClass: 2
Flags: W
AnchorPoint: "Anchor-12" 820 550 basechar 0
AnchorPoint: "Anchor-11" 820 0 basechar 0
LayerCount: 2
Fore
SplineSet
822.5 52.5 m 128,-1,1
 824 24 824 24 824 18 c 0,2,3
 824 8 824 8 821 4 c 128,-1,4
 818 0 818 0 810 0 c 2,5,-1
 783 0 l 1,6,7
 741 105 741 105 676 157.5 c 128,-1,8
 611 210 611 210 535 215 c 1,9,-1
 535 91 l 2,10,11
 534 45 534 45 512 18 c 128,-1,12
 490 -9 490 -9 454 -9 c 0,13,14
 412 -9 412 -9 386.5 21.5 c 128,-1,15
 361 52 361 52 361 108 c 0,16,17
 361 169 361 169 398.5 205.5 c 128,-1,18
 436 242 436 242 493 248 c 1,19,-1
 493 383 l 2,20,21
 493 465 493 465 438.5 507.5 c 128,-1,22
 384 550 384 550 298 550 c 0,23,24
 240 550 240 550 194 533 c 128,-1,25
 148 516 148 516 122.5 491 c 128,-1,26
 97 466 97 466 97 443 c 0,27,28
 97 423 97 423 124.5 407 c 128,-1,29
 152 391 152 391 183 391 c 0,30,31
 194 391 194 391 216 395 c 0,32,33
 236 399 236 399 243 399 c 0,34,35
 249 399 249 399 256 388 c 128,-1,36
 263 377 263 377 263 368 c 0,37,38
 263 361 263 361 257 361 c 0,39,40
 206 361 206 361 179 344 c 128,-1,41
 152 327 152 327 143 297.5 c 128,-1,42
 134 268 134 268 134 221 c 2,43,-1
 134 109 l 2,44,45
 134 70 134 70 152 48.5 c 128,-1,46
 170 27 170 27 201 27 c 0,47,48
 228 27 228 27 242.5 42 c 128,-1,49
 257 57 257 57 257 83 c 0,50,51
 257 108 257 108 243.5 122.5 c 128,-1,52
 230 137 230 137 206 137 c 256,53,54
 182 137 182 137 158 127 c 1,55,56
 156 133 156 133 156 136 c 0,57,58
 156 149 156 149 170 159 c 128,-1,59
 184 169 184 169 206 169 c 0,60,61
 242 169 242 169 267.5 147 c 128,-1,62
 293 125 293 125 293 83 c 0,63,64
 293 42 293 42 268 17.5 c 128,-1,65
 243 -7 243 -7 199 -7 c 0,66,67
 145 -7 145 -7 118.5 25 c 128,-1,68
 92 57 92 57 92 108 c 2,69,-1
 92 221 l 2,70,71
 92 272 92 272 104 305.5 c 128,-1,72
 116 339 116 339 142 360 c 1,73,74
 112 368 112 368 83.5 392 c 128,-1,75
 55 416 55 416 55 440 c 0,76,77
 55 472 55 472 85 506.5 c 128,-1,78
 115 541 115 541 170.5 563.5 c 128,-1,79
 226 586 226 586 298 586 c 0,80,81
 398 586 398 586 466.5 536 c 128,-1,82
 535 486 535 486 535 383 c 2,83,-1
 535 250 l 1,84,85
 606 246 606 246 669 209 c 128,-1,86
 732 172 732 172 779 93 c 1,87,-1
 779 576 l 1,88,-1
 821 576 l 1,89,-1
 821 124 l 2,90,0
 821 81 821 81 822.5 52.5 c 128,-1,1
493 92 m 2,92,-1
 493 213 l 1,93,94
 449 207 449 207 426.5 181 c 128,-1,95
 404 155 404 155 404 111 c 0,96,97
 404 26 404 26 452 26 c 0,98,91
 493 26 493 26 493 92 c 2,92,-1
EndSplineSet
EndChar

StartChar: uni0E240E45
Encoding: 65537 -1 442
Width: 925
Flags: W
LayerCount: 2
Fore
SplineSet
493 383 m 2,0,1
 493 465 493 465 438.5 507.5 c 128,-1,2
 384 550 384 550 298 550 c 0,3,4
 240 550 240 550 194 533 c 128,-1,5
 148 516 148 516 122.5 491 c 128,-1,6
 97 466 97 466 97 443 c 0,7,8
 97 423 97 423 124.5 407 c 128,-1,9
 152 391 152 391 183 391 c 0,10,11
 194 391 194 391 216 395 c 0,12,13
 236 399 236 399 243 399 c 0,14,15
 249 399 249 399 256 388 c 128,-1,16
 263 377 263 377 263 368 c 0,17,18
 263 361 263 361 257 361 c 0,19,20
 206 361 206 361 179 344 c 128,-1,21
 152 327 152 327 143 297.5 c 128,-1,22
 134 268 134 268 134 221 c 2,23,-1
 134 109 l 2,24,25
 134 70 134 70 152 48.5 c 128,-1,26
 170 27 170 27 201 27 c 0,27,28
 228 27 228 27 242.5 42 c 128,-1,29
 257 57 257 57 257 83 c 0,30,31
 257 108 257 108 243.5 122.5 c 128,-1,32
 230 137 230 137 206 137 c 256,33,34
 182 137 182 137 158 127 c 1,35,36
 156 133 156 133 156 136 c 0,37,38
 156 149 156 149 170 159 c 128,-1,39
 184 169 184 169 206 169 c 0,40,41
 242 169 242 169 267.5 147 c 128,-1,42
 293 125 293 125 293 83 c 0,43,44
 293 42 293 42 268 17.5 c 128,-1,45
 243 -7 243 -7 199 -7 c 0,46,47
 145 -7 145 -7 118.5 25 c 128,-1,48
 92 57 92 57 92 108 c 2,49,-1
 92 221 l 2,50,51
 92 272 92 272 104 305.5 c 128,-1,52
 116 339 116 339 142 360 c 1,53,54
 112 368 112 368 83.5 392 c 128,-1,55
 55 416 55 416 55 440 c 0,56,57
 55 472 55 472 85 506.5 c 128,-1,58
 115 541 115 541 170.5 563.5 c 128,-1,59
 226 586 226 586 298 586 c 0,60,61
 353 586 353 586 401.5 570 c 128,-1,62
 450 554 450 554 483 522 c 1,63,64
 517 549 517 549 564 567.5 c 128,-1,65
 611 586 611 586 661 586 c 0,66,67
 745 586 745 586 795 541.5 c 128,-1,68
 845 497 845 497 845 415 c 2,69,-1
 845 -220 l 1,70,-1
 803 -220 l 1,71,-1
 803 409 l 2,72,73
 803 479 803 479 766 515 c 128,-1,74
 729 551 729 551 662 551 c 0,75,76
 618 551 618 551 578 535.5 c 128,-1,77
 538 520 538 520 506 493 c 1,78,79
 535 448 535 448 535 383 c 2,80,-1
 535 -220 l 1,81,-1
 493 -220 l 1,82,-1
 493 383 l 2,0,1
EndSplineSet
Ligature2: "'liga' Standard Ligatures lookup 13 subtable" uni0E24 uni0E45
EndChar

StartChar: uni0E260E45
Encoding: 65538 -1 443
Width: 945
Flags: W
LayerCount: 2
Fore
SplineSet
508 366 m 2,0,1
 508 470 508 470 456.5 510 c 128,-1,2
 405 550 405 550 314 550 c 0,3,4
 258 550 258 550 211.5 536.5 c 128,-1,5
 165 523 165 523 138 501.5 c 128,-1,6
 111 480 111 480 111 458 c 0,7,8
 111 437 111 437 130.5 421 c 128,-1,9
 150 405 150 405 173.5 396 c 128,-1,10
 197 387 197 387 206 387 c 0,11,12
 216 387 216 387 231 392 c 0,13,14
 253 398 253 398 265 398 c 0,15,16
 272 398 272 398 276.5 388.5 c 128,-1,17
 281 379 281 379 281.5 368.5 c 128,-1,18
 282 358 282 358 279 358 c 0,19,20
 226 358 226 358 201.5 342 c 128,-1,21
 177 326 177 326 177 273 c 0,22,23
 177 245 177 245 180.5 223.5 c 128,-1,24
 184 202 184 202 192 169 c 0,25,26
 205 121 205 121 205 89 c 0,27,28
 205 47 205 47 178.5 19.5 c 128,-1,29
 152 -8 152 -8 107 -8 c 0,30,31
 66 -8 66 -8 41 16.5 c 128,-1,32
 16 41 16 41 16 80 c 0,33,34
 16 118 16 118 39.5 140.5 c 128,-1,35
 63 163 63 163 91 163 c 0,36,37
 109 163 109 163 119 155.5 c 128,-1,38
 129 148 129 148 129 133 c 1,39,-1
 110 133 l 2,40,41
 82 133 82 133 67 119 c 128,-1,42
 52 105 52 105 52 80 c 0,43,44
 52 54 52 54 66.5 40 c 128,-1,45
 81 26 81 26 107 26 c 0,46,47
 135 26 135 26 150 43 c 128,-1,48
 165 60 165 60 165 91 c 0,49,50
 165 112 165 112 160.5 133.5 c 128,-1,51
 156 155 156 155 151 176 c 0,52,53
 143 205 143 205 139 227.5 c 128,-1,54
 135 250 135 250 135 275 c 0,55,56
 135 327 135 327 169 359 c 1,57,58
 130 372 130 372 97.5 398.5 c 128,-1,59
 65 425 65 425 65 455 c 0,60,61
 65 487 65 487 97 517.5 c 128,-1,62
 129 548 129 548 186 567 c 128,-1,63
 243 586 243 586 314 586 c 0,64,65
 372 586 372 586 420 570 c 128,-1,66
 468 554 468 554 499 520 c 1,67,68
 535 548 535 548 582.5 567 c 128,-1,69
 630 586 630 586 681 586 c 0,70,71
 765 586 765 586 815 541.5 c 128,-1,72
 865 497 865 497 865 415 c 2,73,-1
 865 -220 l 1,74,-1
 823 -220 l 1,75,-1
 823 409 l 2,76,77
 823 479 823 479 786 515 c 128,-1,78
 749 551 749 551 682 551 c 0,79,80
 595 551 595 551 521 490 c 1,81,82
 550 438 550 438 550 366 c 2,83,-1
 550 -220 l 1,84,-1
 508 -220 l 1,85,-1
 508 366 l 2,0,1
EndSplineSet
Ligature2: "'liga' Standard Ligatures lookup 13 subtable" uni0E26 uni0E45
EndChar

StartChar: uni0E0D
Encoding: 3597 3597 444
Width: 940
GlyphClass: 2
Flags: W
AnchorPoint: "Anchor-12" 860 550 basechar 0
AnchorPoint: "Anchor-11" 850 -228 basechar 0
LayerCount: 2
Fore
SplineSet
518.5 31.5 m 128,-1,1
 474 72 474 72 474 160 c 2,2,-1
 474 383 l 2,3,4
 474 466 474 466 423 508.5 c 128,-1,5
 372 551 372 551 288 551 c 0,6,7
 231 551 231 551 187.5 534 c 128,-1,8
 144 517 144 517 120.5 491.5 c 128,-1,9
 97 466 97 466 97 443 c 0,10,11
 97 423 97 423 125 406.5 c 128,-1,12
 153 390 153 390 183 390 c 0,13,14
 198 390 198 390 216 395 c 0,15,16
 236 399 236 399 243 399 c 0,17,18
 249 399 249 399 255.5 389 c 128,-1,19
 262 379 262 379 262 370 c 0,20,21
 262 363 262 363 256 363 c 0,22,23
 205 363 205 363 178.5 346 c 128,-1,24
 152 329 152 329 143 299 c 128,-1,25
 134 269 134 269 134 221 c 2,26,-1
 134 109 l 2,27,28
 134 70 134 70 152 48.5 c 128,-1,29
 170 27 170 27 201 27 c 0,30,31
 228 27 228 27 242.5 42 c 128,-1,32
 257 57 257 57 257 83 c 0,33,34
 257 108 257 108 243.5 122.5 c 128,-1,35
 230 137 230 137 206 137 c 256,36,37
 182 137 182 137 158 127 c 1,38,39
 156 133 156 133 156 136 c 0,40,41
 156 149 156 149 170 159 c 128,-1,42
 184 169 184 169 206 169 c 0,43,44
 242 169 242 169 267.5 147 c 128,-1,45
 293 125 293 125 293 83 c 0,46,47
 293 42 293 42 268 17.5 c 128,-1,48
 243 -7 243 -7 199 -7 c 0,49,50
 145 -7 145 -7 118.5 25 c 128,-1,51
 92 57 92 57 92 108 c 2,52,-1
 92 221 l 2,53,54
 92 273 92 273 104.5 306.5 c 128,-1,55
 117 340 117 340 144 361 c 1,56,57
 113 369 113 369 84 392.5 c 128,-1,58
 55 416 55 416 55 440 c 0,59,60
 55 473 55 473 82.5 507 c 128,-1,61
 110 541 110 541 163 563.5 c 128,-1,62
 216 586 216 586 288 586 c 0,63,64
 387 586 387 586 451.5 536.5 c 128,-1,65
 516 487 516 487 516 383 c 2,66,-1
 516 162 l 2,67,68
 516 93 516 93 550 61.5 c 128,-1,69
 584 30 584 30 659 30 c 0,70,71
 743 30 743 30 780.5 61 c 128,-1,72
 818 92 818 92 818 160 c 2,73,-1
 818 576 l 1,74,-1
 860 576 l 1,75,-1
 860 160 l 2,76,77
 860 72 860 72 811.5 31.5 c 128,-1,78
 763 -9 763 -9 659 -9 c 0,79,0
 563 -9 563 -9 518.5 31.5 c 128,-1,1
523.5 -200.5 m 128,-1,81
 482 -173 482 -173 482 -124 c 0,82,83
 482 -88 482 -88 505 -66.5 c 128,-1,84
 528 -45 528 -45 561 -45 c 0,85,86
 592 -45 592 -45 613 -64 c 128,-1,87
 634 -83 634 -83 634 -112 c 0,88,89
 634 -138 634 -138 621 -152 c 128,-1,90
 608 -166 608 -166 593 -166 c 0,91,92
 589 -166 589 -166 583 -164 c 1,93,94
 600 -147 600 -147 600 -119 c 0,95,96
 600 -77 600 -77 560 -77 c 0,97,98
 539 -77 539 -77 528.5 -89.5 c 128,-1,99
 518 -102 518 -102 518 -123 c 0,100,101
 518 -155 518 -155 545.5 -172.5 c 128,-1,102
 573 -190 573 -190 630 -190 c 0,103,104
 695 -190 695 -190 731 -165 c 128,-1,105
 767 -140 767 -140 789 -92 c 0,106,107
 795 -80 795 -80 800.5 -75 c 128,-1,108
 806 -70 806 -70 813 -70 c 0,109,110
 826 -70 826 -70 839 -78 c 1,111,112
 821 -149 821 -149 767 -188.5 c 128,-1,113
 713 -228 713 -228 630 -228 c 0,114,80
 565 -228 565 -228 523.5 -200.5 c 128,-1,81
EndSplineSet
Substitution2: "Single Substitution lookup 14 subtable" yoYingthai.less
Substitution2: "'aalt' Access All Alternates lookup 0 subtable" yoYingthai.less
EndChar

StartChar: yoYingthai.less
Encoding: 65539 -1 445
Width: 940
GlyphClass: 2
Flags: W
AnchorPoint: "Anchor-12" 860 550 basechar 0
AnchorPoint: "Anchor-11" 860 0 basechar 0
LayerCount: 2
Fore
SplineSet
518.5 31.5 m 128,-1,1
 474 72 474 72 474 160 c 2,2,-1
 474 383 l 2,3,4
 474 466 474 466 423 508.5 c 128,-1,5
 372 551 372 551 288 551 c 0,6,7
 231 551 231 551 187.5 534 c 128,-1,8
 144 517 144 517 120.5 491.5 c 128,-1,9
 97 466 97 466 97 443 c 0,10,11
 97 423 97 423 125 406.5 c 128,-1,12
 153 390 153 390 183 390 c 0,13,14
 198 390 198 390 216 395 c 0,15,16
 236 399 236 399 243 399 c 0,17,18
 249 399 249 399 255.5 389 c 128,-1,19
 262 379 262 379 262 370 c 0,20,21
 262 363 262 363 256 363 c 0,22,23
 205 363 205 363 178.5 346 c 128,-1,24
 152 329 152 329 143 299 c 128,-1,25
 134 269 134 269 134 221 c 2,26,-1
 134 109 l 2,27,28
 134 70 134 70 152 48.5 c 128,-1,29
 170 27 170 27 201 27 c 0,30,31
 228 27 228 27 242.5 42 c 128,-1,32
 257 57 257 57 257 83 c 0,33,34
 257 108 257 108 243.5 122.5 c 128,-1,35
 230 137 230 137 206 137 c 256,36,37
 182 137 182 137 158 127 c 1,38,39
 156 133 156 133 156 136 c 0,40,41
 156 149 156 149 170 159 c 128,-1,42
 184 169 184 169 206 169 c 0,43,44
 242 169 242 169 267.5 147 c 128,-1,45
 293 125 293 125 293 83 c 0,46,47
 293 42 293 42 268 17.5 c 128,-1,48
 243 -7 243 -7 199 -7 c 0,49,50
 145 -7 145 -7 118.5 25 c 128,-1,51
 92 57 92 57 92 108 c 2,52,-1
 92 221 l 2,53,54
 92 273 92 273 104.5 306.5 c 128,-1,55
 117 340 117 340 144 361 c 1,56,57
 113 369 113 369 84 392.5 c 128,-1,58
 55 416 55 416 55 440 c 0,59,60
 55 473 55 473 82.5 507 c 128,-1,61
 110 541 110 541 163 563.5 c 128,-1,62
 216 586 216 586 288 586 c 0,63,64
 387 586 387 586 451.5 536.5 c 128,-1,65
 516 487 516 487 516 383 c 2,66,-1
 516 162 l 2,67,68
 516 93 516 93 550 61.5 c 128,-1,69
 584 30 584 30 659 30 c 0,70,71
 743 30 743 30 780.5 61 c 128,-1,72
 818 92 818 92 818 160 c 2,73,-1
 818 576 l 1,74,-1
 860 576 l 1,75,-1
 860 160 l 2,76,77
 860 72 860 72 811.5 31.5 c 128,-1,78
 763 -9 763 -9 659 -9 c 0,79,0
 563 -9 563 -9 518.5 31.5 c 128,-1,1
EndSplineSet
EndChar

StartChar: uni0E0E
Encoding: 3598 3598 446
Width: 630
GlyphClass: 2
Flags: W
AnchorPoint: "Anchor-12" 550 550 basechar 0
AnchorPoint: "Anchor-11" 550 -245 basechar 0
LayerCount: 2
Fore
SplineSet
484 534.5 m 128,-1,1
 550 483 550 483 550 366 c 2,2,-1
 550 -245 l 1,3,-1
 507 -245 l 1,4,5
 453 -187 453 -187 401 -149 c 1,6,7
 375 -194 375 -194 329.5 -220 c 128,-1,8
 284 -246 284 -246 234 -246 c 0,9,10
 174 -246 174 -246 135.5 -222 c 128,-1,11
 97 -198 97 -198 97 -156 c 0,12,13
 97 -115 97 -115 138 -87.5 c 128,-1,14
 179 -60 179 -60 247 -60 c 0,15,16
 317 -60 317 -60 382 -98 c 1,17,18
 394 -61 394 -61 395 -23 c 1,19,20
 410 -23 410 -23 418.5 -30.5 c 128,-1,21
 427 -38 427 -38 427 -51 c 0,22,23
 427 -89 427 -89 415 -119 c 1,24,25
 455 -147 455 -147 508 -200 c 1,26,-1
 508 366 l 2,27,28
 508 470 508 470 456.5 510 c 128,-1,29
 405 550 405 550 314 550 c 0,30,31
 258 550 258 550 211.5 536.5 c 128,-1,32
 165 523 165 523 138 501.5 c 128,-1,33
 111 480 111 480 111 458 c 0,34,35
 111 437 111 437 130.5 421 c 128,-1,36
 150 405 150 405 173.5 396 c 128,-1,37
 197 387 197 387 206 387 c 0,38,39
 216 387 216 387 231 392 c 0,40,41
 253 398 253 398 265 398 c 0,42,43
 272 398 272 398 276.5 388.5 c 128,-1,44
 281 379 281 379 281.5 368.5 c 128,-1,45
 282 358 282 358 279 358 c 0,46,47
 226 358 226 358 201.5 342 c 128,-1,48
 177 326 177 326 177 273 c 0,49,50
 177 245 177 245 180.5 223.5 c 128,-1,51
 184 202 184 202 192 169 c 0,52,53
 205 121 205 121 205 89 c 0,54,55
 205 47 205 47 178.5 19.5 c 128,-1,56
 152 -8 152 -8 107 -8 c 0,57,58
 66 -8 66 -8 41 16.5 c 128,-1,59
 16 41 16 41 16 80 c 0,60,61
 16 118 16 118 39.5 140.5 c 128,-1,62
 63 163 63 163 91 163 c 0,63,64
 109 163 109 163 119 155.5 c 128,-1,65
 129 148 129 148 129 133 c 1,66,-1
 110 133 l 2,67,68
 82 133 82 133 67 119 c 128,-1,69
 52 105 52 105 52 80 c 0,70,71
 52 54 52 54 66.5 40 c 128,-1,72
 81 26 81 26 107 26 c 0,73,74
 135 26 135 26 150 43 c 128,-1,75
 165 60 165 60 165 91 c 0,76,77
 165 112 165 112 160.5 133.5 c 128,-1,78
 156 155 156 155 151 176 c 0,79,80
 143 205 143 205 139 227.5 c 128,-1,81
 135 250 135 250 135 275 c 0,82,83
 135 327 135 327 169 359 c 1,84,85
 130 372 130 372 97.5 398.5 c 128,-1,86
 65 425 65 425 65 455 c 0,87,88
 65 487 65 487 97 517.5 c 128,-1,89
 129 548 129 548 186 567 c 128,-1,90
 243 586 243 586 314 586 c 0,91,0
 418 586 418 586 484 534.5 c 128,-1,1
311 -191 m 128,-1,93
 347 -170 347 -170 369 -129 c 1,94,95
 308 -92 308 -92 251 -92 c 0,96,97
 136 -92 136 -92 136 -157 c 0,98,99
 136 -185 136 -185 163.5 -198.5 c 128,-1,100
 191 -212 191 -212 233 -212 c 256,101,92
 275 -212 275 -212 311 -191 c 128,-1,93
EndSplineSet
Substitution2: "Single Substitution lookup 14 subtable" doChadathai.short
Substitution2: "'aalt' Access All Alternates lookup 0 subtable" doChadathai.short
EndChar

StartChar: doChadathai.short
Encoding: 65540 -1 447
Width: 630
GlyphClass: 2
Flags: W
AnchorPoint: "Anchor-12" 550 550 basechar 0
AnchorPoint: "Anchor-11" 550 -195 basechar 0
LayerCount: 2
Fore
SplineSet
484 534.5 m 128,-1,1
 550 483 550 483 550 366 c 2,2,-1
 550 -195 l 1,3,-1
 507 -195 l 1,4,5
 453 -137 453 -137 401 -99 c 1,6,7
 375 -144 375 -144 329.5 -170 c 128,-1,8
 284 -196 284 -196 234 -196 c 0,9,10
 174 -196 174 -196 135.5 -172 c 128,-1,11
 97 -148 97 -148 97 -106 c 0,12,13
 97 -65 97 -65 138 -37.5 c 128,-1,14
 179 -10 179 -10 247 -10 c 0,15,16
 317 -10 317 -10 382 -48 c 1,17,18
 394 -11 394 -11 395 27 c 1,19,20
 410 27 410 27 418.5 19.5 c 128,-1,21
 427 12 427 12 427 -1 c 0,22,23
 427 -38 427 -38 415 -69 c 1,24,25
 460 -100 460 -100 508 -150 c 1,26,-1
 508 366 l 2,27,28
 508 470 508 470 456.5 510 c 128,-1,29
 405 550 405 550 314 550 c 0,30,31
 258 550 258 550 211.5 536.5 c 128,-1,32
 165 523 165 523 138 501.5 c 128,-1,33
 111 480 111 480 111 458 c 0,34,35
 111 437 111 437 130.5 421 c 128,-1,36
 150 405 150 405 173.5 396 c 128,-1,37
 197 387 197 387 206 387 c 0,38,39
 216 387 216 387 231 392 c 0,40,41
 253 398 253 398 265 398 c 0,42,43
 272 398 272 398 276.5 388.5 c 128,-1,44
 281 379 281 379 281.5 368.5 c 128,-1,45
 282 358 282 358 279 358 c 0,46,47
 226 358 226 358 201.5 342 c 128,-1,48
 177 326 177 326 177 273 c 0,49,50
 177 245 177 245 180.5 223.5 c 128,-1,51
 184 202 184 202 192 169 c 0,52,53
 205 121 205 121 205 89 c 0,54,55
 205 47 205 47 178.5 19.5 c 128,-1,56
 152 -8 152 -8 107 -8 c 0,57,58
 66 -8 66 -8 41 16.5 c 128,-1,59
 16 41 16 41 16 80 c 0,60,61
 16 118 16 118 39.5 140.5 c 128,-1,62
 63 163 63 163 91 163 c 0,63,64
 109 163 109 163 119 155.5 c 128,-1,65
 129 148 129 148 129 133 c 1,66,-1
 110 133 l 2,67,68
 82 133 82 133 67 119 c 128,-1,69
 52 105 52 105 52 80 c 0,70,71
 52 54 52 54 66.5 40 c 128,-1,72
 81 26 81 26 107 26 c 0,73,74
 135 26 135 26 150 43 c 128,-1,75
 165 60 165 60 165 91 c 0,76,77
 165 112 165 112 160.5 133.5 c 128,-1,78
 156 155 156 155 151 176 c 0,79,80
 143 205 143 205 139 227.5 c 128,-1,81
 135 250 135 250 135 275 c 0,82,83
 135 327 135 327 169 359 c 1,84,85
 130 372 130 372 97.5 398.5 c 128,-1,86
 65 425 65 425 65 455 c 0,87,88
 65 487 65 487 97 517.5 c 128,-1,89
 129 548 129 548 186 567 c 128,-1,90
 243 586 243 586 314 586 c 0,91,0
 418 586 418 586 484 534.5 c 128,-1,1
311 -141 m 128,-1,93
 347 -120 347 -120 369 -79 c 1,94,95
 308 -42 308 -42 251 -42 c 0,96,97
 136 -42 136 -42 136 -107 c 0,98,99
 136 -135 136 -135 163.5 -148.5 c 128,-1,100
 191 -162 191 -162 233 -162 c 256,101,92
 275 -162 275 -162 311 -141 c 128,-1,93
EndSplineSet
EndChar

StartChar: uni0E0F
Encoding: 3599 3599 448
Width: 630
GlyphClass: 2
Flags: W
AnchorPoint: "Anchor-12" 550 550 basechar 0
AnchorPoint: "Anchor-11" 550 -250 basechar 0
LayerCount: 2
Fore
SplineSet
484 534.5 m 128,-1,1
 550 483 550 483 550 366 c 2,2,-1
 550 -250 l 1,3,-1
 506 -250 l 1,4,-1
 423 -195 l 1,5,-1
 339 -247 l 1,6,-1
 289 -194 l 1,7,8
 266 -220 266 -220 235 -235 c 128,-1,9
 204 -250 204 -250 166 -250 c 0,10,11
 117 -250 117 -250 87.5 -225.5 c 128,-1,12
 58 -201 58 -201 58 -164 c 0,13,14
 58 -126 58 -126 89.5 -103 c 128,-1,15
 121 -80 121 -80 166 -80 c 0,16,17
 198 -80 198 -80 226 -95 c 128,-1,18
 254 -110 254 -110 282 -137 c 1,19,20
 296 -100 296 -100 296 -47 c 1,21,22
 310 -47 310 -47 320 -56 c 128,-1,23
 330 -65 330 -65 330 -82 c 0,24,25
 330 -128 330 -128 309 -165 c 1,26,-1
 344 -201 l 1,27,-1
 424 -153 l 1,28,-1
 508 -207 l 1,29,-1
 508 366 l 2,30,31
 508 470 508 470 456.5 510 c 128,-1,32
 405 550 405 550 314 550 c 0,33,34
 258 550 258 550 211.5 536.5 c 128,-1,35
 165 523 165 523 138 501.5 c 128,-1,36
 111 480 111 480 111 458 c 0,37,38
 111 437 111 437 130.5 421 c 128,-1,39
 150 405 150 405 173.5 396 c 128,-1,40
 197 387 197 387 206 387 c 0,41,42
 216 387 216 387 231 392 c 0,43,44
 253 398 253 398 265 398 c 0,45,46
 272 398 272 398 276.5 388.5 c 128,-1,47
 281 379 281 379 281.5 368.5 c 128,-1,48
 282 358 282 358 279 358 c 0,49,50
 226 358 226 358 201.5 342 c 128,-1,51
 177 326 177 326 177 273 c 0,52,53
 177 245 177 245 180.5 223.5 c 128,-1,54
 184 202 184 202 192 169 c 0,55,56
 205 121 205 121 205 89 c 0,57,58
 205 47 205 47 178.5 19.5 c 128,-1,59
 152 -8 152 -8 107 -8 c 0,60,61
 66 -8 66 -8 41 16.5 c 128,-1,62
 16 41 16 41 16 80 c 0,63,64
 16 118 16 118 39.5 140.5 c 128,-1,65
 63 163 63 163 91 163 c 0,66,67
 109 163 109 163 119 155.5 c 128,-1,68
 129 148 129 148 129 133 c 1,69,-1
 110 133 l 2,70,71
 82 133 82 133 67 119 c 128,-1,72
 52 105 52 105 52 80 c 0,73,74
 52 54 52 54 66.5 40 c 128,-1,75
 81 26 81 26 107 26 c 0,76,77
 135 26 135 26 150 43 c 128,-1,78
 165 60 165 60 165 91 c 0,79,80
 165 112 165 112 160.5 133.5 c 128,-1,81
 156 155 156 155 151 176 c 0,82,83
 143 205 143 205 139 227.5 c 128,-1,84
 135 250 135 250 135 275 c 0,85,86
 135 327 135 327 169 359 c 1,87,88
 130 372 130 372 97.5 398.5 c 128,-1,89
 65 425 65 425 65 455 c 0,90,91
 65 487 65 487 97 517.5 c 128,-1,92
 129 548 129 548 186 567 c 128,-1,93
 243 586 243 586 314 586 c 0,94,0
 418 586 418 586 484 534.5 c 128,-1,1
221.5 -205 m 128,-1,96
 247 -194 247 -194 265 -169 c 1,97,98
 238 -141 238 -141 215 -127 c 128,-1,99
 192 -113 192 -113 164 -113 c 0,100,101
 135 -113 135 -113 116.5 -126 c 128,-1,102
 98 -139 98 -139 98 -162 c 0,103,104
 98 -187 98 -187 116 -201.5 c 128,-1,105
 134 -216 134 -216 169 -216 c 0,106,95
 196 -216 196 -216 221.5 -205 c 128,-1,96
EndSplineSet
Substitution2: "Single Substitution lookup 14 subtable" toPatakthai.short
Substitution2: "'aalt' Access All Alternates lookup 0 subtable" toPatakthai.short
EndChar

StartChar: toPatakthai.short
Encoding: 65541 -1 449
Width: 630
GlyphClass: 2
Flags: W
AnchorPoint: "Anchor-12" 550 550 basechar 0
AnchorPoint: "Anchor-11" 550 -200 basechar 0
LayerCount: 2
Fore
SplineSet
484 534.5 m 128,-1,1
 550 483 550 483 550 366 c 2,2,-1
 550 -200 l 1,3,-1
 506 -200 l 1,4,-1
 423 -145 l 1,5,-1
 339 -197 l 1,6,-1
 289 -144 l 1,7,8
 266 -170 266 -170 235 -185 c 128,-1,9
 204 -200 204 -200 166 -200 c 0,10,11
 117 -200 117 -200 87.5 -175.5 c 128,-1,12
 58 -151 58 -151 58 -114 c 0,13,14
 58 -76 58 -76 89.5 -53 c 128,-1,15
 121 -30 121 -30 166 -30 c 0,16,17
 198 -30 198 -30 226 -45 c 128,-1,18
 254 -60 254 -60 282 -87 c 1,19,20
 296 -50 296 -50 296 3 c 1,21,22
 310 3 310 3 320 -6 c 128,-1,23
 330 -15 330 -15 330 -32 c 0,24,25
 330 -78 330 -78 309 -115 c 1,26,-1
 344 -151 l 1,27,-1
 424 -103 l 1,28,-1
 508 -157 l 1,29,-1
 508 366 l 2,30,31
 508 470 508 470 456.5 510 c 128,-1,32
 405 550 405 550 314 550 c 0,33,34
 258 550 258 550 211.5 536.5 c 128,-1,35
 165 523 165 523 138 501.5 c 128,-1,36
 111 480 111 480 111 458 c 0,37,38
 111 437 111 437 130.5 421 c 128,-1,39
 150 405 150 405 173.5 396 c 128,-1,40
 197 387 197 387 206 387 c 0,41,42
 216 387 216 387 231 392 c 0,43,44
 253 398 253 398 265 398 c 0,45,46
 272 398 272 398 276.5 388.5 c 128,-1,47
 281 379 281 379 281.5 368.5 c 128,-1,48
 282 358 282 358 279 358 c 0,49,50
 226 358 226 358 201.5 342 c 128,-1,51
 177 326 177 326 177 273 c 0,52,53
 177 245 177 245 180.5 223.5 c 128,-1,54
 184 202 184 202 192 169 c 0,55,56
 205 121 205 121 205 89 c 0,57,58
 205 47 205 47 178.5 19.5 c 128,-1,59
 152 -8 152 -8 107 -8 c 0,60,61
 66 -8 66 -8 41 16.5 c 128,-1,62
 16 41 16 41 16 80 c 0,63,64
 16 118 16 118 39.5 140.5 c 128,-1,65
 63 163 63 163 91 163 c 0,66,67
 109 163 109 163 119 155.5 c 128,-1,68
 129 148 129 148 129 133 c 1,69,-1
 110 133 l 2,70,71
 82 133 82 133 67 119 c 128,-1,72
 52 105 52 105 52 80 c 0,73,74
 52 54 52 54 66.5 40 c 128,-1,75
 81 26 81 26 107 26 c 0,76,77
 135 26 135 26 150 43 c 128,-1,78
 165 60 165 60 165 91 c 0,79,80
 165 112 165 112 160.5 133.5 c 128,-1,81
 156 155 156 155 151 176 c 0,82,83
 143 205 143 205 139 227.5 c 128,-1,84
 135 250 135 250 135 275 c 0,85,86
 135 327 135 327 169 359 c 1,87,88
 130 372 130 372 97.5 398.5 c 128,-1,89
 65 425 65 425 65 455 c 0,90,91
 65 487 65 487 97 517.5 c 128,-1,92
 129 548 129 548 186 567 c 128,-1,93
 243 586 243 586 314 586 c 0,94,0
 418 586 418 586 484 534.5 c 128,-1,1
221.5 -155 m 128,-1,96
 247 -144 247 -144 265 -119 c 1,97,98
 238 -91 238 -91 215 -77 c 128,-1,99
 192 -63 192 -63 164 -63 c 0,100,101
 135 -63 135 -63 116.5 -76 c 128,-1,102
 98 -89 98 -89 98 -112 c 0,103,104
 98 -137 98 -137 116 -151.5 c 128,-1,105
 134 -166 134 -166 169 -166 c 0,106,95
 196 -166 196 -166 221.5 -155 c 128,-1,96
EndSplineSet
EndChar

StartChar: uni0E10
Encoding: 3600 3600 450
Width: 589
GlyphClass: 2
Flags: W
AnchorPoint: "Anchor-12" 483 550 basechar 0
AnchorPoint: "Anchor-11" 481 -272 basechar 0
LayerCount: 2
Fore
SplineSet
53.5 395 m 128,-1,1
 43 425 43 425 43 453 c 0,2,3
 43 514 43 514 86.5 548 c 128,-1,4
 130 582 130 582 202 582 c 0,5,6
 234 582 234 582 313 573 c 0,7,8
 375 565 375 565 397 565 c 0,9,10
 469 565 469 565 496 595 c 1,11,12
 511 588 511 588 511 572 c 0,13,14
 511 552 511 552 479 539.5 c 128,-1,15
 447 527 447 527 400 527 c 0,16,17
 375 527 375 527 344 531 c 128,-1,18
 313 535 313 535 304 536 c 0,19,20
 236 546 236 546 202 546 c 0,21,22
 146 546 146 546 115.5 521.5 c 128,-1,23
 85 497 85 497 85 454 c 0,24,25
 85 432 85 432 89 414 c 128,-1,26
 93 396 93 396 102 387 c 1,27,-1
 135 390 l 2,28,29
 236 402 236 402 302 402 c 0,30,31
 497 402 497 402 497 253 c 0,32,33
 497 217 497 217 489.5 177.5 c 128,-1,34
 482 138 482 138 465 72 c 1,35,36
 467 79 467 79 451 18 c 0,37,38
 448 6 448 6 425 -1.5 c 128,-1,39
 402 -9 402 -9 363 -9 c 0,40,41
 323 -9 323 -9 298.5 -1.5 c 128,-1,42
 274 6 274 6 273 18 c 2,43,-1
 272 41 l 2,44,45
 269 135 269 135 260 189 c 0,46,47
 253 228 253 228 237 244.5 c 128,-1,48
 221 261 221 261 193 261 c 0,49,50
 166 261 166 261 150.5 247 c 128,-1,51
 135 233 135 233 135 205 c 0,52,53
 135 179 135 179 151 164 c 128,-1,54
 167 149 167 149 192 149 c 0,55,56
 223 149 223 149 240 166 c 1,57,58
 242 158 242 158 242 154 c 0,59,60
 242 138 242 138 227 127.5 c 128,-1,61
 212 117 212 117 188 117 c 0,62,63
 148 117 148 117 124.5 141.5 c 128,-1,64
 101 166 101 166 101 205 c 0,65,66
 101 246 101 246 126 270.5 c 128,-1,67
 151 295 151 295 194 295 c 0,68,69
 282 295 282 295 296 199 c 0,70,71
 303 153 303 153 306 118.5 c 128,-1,72
 309 84 309 84 309 36 c 0,73,74
 309 32 309 32 327 28.5 c 128,-1,75
 345 25 345 25 363 25 c 0,76,77
 383 25 383 25 401.5 28.5 c 128,-1,78
 420 32 420 32 421 37 c 0,79,80
 425 69 425 69 437 123 c 0,81,82
 444 158 444 158 449.5 192.5 c 128,-1,83
 455 227 455 227 455 253 c 0,84,85
 455 315 455 315 417.5 340.5 c 128,-1,86
 380 366 380 366 293 366 c 0,87,88
 243 366 243 366 128 354 c 2,89,-1
 79 350 l 1,90,0
 64 365 64 365 53.5 395 c 128,-1,1
483 -73.5 m 128,-1,92
 504 -94 504 -94 504 -128 c 0,93,94
 504 -143 504 -143 499.5 -159.5 c 128,-1,95
 495 -176 495 -176 490 -191 c 0,96,97
 481 -213 481 -213 476.5 -231.5 c 128,-1,98
 472 -250 472 -250 472 -272 c 1,99,-1
 438 -272 l 1,100,-1
 375 -237 l 1,101,-1
 304 -275 l 1,102,-1
 257 -222 l 1,103,104
 238 -247 238 -247 211.5 -261 c 128,-1,105
 185 -275 185 -275 156 -275 c 0,106,107
 112 -275 112 -275 88.5 -251.5 c 128,-1,108
 65 -228 65 -228 65 -197 c 0,109,110
 65 -160 65 -160 90.5 -138 c 128,-1,111
 116 -116 116 -116 155 -116 c 0,112,113
 181 -116 181 -116 203.5 -130 c 128,-1,114
 226 -144 226 -144 249 -168 c 1,115,116
 258 -137 258 -137 258 -94 c 1,117,118
 289 -94 289 -94 289 -123 c 0,119,120
 289 -161 289 -161 273 -195 c 1,121,-1
 310 -236 l 1,122,-1
 373 -202 l 1,123,-1
 442 -240 l 1,124,125
 442 -221 442 -221 454 -189 c 0,126,127
 468 -155 468 -155 468 -130 c 0,128,129
 468 -109 468 -109 456.5 -97 c 128,-1,130
 445 -85 445 -85 424 -85 c 0,131,132
 405 -85 405 -85 393.5 -96.5 c 128,-1,133
 382 -108 382 -108 382 -126 c 0,134,135
 382 -167 382 -167 433 -170 c 1,136,137
 431 -187 431 -187 410 -187 c 0,138,139
 385 -187 385 -187 367 -170 c 128,-1,140
 349 -153 349 -153 349 -127 c 0,141,142
 349 -94 349 -94 370.5 -73.5 c 128,-1,143
 392 -53 392 -53 424 -53 c 0,144,91
 462 -53 462 -53 483 -73.5 c 128,-1,92
236 -199 m 1,146,147
 212 -173 212 -173 193 -159.5 c 128,-1,148
 174 -146 174 -146 153 -146 c 0,149,150
 127 -146 127 -146 113 -159.5 c 128,-1,151
 99 -173 99 -173 99 -195 c 0,152,153
 99 -219 99 -219 113 -233 c 128,-1,154
 127 -247 127 -247 155 -247 c 0,155,145
 208 -247 208 -247 236 -199 c 1,146,147
EndSplineSet
Substitution2: "Single Substitution lookup 14 subtable" thoThanthai.less
Substitution2: "'aalt' Access All Alternates lookup 0 subtable" thoThanthai.less
EndChar

StartChar: thoThanthai.less
Encoding: 65542 -1 451
Width: 575
GlyphClass: 2
Flags: W
AnchorPoint: "Anchor-12" 483 550 basechar 0
AnchorPoint: "Anchor-11" 465 0 basechar 0
LayerCount: 2
Fore
SplineSet
298.5 -1.5 m 128,-1,1
 274 6 274 6 273 18 c 2,2,-1
 272 41 l 2,3,4
 269 135 269 135 260 189 c 0,5,6
 253 228 253 228 237 244.5 c 128,-1,7
 221 261 221 261 193 261 c 0,8,9
 166 261 166 261 150.5 247 c 128,-1,10
 135 233 135 233 135 205 c 0,11,12
 135 179 135 179 151 164 c 128,-1,13
 167 149 167 149 192 149 c 0,14,15
 223 149 223 149 240 166 c 1,16,17
 242 158 242 158 242 154 c 0,18,19
 242 138 242 138 227 127.5 c 128,-1,20
 212 117 212 117 188 117 c 0,21,22
 148 117 148 117 124.5 141.5 c 128,-1,23
 101 166 101 166 101 205 c 0,24,25
 101 246 101 246 126 270.5 c 128,-1,26
 151 295 151 295 194 295 c 0,27,28
 282 295 282 295 296 199 c 0,29,30
 303 153 303 153 306 118.5 c 128,-1,31
 309 84 309 84 309 36 c 0,32,33
 309 32 309 32 327 28.5 c 128,-1,34
 345 25 345 25 363 25 c 0,35,36
 383 25 383 25 401.5 28.5 c 128,-1,37
 420 32 420 32 421 37 c 0,38,39
 425 69 425 69 437 123 c 0,40,41
 444 158 444 158 449.5 192.5 c 128,-1,42
 455 227 455 227 455 253 c 0,43,44
 455 315 455 315 417.5 340.5 c 128,-1,45
 380 366 380 366 293 366 c 0,46,47
 243 366 243 366 128 354 c 2,48,-1
 79 350 l 1,49,50
 64 365 64 365 53.5 395 c 128,-1,51
 43 425 43 425 43 453 c 0,52,53
 43 514 43 514 86.5 548 c 128,-1,54
 130 582 130 582 202 582 c 0,55,56
 234 582 234 582 313 573 c 0,57,58
 375 565 375 565 397 565 c 0,59,60
 469 565 469 565 496 595 c 1,61,62
 511 588 511 588 511 572 c 0,63,64
 511 552 511 552 479 539.5 c 128,-1,65
 447 527 447 527 400 527 c 0,66,67
 375 527 375 527 344 531 c 128,-1,68
 313 535 313 535 304 536 c 0,69,70
 236 546 236 546 202 546 c 0,71,72
 146 546 146 546 115.5 521.5 c 128,-1,73
 85 497 85 497 85 454 c 0,74,75
 85 432 85 432 89 414 c 128,-1,76
 93 396 93 396 102 387 c 1,77,-1
 135 390 l 2,78,79
 236 402 236 402 302 402 c 0,80,81
 497 402 497 402 497 253 c 0,82,83
 497 217 497 217 489.5 177.5 c 128,-1,84
 482 138 482 138 465 72 c 1,85,86
 467 79 467 79 451 18 c 0,87,88
 448 6 448 6 425 -1.5 c 128,-1,89
 402 -9 402 -9 363 -9 c 0,90,0
 323 -9 323 -9 298.5 -1.5 c 128,-1,1
EndSplineSet
EndChar

StartChar: uni0E11
Encoding: 3601 3601 452
Width: 655
GlyphClass: 2
Flags: W
AnchorPoint: "Anchor-12" 575 550 basechar 0
AnchorPoint: "Anchor-11" 575 0 basechar 0
LayerCount: 2
Fore
SplineSet
542 545.5 m 128,-1,1
 575 511 575 511 575 445 c 2,2,-1
 575 0 l 1,3,-1
 533 0 l 1,4,-1
 533 439 l 2,5,6
 533 490 533 490 513 516 c 128,-1,7
 493 542 493 542 450 542 c 0,8,9
 418 542 418 542 392 518.5 c 128,-1,10
 366 495 366 495 312 426 c 0,11,12
 268 370 268 370 262 363 c 0,13,14
 228 322 228 322 212 291 c 128,-1,15
 196 260 196 260 196 222 c 2,16,-1
 195 0 l 1,17,-1
 163 0 l 2,18,19
 152 0 152 0 152 10 c 0,20,21
 152 14 152 14 153 31.5 c 128,-1,22
 154 49 154 49 154 91 c 2,23,-1
 154 226 l 2,24,25
 154 270 154 270 171 301.5 c 128,-1,26
 188 333 188 333 208 356 c 128,-1,27
 228 379 228 379 234 386 c 0,28,29
 265 423 265 423 276.5 446 c 128,-1,30
 288 469 288 469 288 499 c 0,31,32
 288 546 288 546 245 546 c 0,33,34
 221 546 221 546 205.5 535 c 128,-1,35
 190 524 190 524 179 501 c 1,36,37
 157 545 157 545 116 545 c 0,38,39
 90 545 90 545 74.5 530 c 128,-1,40
 59 515 59 515 59 487 c 0,41,42
 59 457 59 457 73.5 440.5 c 128,-1,43
 88 424 88 424 114 424 c 0,44,45
 141 424 141 424 156 439.5 c 128,-1,46
 171 455 171 455 174 480 c 1,47,48
 191 478 191 478 191 458 c 0,49,50
 191 431 191 431 169 411.5 c 128,-1,51
 147 392 147 392 113 392 c 0,52,53
 72 392 72 392 46 418.5 c 128,-1,54
 20 445 20 445 20 486 c 0,55,56
 20 530 20 530 47 555 c 128,-1,57
 74 580 74 580 111 580 c 0,58,59
 135 580 135 580 152.5 569.5 c 128,-1,60
 170 559 170 559 180 543 c 1,61,62
 203 578 203 578 251 578 c 0,63,64
 280 578 280 578 299.5 558 c 128,-1,65
 319 538 319 538 323 505 c 1,66,67
 379 580 379 580 449 580 c 0,68,0
 509 580 509 580 542 545.5 c 128,-1,1
EndSplineSet
EndChar

StartChar: uni0E12
Encoding: 3602 3602 453
Width: 923
GlyphClass: 2
Flags: W
AnchorPoint: "Anchor-12" 826 550 basechar 0
AnchorPoint: "Anchor-11" 826 0 basechar 0
LayerCount: 2
Fore
SplineSet
827.5 44 m 128,-1,1
 829 23 829 23 829 18 c 0,2,3
 829 8 829 8 826 4 c 128,-1,4
 823 0 823 0 815 0 c 2,5,-1
 793 0 l 1,6,7
 747 110 747 110 682 161 c 128,-1,8
 617 212 617 212 540 217 c 1,9,-1
 540 130 l 1,10,-1
 540 91 l 2,11,12
 538 44 538 44 517.5 17.5 c 128,-1,13
 497 -9 497 -9 458 -9 c 0,14,15
 417 -9 417 -9 391.5 23 c 128,-1,16
 366 55 366 55 366 108 c 0,17,18
 366 169 366 169 403.5 205.5 c 128,-1,19
 441 242 441 242 498 249 c 1,20,-1
 498 370 l 2,21,22
 498 453 498 453 474 493 c 128,-1,23
 450 533 450 533 400 546 c 1,24,25
 390 538 390 538 344 508 c 2,26,-1
 310 487 l 1,27,-1
 280 505 l 2,28,29
 234 533 234 533 217 546 c 1,30,31
 165 530 165 530 136 480 c 128,-1,32
 107 430 107 430 107 343 c 0,33,34
 107 277 107 277 127.5 230 c 128,-1,35
 148 183 148 183 187 142 c 1,36,37
 206 158 206 158 265 195 c 2,38,-1
 315 227 l 2,39,40
 345 246 345 246 356.5 265.5 c 128,-1,41
 368 285 368 285 368 311 c 0,42,43
 368 340 368 340 353 356.5 c 128,-1,44
 338 373 338 373 307 373 c 256,45,46
 276 373 276 373 261 356.5 c 128,-1,47
 246 340 246 340 246 314 c 0,48,49
 246 289 246 289 259.5 272.5 c 128,-1,50
 273 256 273 256 300 252 c 1,51,52
 298 233 298 233 273 233 c 0,53,54
 249 233 249 233 229.5 254.5 c 128,-1,55
 210 276 210 276 210 313 c 0,56,57
 210 355 210 355 237 381 c 128,-1,58
 264 407 264 407 307 407 c 0,59,60
 352 407 352 407 379 379.5 c 128,-1,61
 406 352 406 352 406 313 c 0,62,63
 406 275 406 275 388 249 c 128,-1,64
 370 223 370 223 334 199 c 2,65,-1
 303 178 l 2,66,67
 249 144 249 144 220 121 c 128,-1,68
 191 98 191 98 173.5 68.5 c 128,-1,69
 156 39 156 39 156 0 c 1,70,-1
 127 0 l 2,71,72
 122 0 122 0 119 2 c 128,-1,73
 116 4 116 4 116 11 c 0,74,75
 116 30 116 30 124 48.5 c 128,-1,76
 132 67 132 67 145 89 c 0,77,78
 157 108 157 108 157 113 c 0,79,80
 157 116 157 116 151 122.5 c 128,-1,81
 145 129 145 129 144 131 c 0,82,83
 111 169 111 169 88 216 c 128,-1,84
 65 263 65 263 65 342 c 0,85,86
 65 436 65 436 103 498.5 c 128,-1,87
 141 561 141 561 218 586 c 1,88,89
 230 578 230 578 254 564 c 0,90,91
 293 542 293 542 310 528 c 1,92,93
 321 538 321 538 358 560 c 0,94,95
 378 571 378 571 399 586 c 1,96,97
 477 565 477 565 508.5 516.5 c 128,-1,98
 540 468 540 468 540 377 c 2,99,-1
 540 251 l 1,100,101
 696 244 696 244 784 94 c 1,102,-1
 784 576 l 1,103,-1
 826 576 l 1,104,-1
 826 124 l 2,105,0
 826 65 826 65 827.5 44 c 128,-1,1
498 133 m 1,106,-1
 498 215 l 1,107,108
 454 209 454 209 430 182 c 128,-1,109
 406 155 406 155 406 111 c 0,110,111
 406 26 406 26 455 26 c 0,112,113
 476 26 476 26 486.5 41 c 128,-1,114
 497 56 497 56 498 92 c 2,115,-1
 498 133 l 1,106,-1
EndSplineSet
EndChar

StartChar: uni0E13
Encoding: 3603 3603 454
Width: 928
GlyphClass: 2
Flags: W
AnchorPoint: "Anchor-12" 848 550 basechar 0
AnchorPoint: "Anchor-11" 848 0 basechar 0
LayerCount: 2
Fore
SplineSet
864 166 m 128,-1,1
 885 136 885 136 885 95 c 0,2,3
 885 49 885 49 856 22.5 c 128,-1,4
 827 -4 827 -4 782 -4 c 256,5,6
 737 -4 737 -4 709.5 22 c 128,-1,7
 682 48 682 48 682 95 c 0,8,9
 682 127 682 127 694.5 150 c 128,-1,10
 707 173 707 173 730 193 c 1,11,12
 725 194 725 194 714 194 c 0,13,14
 670 194 670 194 623 167.5 c 128,-1,15
 576 141 576 141 545.5 96.5 c 128,-1,16
 515 52 515 52 515 0 c 1,17,-1
 492 0 l 2,18,19
 472 0 472 0 472 20 c 0,20,21
 472 31 472 31 473 40 c 0,22,23
 476 91 476 91 476 113 c 2,24,-1
 475 383 l 2,25,26
 475 466 475 466 424 508.5 c 128,-1,27
 373 551 373 551 288 551 c 0,28,29
 231 551 231 551 187 534 c 128,-1,30
 143 517 143 517 119 491.5 c 128,-1,31
 95 466 95 466 95 443 c 0,32,33
 95 423 95 423 123.5 406.5 c 128,-1,34
 152 390 152 390 183 390 c 0,35,36
 198 390 198 390 216 395 c 0,37,38
 236 399 236 399 243 399 c 0,39,40
 249 399 249 399 256 390 c 128,-1,41
 263 381 263 381 263 374 c 0,42,43
 263 368 263 368 257 368 c 0,44,45
 206 368 206 368 179 349.5 c 128,-1,46
 152 331 152 331 143 300 c 128,-1,47
 134 269 134 269 134 221 c 2,48,-1
 134 109 l 2,49,50
 134 70 134 70 152 48.5 c 128,-1,51
 170 27 170 27 201 27 c 0,52,53
 228 27 228 27 242.5 42 c 128,-1,54
 257 57 257 57 257 83 c 0,55,56
 257 108 257 108 243.5 122.5 c 128,-1,57
 230 137 230 137 206 137 c 256,58,59
 182 137 182 137 158 127 c 1,60,61
 156 133 156 133 156 136 c 0,62,63
 156 149 156 149 170 159 c 128,-1,64
 184 169 184 169 206 169 c 0,65,66
 242 169 242 169 267.5 147 c 128,-1,67
 293 125 293 125 293 83 c 0,68,69
 293 42 293 42 268 17.5 c 128,-1,70
 243 -7 243 -7 199 -7 c 0,71,72
 145 -7 145 -7 118.5 25 c 128,-1,73
 92 57 92 57 92 108 c 2,74,-1
 92 221 l 2,75,76
 92 274 92 274 105 307.5 c 128,-1,77
 118 341 118 341 145 362 c 1,78,79
 114 369 114 369 84.5 392 c 128,-1,80
 55 415 55 415 55 440 c 0,81,82
 55 473 55 473 82.5 507 c 128,-1,83
 110 541 110 541 163 563.5 c 128,-1,84
 216 586 216 586 288 586 c 0,85,86
 387 586 387 586 451 536.5 c 128,-1,87
 515 487 515 487 515 383 c 2,88,-1
 515 121 l 1,89,90
 550 172 550 172 602.5 200.5 c 128,-1,91
 655 229 655 229 717 229 c 0,92,93
 742 229 742 229 767 224 c 1,94,95
 808 260 808 260 808 315 c 2,96,-1
 808 576 l 1,97,-1
 848 576 l 1,98,-1
 848 310 l 2,99,100
 848 282 848 282 836 256.5 c 128,-1,101
 824 231 824 231 805 212 c 1,102,0
 843 196 843 196 864 166 c 128,-1,1
831.5 47.5 m 128,-1,104
 849 67 849 67 849 99 c 0,105,106
 849 130 849 130 829 152.5 c 128,-1,107
 809 175 809 175 774 186 c 1,108,109
 746 164 746 164 732 145 c 128,-1,110
 718 126 718 126 718 99 c 0,111,112
 718 66 718 66 734 47 c 128,-1,113
 750 28 750 28 782 28 c 256,114,103
 814 28 814 28 831.5 47.5 c 128,-1,104
EndSplineSet
EndChar

StartChar: uni0E14
Encoding: 3604 3604 455
Width: 622
GlyphClass: 2
Flags: W
AnchorPoint: "Anchor-12" 542 550 basechar 0
AnchorPoint: "Anchor-11" 542 0 basechar 0
LayerCount: 2
Fore
SplineSet
483.5 529 m 128,-1,1
 542 472 542 472 542 360 c 2,2,-1
 542 0 l 1,3,-1
 502 0 l 1,4,-1
 502 355 l 2,5,6
 502 445 502 445 456 497.5 c 128,-1,7
 410 550 410 550 310 550 c 0,8,9
 216 550 216 550 161.5 497 c 128,-1,10
 107 444 107 444 107 347 c 0,11,12
 107 277 107 277 126 229 c 128,-1,13
 145 181 145 181 184 145 c 1,14,15
 214 177 214 177 307 237 c 0,16,17
 336 256 336 256 347 275.5 c 128,-1,18
 358 295 358 295 358 321 c 0,19,20
 358 348 358 348 343.5 364 c 128,-1,21
 329 380 329 380 301 380 c 256,22,23
 273 380 273 380 257.5 364.5 c 128,-1,24
 242 349 242 349 242 324 c 0,25,26
 242 273 242 273 298 264 c 1,27,28
 296 245 296 245 271 245 c 0,29,30
 248 245 248 245 227 267 c 128,-1,31
 206 289 206 289 206 323 c 0,32,33
 206 362 206 362 233 388 c 128,-1,34
 260 414 260 414 301 414 c 0,35,36
 344 414 344 414 370 387 c 128,-1,37
 396 360 396 360 396 323 c 256,38,39
 396 286 396 286 379 259 c 128,-1,40
 362 232 362 232 327 209 c 0,41,42
 264 167 264 167 230 139.5 c 128,-1,43
 196 112 196 112 175 78 c 128,-1,44
 154 44 154 44 154 0 c 1,45,-1
 123 0 l 2,46,47
 118 0 118 0 115 2 c 128,-1,48
 112 4 112 4 112 11 c 0,49,50
 112 36 112 36 121 55 c 128,-1,51
 130 74 130 74 144 94 c 0,52,53
 154 107 154 107 154 113 c 0,54,55
 154 116 154 116 130 143.5 c 128,-1,56
 106 171 106 171 85.5 222 c 128,-1,57
 65 273 65 273 65 347 c 0,58,59
 65 419 65 419 95.5 473 c 128,-1,60
 126 527 126 527 181.5 556.5 c 128,-1,61
 237 586 237 586 310 586 c 0,62,0
 425 586 425 586 483.5 529 c 128,-1,1
EndSplineSet
EndChar

StartChar: uni0E15
Encoding: 3605 3605 456
Width: 630
GlyphClass: 2
Flags: W
AnchorPoint: "Anchor-12" 550 550 basechar 0
AnchorPoint: "Anchor-11" 550 0 basechar 0
LayerCount: 2
Fore
SplineSet
517 515.5 m 128,-1,1
 550 467 550 467 550 377 c 2,2,-1
 550 0 l 1,3,-1
 508 0 l 1,4,-1
 508 370 l 2,5,6
 508 453 508 453 482.5 492.5 c 128,-1,7
 457 532 457 532 406 546 c 1,8,9
 396 538 396 538 350 508 c 2,10,-1
 316 487 l 1,11,-1
 286 505 l 2,12,13
 240 533 240 533 223 546 c 1,14,15
 170 530 170 530 138.5 479.5 c 128,-1,16
 107 429 107 429 107 343 c 0,17,18
 107 277 107 277 127.5 230 c 128,-1,19
 148 183 148 183 187 142 c 1,20,21
 206 158 206 158 265 195 c 2,22,-1
 315 227 l 2,23,24
 345 246 345 246 356.5 265.5 c 128,-1,25
 368 285 368 285 368 311 c 0,26,27
 368 340 368 340 353 356.5 c 128,-1,28
 338 373 338 373 307 373 c 256,29,30
 276 373 276 373 261 356.5 c 128,-1,31
 246 340 246 340 246 314 c 0,32,33
 246 289 246 289 259.5 272.5 c 128,-1,34
 273 256 273 256 300 252 c 1,35,36
 298 233 298 233 273 233 c 0,37,38
 249 233 249 233 229.5 254.5 c 128,-1,39
 210 276 210 276 210 313 c 0,40,41
 210 355 210 355 237 381 c 128,-1,42
 264 407 264 407 307 407 c 0,43,44
 352 407 352 407 379 379.5 c 128,-1,45
 406 352 406 352 406 313 c 0,46,47
 406 275 406 275 388 249 c 128,-1,48
 370 223 370 223 334 199 c 2,49,-1
 303 178 l 2,50,51
 249 144 249 144 220 121 c 128,-1,52
 191 98 191 98 173.5 68.5 c 128,-1,53
 156 39 156 39 156 0 c 1,54,-1
 127 0 l 2,55,56
 122 0 122 0 119 2 c 128,-1,57
 116 4 116 4 116 11 c 0,58,59
 116 30 116 30 124 48.5 c 128,-1,60
 132 67 132 67 145 89 c 0,61,62
 157 108 157 108 157 113 c 0,63,64
 157 116 157 116 151 122.5 c 128,-1,65
 145 129 145 129 144 131 c 0,66,67
 111 169 111 169 88 216 c 128,-1,68
 65 263 65 263 65 342 c 0,69,70
 65 435 65 435 105.5 498 c 128,-1,71
 146 561 146 561 224 586 c 1,72,73
 236 578 236 578 260 564 c 0,74,75
 298 542 298 542 316 528 c 1,76,77
 327 538 327 538 364 560 c 0,78,79
 384 571 384 571 405 586 c 1,80,0
 484 564 484 564 517 515.5 c 128,-1,1
EndSplineSet
EndChar

StartChar: uni0E16
Encoding: 3606 3606 457
Width: 615
GlyphClass: 2
Flags: W
AnchorPoint: "Anchor-12" 535 550 basechar 0
AnchorPoint: "Anchor-11" 535 0 basechar 0
LayerCount: 2
Fore
SplineSet
466.5 536 m 128,-1,1
 535 486 535 486 535 383 c 2,2,-1
 535 0 l 1,3,-1
 493 0 l 1,4,-1
 493 383 l 2,5,6
 493 465 493 465 438.5 507.5 c 128,-1,7
 384 550 384 550 298 550 c 0,8,9
 240 550 240 550 194 533 c 128,-1,10
 148 516 148 516 122.5 491 c 128,-1,11
 97 466 97 466 97 443 c 0,12,13
 97 423 97 423 124.5 407 c 128,-1,14
 152 391 152 391 183 391 c 0,15,16
 194 391 194 391 216 395 c 0,17,18
 236 399 236 399 243 399 c 0,19,20
 249 399 249 399 256 388 c 128,-1,21
 263 377 263 377 263 368 c 0,22,23
 263 361 263 361 257 361 c 0,24,25
 206 361 206 361 179 344 c 128,-1,26
 152 327 152 327 143 297.5 c 128,-1,27
 134 268 134 268 134 221 c 2,28,-1
 134 109 l 2,29,30
 134 70 134 70 152 48.5 c 128,-1,31
 170 27 170 27 201 27 c 0,32,33
 228 27 228 27 242.5 42 c 128,-1,34
 257 57 257 57 257 83 c 0,35,36
 257 108 257 108 243.5 122.5 c 128,-1,37
 230 137 230 137 206 137 c 256,38,39
 182 137 182 137 158 127 c 1,40,41
 156 133 156 133 156 136 c 0,42,43
 156 149 156 149 170 159 c 128,-1,44
 184 169 184 169 206 169 c 0,45,46
 242 169 242 169 267.5 147 c 128,-1,47
 293 125 293 125 293 83 c 0,48,49
 293 42 293 42 268 17.5 c 128,-1,50
 243 -7 243 -7 199 -7 c 0,51,52
 145 -7 145 -7 118.5 25 c 128,-1,53
 92 57 92 57 92 108 c 2,54,-1
 92 221 l 2,55,56
 92 272 92 272 104 305.5 c 128,-1,57
 116 339 116 339 142 360 c 1,58,59
 112 368 112 368 83.5 392 c 128,-1,60
 55 416 55 416 55 440 c 0,61,62
 55 472 55 472 85 506.5 c 128,-1,63
 115 541 115 541 170.5 563.5 c 128,-1,64
 226 586 226 586 298 586 c 0,65,0
 398 586 398 586 466.5 536 c 128,-1,1
EndSplineSet
EndChar

StartChar: uni0E17
Encoding: 3607 3607 458
Width: 665
GlyphClass: 2
Flags: W
AnchorPoint: "Anchor-12" 585 550 basechar 0
AnchorPoint: "Anchor-11" 585 0 basechar 0
LayerCount: 2
Fore
SplineSet
554.5 553.5 m 128,-1,1
 585 521 585 521 585 459 c 2,2,-1
 585 0 l 1,3,-1
 543 0 l 1,4,-1
 543 455 l 2,5,6
 543 503 543 503 525 525.5 c 128,-1,7
 507 548 507 548 466 548 c 0,8,9
 420 548 420 548 391 513.5 c 128,-1,10
 362 479 362 479 333 407 c 2,11,-1
 324 386 l 2,12,13
 287 295 287 295 269.5 246.5 c 128,-1,14
 252 198 252 198 241 148 c 128,-1,15
 230 98 230 98 229 42 c 2,16,-1
 228 0 l 1,17,-1
 197 0 l 2,18,19
 191 0 191 0 189 3 c 128,-1,20
 187 6 187 6 187 13 c 0,21,22
 187 26 187 26 188 36 c 2,23,-1
 189 92 l 1,24,-1
 189 477 l 2,25,26
 189 514 189 514 174 533 c 128,-1,27
 159 552 159 552 131 552 c 0,28,29
 105 552 105 552 90.5 538.5 c 128,-1,30
 76 525 76 525 76 501 c 0,31,32
 76 476 76 476 90 462.5 c 128,-1,33
 104 449 104 449 129 449 c 2,34,-1
 153 449 l 1,35,36
 151 417 151 417 112 417 c 0,37,38
 86 417 86 417 63 440 c 128,-1,39
 40 463 40 463 40 501 c 0,40,41
 40 537 40 537 66 561.5 c 128,-1,42
 92 586 92 586 131 586 c 0,43,44
 177 586 177 586 204 558.5 c 128,-1,45
 231 531 231 531 231 480 c 2,46,-1
 231 243 l 1,47,48
 263 333 263 333 301 425 c 0,49,50
 334 504 334 504 370 545 c 128,-1,51
 406 586 406 586 468 586 c 0,52,0
 524 586 524 586 554.5 553.5 c 128,-1,1
EndSplineSet
EndChar

StartChar: uni0E18
Encoding: 3608 3608 459
Width: 590
GlyphClass: 2
Flags: W
AnchorPoint: "Anchor-12" 490 550 basechar 0
AnchorPoint: "Anchor-11" 470 0 basechar 0
LayerCount: 2
Fore
SplineSet
179.5 5.5 m 128,-1,1
 139 20 139 20 119.5 54.5 c 128,-1,2
 100 89 100 89 100 150 c 2,3,-1
 100 264 l 1,4,5
 112 268 112 268 122 268 c 0,6,7
 130 268 130 268 136 262.5 c 128,-1,8
 142 257 142 257 142 248 c 2,9,-1
 142 154 l 2,10,11
 142 105 142 105 155 78.5 c 128,-1,12
 168 52 168 52 199 40.5 c 128,-1,13
 230 29 230 29 289 29 c 0,14,15
 349 29 349 29 383.5 39.5 c 128,-1,16
 418 50 418 50 433.5 75 c 128,-1,17
 449 100 449 100 449 146 c 2,18,-1
 449 227 l 2,19,20
 449 276 449 276 429 299.5 c 128,-1,21
 409 323 409 323 367 327 c 0,22,23
 256 337 256 337 110 337 c 1,24,25
 93 352 93 352 82.5 382 c 128,-1,26
 72 412 72 412 72 442 c 0,27,28
 72 510 72 510 112 546 c 128,-1,29
 152 582 152 582 221 582 c 0,30,31
 246 582 246 582 318 575 c 0,32,33
 376 569 376 569 399 569 c 0,34,35
 430 569 430 569 452 575 c 128,-1,36
 474 581 474 581 495 595 c 1,37,38
 501 591 501 591 505.5 582.5 c 128,-1,39
 510 574 510 574 510 565 c 0,40,41
 510 550 510 550 482 539.5 c 128,-1,42
 454 529 454 529 416 529 c 0,43,44
 394 529 394 529 365.5 532 c 128,-1,45
 337 535 337 535 327 536 c 0,46,47
 266 545 266 545 221 545 c 0,48,49
 114 545 114 545 114 443 c 0,50,51
 114 403 114 403 132 377 c 1,52,53
 266 377 266 377 373 364 c 0,54,55
 429 357 429 357 460 327 c 128,-1,56
 491 297 491 297 491 227 c 2,57,-1
 491 150 l 2,58,59
 491 88 491 88 468.5 53.5 c 128,-1,60
 446 19 446 19 402.5 5 c 128,-1,61
 359 -9 359 -9 289 -9 c 0,62,0
 220 -9 220 -9 179.5 5.5 c 128,-1,1
EndSplineSet
EndChar

StartChar: uni0E19
Encoding: 3609 3609 460
Width: 637
GlyphClass: 2
Flags: W
AnchorPoint: "Anchor-12" 557 550 basechar 0
AnchorPoint: "Anchor-11" 557 0 basechar 0
LayerCount: 2
Fore
SplineSet
573 167 m 128,-1,1
 594 138 594 138 594 95 c 0,2,3
 594 49 594 49 565 22.5 c 128,-1,4
 536 -4 536 -4 491 -4 c 0,5,6
 447 -4 447 -4 420 22 c 128,-1,7
 393 48 393 48 393 95 c 0,8,9
 393 127 393 127 406 148 c 128,-1,10
 419 169 419 169 443 193 c 1,11,12
 433 194 433 194 413 194 c 0,13,14
 369 194 369 194 321.5 165.5 c 128,-1,15
 274 137 274 137 242.5 92 c 128,-1,16
 211 47 211 47 211 0 c 1,17,-1
 186 0 l 2,18,19
 166 0 166 0 166 20 c 0,20,21
 166 31 166 31 167 40 c 0,22,23
 170 91 170 91 170 113 c 2,24,-1
 169 477 l 2,25,26
 169 514 169 514 154 533 c 128,-1,27
 139 552 139 552 111 552 c 0,28,29
 85 552 85 552 70.5 538.5 c 128,-1,30
 56 525 56 525 56 501 c 0,31,32
 56 476 56 476 70 462.5 c 128,-1,33
 84 449 84 449 109 449 c 2,34,-1
 133 449 l 1,35,36
 131 417 131 417 92 417 c 0,37,38
 66 417 66 417 43 440 c 128,-1,39
 20 463 20 463 20 501 c 0,40,41
 20 537 20 537 46 561.5 c 128,-1,42
 72 586 72 586 111 586 c 0,43,44
 157 586 157 586 184 558.5 c 128,-1,45
 211 531 211 531 211 480 c 2,46,-1
 211 115 l 1,47,48
 248 168 248 168 301 199 c 128,-1,49
 354 230 354 230 416 230 c 0,50,51
 449 230 449 230 477 224 c 1,52,53
 495 242 495 242 505 262 c 128,-1,54
 515 282 515 282 515 309 c 2,55,-1
 515 576 l 1,56,-1
 557 576 l 1,57,-1
 557 304 l 2,58,59
 557 276 557 276 545.5 254 c 128,-1,60
 534 232 534 232 514 212 c 1,61,0
 552 196 552 196 573 167 c 128,-1,1
539 48 m 128,-1,63
 556 67 556 67 556 99 c 0,64,65
 556 163 556 163 485 185 c 1,66,67
 456 159 456 159 442.5 141 c 128,-1,68
 429 123 429 123 429 99 c 0,69,70
 429 68 429 68 445 48.5 c 128,-1,71
 461 29 461 29 491 29 c 0,72,62
 522 29 522 29 539 48 c 128,-1,63
EndSplineSet
EndChar

StartChar: uni0E1A
Encoding: 3610 3610 461
Width: 665
GlyphClass: 2
Flags: W
AnchorPoint: "Anchor-12" 585 550 basechar 0
AnchorPoint: "Anchor-11" 585 0 basechar 0
LayerCount: 2
Fore
SplineSet
201 46 m 0,1,2
 179 65 179 65 174 91.5 c 128,-1,3
 169 118 169 118 169 180 c 2,4,-1
 169 477 l 2,5,6
 169 514 169 514 154 533 c 128,-1,7
 139 552 139 552 111 552 c 0,8,9
 85 552 85 552 70.5 538.5 c 128,-1,10
 56 525 56 525 56 501 c 0,11,12
 56 476 56 476 70 462.5 c 128,-1,13
 84 449 84 449 109 449 c 2,14,-1
 133 449 l 1,15,16
 131 417 131 417 92 417 c 0,17,18
 66 417 66 417 43 440 c 128,-1,19
 20 463 20 463 20 501 c 0,20,21
 20 537 20 537 46 561.5 c 128,-1,22
 72 586 72 586 111 586 c 0,23,24
 157 586 157 586 184 558.5 c 128,-1,25
 211 531 211 531 211 480 c 2,26,-1
 211 190 l 2,27,28
 211 130 211 130 214 106.5 c 128,-1,29
 217 83 217 83 229 71 c 0,30,31
 250 52 250 52 288 39.5 c 128,-1,32
 326 27 326 27 377 27 c 256,33,34
 428 27 428 27 466 39.5 c 128,-1,35
 504 52 504 52 525 71 c 0,36,37
 537 83 537 83 540 106.5 c 128,-1,38
 543 130 543 130 543 190 c 2,39,-1
 543 576 l 1,40,-1
 585 576 l 1,41,-1
 585 180 l 2,42,43
 585 118 585 118 580 91.5 c 128,-1,44
 575 65 575 65 553 46 c 0,45,46
 490 -9 490 -9 377 -9 c 256,47,0
 264 -9 264 -9 201 46 c 0,1,2
EndSplineSet
EndChar

StartChar: uni0E1B
Encoding: 3611 3611 462
Width: 665
GlyphClass: 2
Flags: W
AnchorPoint: "Anchor-12" 458 550 basechar 0
AnchorPoint: "Anchor-11" 585 0 basechar 0
LayerCount: 2
Fore
SplineSet
201 46 m 0,1,2
 179 65 179 65 174 91.5 c 128,-1,3
 169 118 169 118 169 180 c 2,4,-1
 169 477 l 2,5,6
 169 514 169 514 154 533 c 128,-1,7
 139 552 139 552 111 552 c 0,8,9
 85 552 85 552 70.5 538.5 c 128,-1,10
 56 525 56 525 56 501 c 0,11,12
 56 476 56 476 70 462.5 c 128,-1,13
 84 449 84 449 109 449 c 2,14,-1
 133 449 l 1,15,16
 131 417 131 417 92 417 c 0,17,18
 66 417 66 417 43 440 c 128,-1,19
 20 463 20 463 20 501 c 0,20,21
 20 537 20 537 46 561.5 c 128,-1,22
 72 586 72 586 111 586 c 0,23,24
 157 586 157 586 184 558.5 c 128,-1,25
 211 531 211 531 211 480 c 2,26,-1
 211 190 l 2,27,28
 211 130 211 130 214 106.5 c 128,-1,29
 217 83 217 83 229 71 c 0,30,31
 250 52 250 52 288 39.5 c 128,-1,32
 326 27 326 27 377 27 c 256,33,34
 428 27 428 27 466 39.5 c 128,-1,35
 504 52 504 52 525 71 c 0,36,37
 537 83 537 83 540 106.5 c 128,-1,38
 543 130 543 130 543 190 c 2,39,-1
 543 783 l 1,40,-1
 585 783 l 1,41,-1
 585 180 l 2,42,43
 585 118 585 118 580 91.5 c 128,-1,44
 575 65 575 65 553 46 c 0,45,46
 490 -9 490 -9 377 -9 c 256,47,0
 264 -9 264 -9 201 46 c 0,1,2
EndSplineSet
EndChar

StartChar: uni0E1C
Encoding: 3612 3612 463
Width: 624
GlyphClass: 2
Flags: W
AnchorPoint: "Anchor-12" 540 550 basechar 0
AnchorPoint: "Anchor-11" 540 0 basechar 0
LayerCount: 2
Fore
SplineSet
543 49 m 2,1,-1
 544 22 l 2,2,3
 544 9 544 9 540.5 4.5 c 128,-1,4
 537 0 537 0 529 0 c 2,5,-1
 498 0 l 1,6,-1
 498 14 l 2,7,8
 498 65 498 65 441.5 140 c 128,-1,9
 385 215 385 215 313 273 c 1,10,11
 238 216 238 216 178 140.5 c 128,-1,12
 118 65 118 65 118 14 c 2,13,-1
 118 0 l 1,14,-1
 83 0 l 2,15,16
 76 0 76 0 73.5 2.5 c 128,-1,17
 71 5 71 5 71 11 c 256,18,19
 71 17 71 17 73 37 c 0,20,21
 76 85 76 85 76 105 c 2,22,-1
 76 472 l 2,23,24
 76 524 76 524 107.5 555 c 128,-1,25
 139 586 139 586 186 586 c 0,26,27
 230 586 230 586 256 561.5 c 128,-1,28
 282 537 282 537 282 497 c 0,29,30
 282 456 282 456 256 431.5 c 128,-1,31
 230 407 230 407 193 407 c 0,32,33
 170 407 170 407 154 422 c 128,-1,34
 138 437 138 437 142 452 c 1,35,36
 158 439 158 439 193 439 c 0,37,38
 219 439 219 439 232.5 454.5 c 128,-1,39
 246 470 246 470 246 497 c 0,40,41
 246 552 246 552 186 552 c 0,42,43
 154 552 154 552 136 532 c 128,-1,44
 118 512 118 512 118 471 c 2,45,-1
 118 118 l 1,46,47
 150 169 150 169 205 226 c 128,-1,48
 260 283 260 283 309 317 c 1,49,-1
 315 317 l 1,50,51
 362 286 362 286 413 231.5 c 128,-1,52
 464 177 464 177 498 125 c 1,53,-1
 498 576 l 1,54,-1
 540 576 l 1,55,-1
 540 132 l 2,56,0
 540 94 540 94 543 49 c 2,1,-1
EndSplineSet
EndChar

StartChar: uni0E1D
Encoding: 3613 3613 464
Width: 624
GlyphClass: 2
Flags: W
AnchorPoint: "Anchor-12" 417 550 basechar 0
AnchorPoint: "Anchor-11" 540 0 basechar 0
LayerCount: 2
Fore
SplineSet
543 49 m 2,1,-1
 544 22 l 2,2,3
 544 9 544 9 540.5 4.5 c 128,-1,4
 537 0 537 0 529 0 c 2,5,-1
 498 0 l 1,6,-1
 498 14 l 2,7,8
 498 65 498 65 441.5 140 c 128,-1,9
 385 215 385 215 313 273 c 1,10,11
 238 216 238 216 178 140.5 c 128,-1,12
 118 65 118 65 118 14 c 2,13,-1
 118 0 l 1,14,-1
 83 0 l 2,15,16
 76 0 76 0 73.5 2.5 c 128,-1,17
 71 5 71 5 71 11 c 256,18,19
 71 17 71 17 73 37 c 0,20,21
 76 85 76 85 76 105 c 2,22,-1
 76 472 l 2,23,24
 76 524 76 524 107.5 555 c 128,-1,25
 139 586 139 586 186 586 c 0,26,27
 230 586 230 586 256 561.5 c 128,-1,28
 282 537 282 537 282 497 c 0,29,30
 282 456 282 456 256 431.5 c 128,-1,31
 230 407 230 407 193 407 c 0,32,33
 170 407 170 407 154 422 c 128,-1,34
 138 437 138 437 142 452 c 1,35,36
 158 439 158 439 193 439 c 0,37,38
 219 439 219 439 232.5 454.5 c 128,-1,39
 246 470 246 470 246 497 c 0,40,41
 246 552 246 552 186 552 c 0,42,43
 154 552 154 552 136 532 c 128,-1,44
 118 512 118 512 118 471 c 2,45,-1
 118 118 l 1,46,47
 150 169 150 169 205 226 c 128,-1,48
 260 283 260 283 309 317 c 1,49,-1
 315 317 l 1,50,51
 362 286 362 286 413 231.5 c 128,-1,52
 464 177 464 177 498 125 c 1,53,-1
 498 783 l 1,54,-1
 540 783 l 1,55,-1
 540 132 l 2,56,0
 540 94 540 94 543 49 c 2,1,-1
EndSplineSet
EndChar

StartChar: uni0E1E
Encoding: 3614 3614 465
Width: 718
GlyphClass: 2
Flags: W
AnchorPoint: "Anchor-12" 634 550 basechar 0
AnchorPoint: "Anchor-11" 634 0 basechar 0
LayerCount: 2
Fore
SplineSet
638 11 m 0,1,2
 638 4 638 4 635 2 c 128,-1,3
 632 0 632 0 627 0 c 2,4,-1
 593 0 l 1,5,-1
 593 14 l 2,6,7
 593 77 593 77 536 204.5 c 128,-1,8
 479 332 479 332 410 458 c 1,9,10
 347 347 347 347 288.5 212 c 128,-1,11
 230 77 230 77 230 14 c 2,12,-1
 230 0 l 1,13,-1
 193 0 l 2,14,15
 188 0 188 0 185 2 c 128,-1,16
 182 4 182 4 182 11 c 0,17,18
 182 16 182 16 183 20 c 0,19,20
 187 42 187 42 188 66.5 c 128,-1,21
 189 91 189 91 189 190 c 2,22,-1
 189 477 l 2,23,24
 189 514 189 514 174 533 c 128,-1,25
 159 552 159 552 131 552 c 0,26,27
 105 552 105 552 90.5 538.5 c 128,-1,28
 76 525 76 525 76 501 c 0,29,30
 76 476 76 476 90 462.5 c 128,-1,31
 104 449 104 449 129 449 c 2,32,-1
 153 449 l 1,33,34
 151 417 151 417 112 417 c 0,35,36
 86 417 86 417 63 440 c 128,-1,37
 40 463 40 463 40 501 c 0,38,39
 40 537 40 537 66 561.5 c 128,-1,40
 92 586 92 586 131 586 c 0,41,42
 177 586 177 586 204 558.5 c 128,-1,43
 231 531 231 531 231 480 c 2,44,-1
 231 173 l 1,45,46
 280 312 280 312 399 520 c 1,47,-1
 417 520 l 1,48,49
 462 445 462 445 512 349.5 c 128,-1,50
 562 254 562 254 592 173 c 1,51,-1
 592 576 l 1,52,-1
 634 576 l 1,53,-1
 634 190 l 1,54,-1
 633 95 l 2,55,56
 633 40 633 40 637 20 c 0,57,0
 638 16 638 16 638 11 c 0,1,2
EndSplineSet
EndChar

StartChar: uni0E1F
Encoding: 3615 3615 466
Width: 718
GlyphClass: 2
Flags: W
AnchorPoint: "Anchor-12" 511 550 basechar 0
AnchorPoint: "Anchor-11" 634 0 basechar 0
LayerCount: 2
Fore
SplineSet
638 11 m 0,1,2
 638 4 638 4 635 2 c 128,-1,3
 632 0 632 0 627 0 c 2,4,-1
 593 0 l 1,5,-1
 593 14 l 2,6,7
 593 77 593 77 536 204.5 c 128,-1,8
 479 332 479 332 410 458 c 1,9,10
 347 347 347 347 288.5 212 c 128,-1,11
 230 77 230 77 230 14 c 2,12,-1
 230 0 l 1,13,-1
 193 0 l 2,14,15
 188 0 188 0 185 2 c 128,-1,16
 182 4 182 4 182 11 c 0,17,18
 182 16 182 16 183 20 c 0,19,20
 187 42 187 42 188 66.5 c 128,-1,21
 189 91 189 91 189 190 c 2,22,-1
 189 477 l 2,23,24
 189 514 189 514 174 533 c 128,-1,25
 159 552 159 552 131 552 c 0,26,27
 105 552 105 552 90.5 538.5 c 128,-1,28
 76 525 76 525 76 501 c 0,29,30
 76 476 76 476 90 462.5 c 128,-1,31
 104 449 104 449 129 449 c 2,32,-1
 153 449 l 1,33,34
 151 417 151 417 112 417 c 0,35,36
 86 417 86 417 63 440 c 128,-1,37
 40 463 40 463 40 501 c 0,38,39
 40 537 40 537 66 561.5 c 128,-1,40
 92 586 92 586 131 586 c 0,41,42
 177 586 177 586 204 558.5 c 128,-1,43
 231 531 231 531 231 480 c 2,44,-1
 231 173 l 1,45,46
 280 312 280 312 399 520 c 1,47,-1
 417 520 l 1,48,49
 462 445 462 445 512 349.5 c 128,-1,50
 562 254 562 254 592 173 c 1,51,-1
 592 783 l 1,52,-1
 634 783 l 1,53,-1
 634 190 l 1,54,-1
 633 95 l 2,55,56
 633 40 633 40 637 20 c 0,57,0
 638 16 638 16 638 11 c 0,1,2
EndSplineSet
EndChar

StartChar: uni0E20
Encoding: 3616 3616 467
Width: 630
GlyphClass: 2
Flags: W
AnchorPoint: "Anchor-12" 550 550 basechar 0
AnchorPoint: "Anchor-11" 550 0 basechar 0
LayerCount: 2
Fore
SplineSet
484 534.5 m 128,-1,1
 550 483 550 483 550 366 c 2,2,-1
 550 0 l 1,3,-1
 508 0 l 1,4,-1
 508 366 l 2,5,6
 508 470 508 470 456.5 510 c 128,-1,7
 405 550 405 550 314 550 c 0,8,9
 258 550 258 550 211.5 536.5 c 128,-1,10
 165 523 165 523 138 501.5 c 128,-1,11
 111 480 111 480 111 458 c 0,12,13
 111 437 111 437 130.5 421 c 128,-1,14
 150 405 150 405 173.5 396 c 128,-1,15
 197 387 197 387 206 387 c 0,16,17
 216 387 216 387 231 392 c 0,18,19
 253 398 253 398 265 398 c 0,20,21
 272 398 272 398 276.5 388.5 c 128,-1,22
 281 379 281 379 281.5 368.5 c 128,-1,23
 282 358 282 358 279 358 c 0,24,25
 226 358 226 358 201.5 342 c 128,-1,26
 177 326 177 326 177 273 c 0,27,28
 177 245 177 245 180.5 223.5 c 128,-1,29
 184 202 184 202 192 169 c 0,30,31
 205 121 205 121 205 89 c 0,32,33
 205 47 205 47 178.5 19.5 c 128,-1,34
 152 -8 152 -8 107 -8 c 0,35,36
 66 -8 66 -8 41 16.5 c 128,-1,37
 16 41 16 41 16 80 c 0,38,39
 16 118 16 118 39.5 140.5 c 128,-1,40
 63 163 63 163 91 163 c 0,41,42
 109 163 109 163 119 155.5 c 128,-1,43
 129 148 129 148 129 133 c 1,44,-1
 110 133 l 2,45,46
 82 133 82 133 67 119 c 128,-1,47
 52 105 52 105 52 80 c 0,48,49
 52 54 52 54 66.5 40 c 128,-1,50
 81 26 81 26 107 26 c 0,51,52
 135 26 135 26 150 43 c 128,-1,53
 165 60 165 60 165 91 c 0,54,55
 165 112 165 112 160.5 133.5 c 128,-1,56
 156 155 156 155 151 176 c 0,57,58
 143 205 143 205 139 227.5 c 128,-1,59
 135 250 135 250 135 275 c 0,60,61
 135 327 135 327 169 359 c 1,62,63
 130 372 130 372 97.5 398.5 c 128,-1,64
 65 425 65 425 65 455 c 0,65,66
 65 487 65 487 97 517.5 c 128,-1,67
 129 548 129 548 186 567 c 128,-1,68
 243 586 243 586 314 586 c 0,69,0
 418 586 418 586 484 534.5 c 128,-1,1
EndSplineSet
EndChar

StartChar: uni0E21
Encoding: 3617 3617 468
Width: 657
GlyphClass: 2
Flags: W
AnchorPoint: "Anchor-12" 560 550 basechar 0
AnchorPoint: "Anchor-11" 560 0 basechar 0
LayerCount: 2
Fore
SplineSet
561.5 52.5 m 128,-1,1
 563 24 563 24 563 18 c 0,2,3
 563 8 563 8 560 4 c 128,-1,4
 557 0 557 0 549 0 c 2,5,-1
 520 0 l 1,6,7
 491 105 491 105 422 158 c 128,-1,8
 353 211 353 211 252 217 c 1,9,-1
 253 165 l 2,10,11
 255 110 255 110 254 91 c 0,12,13
 251 -9 251 -9 166 -9 c 0,14,15
 124 -9 124 -9 97 22.5 c 128,-1,16
 70 54 70 54 70 108 c 0,17,18
 70 172 70 172 109 208.5 c 128,-1,19
 148 245 148 245 209 251 c 1,20,-1
 209 300 l 1,21,-1
 209 477 l 2,22,23
 209 514 209 514 194 533 c 128,-1,24
 179 552 179 552 151 552 c 0,25,26
 125 552 125 552 110.5 538.5 c 128,-1,27
 96 525 96 525 96 501 c 0,28,29
 96 476 96 476 110 462.5 c 128,-1,30
 124 449 124 449 149 449 c 2,31,-1
 173 449 l 1,32,33
 171 417 171 417 132 417 c 0,34,35
 106 417 106 417 83 440 c 128,-1,36
 60 463 60 463 60 501 c 0,37,38
 60 537 60 537 86 561.5 c 128,-1,39
 112 586 112 586 151 586 c 0,40,41
 197 586 197 586 224 558.5 c 128,-1,42
 251 531 251 531 251 480 c 2,43,-1
 251 253 l 1,44,45
 333 253 333 253 404 214.5 c 128,-1,46
 475 176 475 176 518 108 c 1,47,-1
 518 576 l 1,48,-1
 560 576 l 1,49,-1
 560 124 l 2,50,0
 560 81 560 81 561.5 52.5 c 128,-1,1
200 41.5 m 128,-1,52
 211 57 211 57 211 92 c 2,53,-1
 210 214 l 1,54,55
 159 209 159 209 135.5 184 c 128,-1,56
 112 159 112 159 112 111 c 0,57,58
 112 70 112 70 125 48 c 128,-1,59
 138 26 138 26 164 26 c 0,60,51
 189 26 189 26 200 41.5 c 128,-1,52
EndSplineSet
EndChar

StartChar: uni0E22
Encoding: 3618 3618 469
Width: 610
GlyphClass: 2
Flags: W
AnchorPoint: "Anchor-12" 529 550 basechar 0
AnchorPoint: "Anchor-11" 529 0 basechar 0
LayerCount: 2
Fore
SplineSet
530 203 m 2,0,1
 530 141 530 141 522 106 c 128,-1,2
 514 71 514 71 490 49 c 0,3,4
 456 20 456 20 408 5.5 c 128,-1,5
 360 -9 360 -9 309 -9 c 0,6,7
 256 -9 256 -9 204.5 4 c 128,-1,8
 153 17 153 17 121 47 c 0,9,10
 99 68 99 68 89 97.5 c 128,-1,11
 79 127 79 127 79 172 c 2,12,-1
 79 181 l 2,13,14
 79 228 79 228 101 257.5 c 128,-1,15
 123 287 123 287 154 302 c 1,16,17
 120 319 120 319 95 355 c 128,-1,18
 70 391 70 391 70 446 c 0,19,20
 70 506 70 506 107.5 546 c 128,-1,21
 145 586 145 586 201 586 c 0,22,23
 247 586 247 586 274 560.5 c 128,-1,24
 301 535 301 535 301 495 c 0,25,26
 301 456 301 456 276 432 c 128,-1,27
 251 408 251 408 215 408 c 0,28,29
 194 408 194 408 177.5 416.5 c 128,-1,30
 161 425 161 425 153.5 438.5 c 128,-1,31
 146 452 146 452 149 465 c 1,32,33
 174 440 174 440 208 440 c 0,34,35
 235 440 235 440 249.5 454 c 128,-1,36
 264 468 264 468 264 495 c 0,37,38
 264 552 264 552 203 552 c 0,39,40
 159 552 159 552 135.5 524.5 c 128,-1,41
 112 497 112 497 112 444 c 0,42,43
 112 372 112 372 160 341.5 c 128,-1,44
 208 311 208 311 318 311 c 0,45,46
 323 311 323 311 321.5 301.5 c 128,-1,47
 320 292 320 292 314 283 c 128,-1,48
 308 274 308 274 302 274 c 0,49,50
 293 274 293 274 284.5 275 c 128,-1,51
 276 276 276 276 267 277 c 0,52,53
 222 282 222 282 208 282 c 0,54,55
 170 282 170 282 145.5 256.5 c 128,-1,56
 121 231 121 231 121 184 c 2,57,-1
 121 171 l 2,58,59
 121 136 121 136 127.5 113.5 c 128,-1,60
 134 91 134 91 149 75 c 0,61,62
 169 54 169 54 211 40.5 c 128,-1,63
 253 27 253 27 309 27 c 0,64,65
 364 27 364 27 402.5 41 c 128,-1,66
 441 55 441 55 463 78 c 0,67,68
 478 94 478 94 482.5 122 c 128,-1,69
 487 150 487 150 487 201 c 2,70,-1
 487 284 l 1,71,-1
 487 576 l 1,72,-1
 529 576 l 1,73,-1
 529 284 l 1,74,-1
 530 203 l 2,0,1
EndSplineSet
EndChar

StartChar: uni0E23
Encoding: 3619 3619 470
Width: 508
GlyphClass: 2
Flags: W
AnchorPoint: "Anchor-12" 432 550 basechar 0
AnchorPoint: "Anchor-11" 411 0 basechar 0
LayerCount: 2
Fore
SplineSet
218.5 19 m 128,-1,1
 189 47 189 47 189 90 c 0,2,3
 189 134 189 134 216.5 160.5 c 128,-1,4
 244 187 244 187 284 187 c 0,5,6
 310 187 310 187 322.5 176 c 128,-1,7
 335 165 335 165 333 151 c 1,8,9
 305 155 305 155 291 155 c 0,10,11
 261 155 261 155 243 138 c 128,-1,12
 225 121 225 121 225 90 c 0,13,14
 225 60 225 60 243.5 42.5 c 128,-1,15
 262 25 262 25 292 25 c 0,16,17
 329 25 329 25 348.5 49 c 128,-1,18
 368 73 368 73 368 118 c 2,19,-1
 368 210 l 2,20,21
 368 255 368 255 360 280 c 128,-1,22
 352 305 352 305 333.5 318 c 128,-1,23
 315 331 315 331 281 339 c 0,24,25
 235 350 235 350 154 350 c 2,26,-1
 77 349 l 1,27,28
 62 364 62 364 52.5 389 c 128,-1,29
 43 414 43 414 43 441 c 0,30,31
 43 507 43 507 85.5 544.5 c 128,-1,32
 128 582 128 582 190 582 c 0,33,34
 228 582 228 582 288 574 c 0,35,36
 338 568 338 568 354 568 c 0,37,38
 421 568 421 568 446 595 c 1,39,40
 461 586 461 586 461 574 c 0,41,42
 461 555 461 555 432 542.5 c 128,-1,43
 403 530 403 530 357 530 c 0,44,45
 328 530 328 530 274 538 c 256,46,47
 220 546 220 546 190 546 c 0,48,49
 140 546 140 546 112.5 520.5 c 128,-1,50
 85 495 85 495 85 442 c 0,51,52
 85 406 85 406 102 386 c 1,53,-1
 123 386 l 2,54,55
 131 386 131 386 187 385 c 128,-1,56
 243 384 243 384 295 373 c 0,57,58
 356 361 356 361 383 324 c 128,-1,59
 410 287 410 287 410 210 c 2,60,-1
 410 119 l 2,61,62
 410 59 410 59 377 25 c 128,-1,63
 344 -9 344 -9 292 -9 c 0,64,0
 248 -9 248 -9 218.5 19 c 128,-1,1
EndSplineSet
EndChar

StartChar: uni0E24
Encoding: 3620 3620 471
Width: 615
GlyphClass: 2
Flags: W
AnchorPoint: "Anchor-12" 535 550 basechar 0
AnchorPoint: "Anchor-11" 535 -220 basechar 0
LayerCount: 2
Fore
SplineSet
493 383 m 2,0,1
 493 465 493 465 438.5 507.5 c 128,-1,2
 384 550 384 550 298 550 c 0,3,4
 240 550 240 550 194 533 c 128,-1,5
 148 516 148 516 122.5 491 c 128,-1,6
 97 466 97 466 97 443 c 0,7,8
 97 423 97 423 124.5 407 c 128,-1,9
 152 391 152 391 183 391 c 0,10,11
 194 391 194 391 216 395 c 0,12,13
 236 399 236 399 243 399 c 0,14,15
 249 399 249 399 256 388 c 128,-1,16
 263 377 263 377 263 368 c 0,17,18
 263 361 263 361 257 361 c 0,19,20
 206 361 206 361 179 344 c 128,-1,21
 152 327 152 327 143 297.5 c 128,-1,22
 134 268 134 268 134 221 c 2,23,-1
 134 109 l 2,24,25
 134 70 134 70 152 48.5 c 128,-1,26
 170 27 170 27 201 27 c 0,27,28
 228 27 228 27 242.5 42 c 128,-1,29
 257 57 257 57 257 83 c 0,30,31
 257 108 257 108 243.5 122.5 c 128,-1,32
 230 137 230 137 206 137 c 256,33,34
 182 137 182 137 158 127 c 1,35,36
 156 133 156 133 156 136 c 0,37,38
 156 149 156 149 170 159 c 128,-1,39
 184 169 184 169 206 169 c 0,40,41
 242 169 242 169 267.5 147 c 128,-1,42
 293 125 293 125 293 83 c 0,43,44
 293 42 293 42 268 17.5 c 128,-1,45
 243 -7 243 -7 199 -7 c 0,46,47
 145 -7 145 -7 118.5 25 c 128,-1,48
 92 57 92 57 92 108 c 2,49,-1
 92 221 l 2,50,51
 92 272 92 272 104 305.5 c 128,-1,52
 116 339 116 339 142 360 c 1,53,54
 112 368 112 368 83.5 392 c 128,-1,55
 55 416 55 416 55 440 c 0,56,57
 55 472 55 472 85 506.5 c 128,-1,58
 115 541 115 541 170.5 563.5 c 128,-1,59
 226 586 226 586 298 586 c 0,60,61
 398 586 398 586 466.5 536 c 128,-1,62
 535 486 535 486 535 383 c 2,63,-1
 535 -220 l 1,64,-1
 493 -220 l 1,65,-1
 493 383 l 2,0,1
EndSplineSet
Substitution2: "Single Substitution lookup 14 subtable" uni0E24.short
Substitution2: "'aalt' Access All Alternates lookup 0 subtable" uni0E24.short
EndChar

StartChar: uni0E24.short
Encoding: 65543 -1 472
Width: 615
GlyphClass: 2
Flags: W
AnchorPoint: "Anchor-12" 535 550 basechar 0
AnchorPoint: "Anchor-11" 535 -160 basechar 0
LayerCount: 2
Fore
SplineSet
493 383 m 2,0,1
 493 465 493 465 438.5 507.5 c 128,-1,2
 384 550 384 550 298 550 c 0,3,4
 240 550 240 550 194 533 c 128,-1,5
 148 516 148 516 122.5 491 c 128,-1,6
 97 466 97 466 97 443 c 0,7,8
 97 423 97 423 124.5 407 c 128,-1,9
 152 391 152 391 183 391 c 0,10,11
 194 391 194 391 216 395 c 0,12,13
 236 399 236 399 243 399 c 0,14,15
 249 399 249 399 256 388 c 128,-1,16
 263 377 263 377 263 368 c 0,17,18
 263 361 263 361 257 361 c 0,19,20
 206 361 206 361 179 344 c 128,-1,21
 152 327 152 327 143 297.5 c 128,-1,22
 134 268 134 268 134 221 c 2,23,-1
 134 109 l 2,24,25
 134 70 134 70 152 48.5 c 128,-1,26
 170 27 170 27 201 27 c 0,27,28
 228 27 228 27 242.5 42 c 128,-1,29
 257 57 257 57 257 83 c 0,30,31
 257 108 257 108 243.5 122.5 c 128,-1,32
 230 137 230 137 206 137 c 256,33,34
 182 137 182 137 158 127 c 1,35,36
 156 133 156 133 156 136 c 0,37,38
 156 149 156 149 170 159 c 128,-1,39
 184 169 184 169 206 169 c 0,40,41
 242 169 242 169 267.5 147 c 128,-1,42
 293 125 293 125 293 83 c 0,43,44
 293 42 293 42 268 17.5 c 128,-1,45
 243 -7 243 -7 199 -7 c 0,46,47
 145 -7 145 -7 118.5 25 c 128,-1,48
 92 57 92 57 92 108 c 2,49,-1
 92 221 l 2,50,51
 92 272 92 272 104 305.5 c 128,-1,52
 116 339 116 339 142 360 c 1,53,54
 112 368 112 368 83.5 392 c 128,-1,55
 55 416 55 416 55 440 c 0,56,57
 55 472 55 472 85 506.5 c 128,-1,58
 115 541 115 541 170.5 563.5 c 128,-1,59
 226 586 226 586 298 586 c 0,60,61
 398 586 398 586 466.5 536 c 128,-1,62
 535 486 535 486 535 383 c 2,63,-1
 535 -160 l 1,64,-1
 493 -160 l 1,65,-1
 493 383 l 2,0,1
EndSplineSet
EndChar

StartChar: uni0E25
Encoding: 3621 3621 473
Width: 618
GlyphClass: 2
Flags: W
AnchorPoint: "Anchor-12" 525 550 basechar 0
AnchorPoint: "Anchor-11" 525 0 basechar 0
LayerCount: 2
Fore
SplineSet
529 272 m 0,1,2
 523 192 523 192 523 157 c 0,3,4
 523 116 523 116 525 83 c 128,-1,5
 527 50 527 50 527 40 c 2,6,-1
 529 10 l 2,7,8
 529 0 529 0 519 0 c 2,9,-1
 487 0 l 1,10,11
 487 108 487 108 461 185 c 128,-1,12
 435 262 435 262 387.5 301.5 c 128,-1,13
 340 341 340 341 277 341 c 0,14,15
 203 341 203 341 164.5 293.5 c 128,-1,16
 126 246 126 246 126 166 c 0,17,18
 126 94 126 94 148.5 59.5 c 128,-1,19
 171 25 171 25 210 25 c 0,20,21
 240 25 240 25 255 40 c 128,-1,22
 270 55 270 55 270 81 c 0,23,24
 270 106 270 106 256.5 119.5 c 128,-1,25
 243 133 243 133 217 133 c 0,26,27
 179 133 179 133 155 94 c 1,28,29
 152 100 152 100 152 110 c 0,30,31
 152 131 152 131 172 149 c 128,-1,32
 192 167 192 167 223 167 c 0,33,34
 261 167 261 167 283.5 142.5 c 128,-1,35
 306 118 306 118 306 79 c 0,36,37
 306 38 306 38 280 14.5 c 128,-1,38
 254 -9 254 -9 209 -9 c 0,39,40
 150 -9 150 -9 117 37 c 128,-1,41
 84 83 84 83 84 166 c 0,42,43
 84 267 84 267 137 322 c 128,-1,44
 190 377 190 377 278 377 c 0,45,46
 353 377 353 377 407.5 334 c 128,-1,47
 462 291 462 291 489 212 c 1,48,-1
 490 237 l 2,49,50
 494 342 494 342 493 388 c 0,51,52
 492 465 492 465 445.5 507.5 c 128,-1,53
 399 550 399 550 313 550 c 0,54,55
 246 550 246 550 199.5 526 c 128,-1,56
 153 502 153 502 110 459 c 0,57,58
 102 451 102 451 95 451 c 0,59,60
 89 451 89 451 80.5 458 c 128,-1,61
 72 465 72 465 68 474 c 1,62,63
 161 586 161 586 314 586 c 0,64,65
 417 586 417 586 476 535.5 c 128,-1,66
 535 485 535 485 535 395 c 0,67,0
 535 356 535 356 529 272 c 0,1,2
EndSplineSet
EndChar

StartChar: uni0E26
Encoding: 3622 3622 474
Width: 630
GlyphClass: 2
Flags: W
AnchorPoint: "Anchor-12" 550 550 basechar 0
AnchorPoint: "Anchor-11" 550 -220 basechar 0
LayerCount: 2
Fore
SplineSet
508 366 m 2,0,1
 508 470 508 470 456.5 510 c 128,-1,2
 405 550 405 550 314 550 c 0,3,4
 258 550 258 550 211.5 536.5 c 128,-1,5
 165 523 165 523 138 501.5 c 128,-1,6
 111 480 111 480 111 458 c 0,7,8
 111 437 111 437 130.5 421 c 128,-1,9
 150 405 150 405 173.5 396 c 128,-1,10
 197 387 197 387 206 387 c 0,11,12
 216 387 216 387 231 392 c 0,13,14
 253 398 253 398 265 398 c 0,15,16
 272 398 272 398 276.5 388.5 c 128,-1,17
 281 379 281 379 281.5 368.5 c 128,-1,18
 282 358 282 358 279 358 c 0,19,20
 226 358 226 358 201.5 342 c 128,-1,21
 177 326 177 326 177 273 c 0,22,23
 177 245 177 245 180.5 223.5 c 128,-1,24
 184 202 184 202 192 169 c 0,25,26
 205 121 205 121 205 89 c 0,27,28
 205 47 205 47 178.5 19.5 c 128,-1,29
 152 -8 152 -8 107 -8 c 0,30,31
 66 -8 66 -8 41 16.5 c 128,-1,32
 16 41 16 41 16 80 c 0,33,34
 16 118 16 118 39.5 140.5 c 128,-1,35
 63 163 63 163 91 163 c 0,36,37
 109 163 109 163 119 155.5 c 128,-1,38
 129 148 129 148 129 133 c 1,39,-1
 110 133 l 2,40,41
 82 133 82 133 67 119 c 128,-1,42
 52 105 52 105 52 80 c 0,43,44
 52 54 52 54 66.5 40 c 128,-1,45
 81 26 81 26 107 26 c 0,46,47
 135 26 135 26 150 43 c 128,-1,48
 165 60 165 60 165 91 c 0,49,50
 165 112 165 112 160.5 133.5 c 128,-1,51
 156 155 156 155 151 176 c 0,52,53
 143 205 143 205 139 227.5 c 128,-1,54
 135 250 135 250 135 275 c 0,55,56
 135 327 135 327 169 359 c 1,57,58
 130 372 130 372 97.5 398.5 c 128,-1,59
 65 425 65 425 65 455 c 0,60,61
 65 487 65 487 97 517.5 c 128,-1,62
 129 548 129 548 186 567 c 128,-1,63
 243 586 243 586 314 586 c 0,64,65
 418 586 418 586 484 534.5 c 128,-1,66
 550 483 550 483 550 366 c 2,67,-1
 550 -220 l 1,68,-1
 508 -220 l 1,69,-1
 508 366 l 2,0,1
EndSplineSet
Substitution2: "Single Substitution lookup 14 subtable" uni0E26.short
Substitution2: "'aalt' Access All Alternates lookup 0 subtable" uni0E26.short
EndChar

StartChar: uni0E26.short
Encoding: 65544 -1 475
Width: 630
GlyphClass: 2
Flags: W
AnchorPoint: "Anchor-12" 550 550 basechar 0
AnchorPoint: "Anchor-11" 550 -160 basechar 0
LayerCount: 2
Fore
SplineSet
508 366 m 2,0,1
 508 470 508 470 456.5 510 c 128,-1,2
 405 550 405 550 314 550 c 0,3,4
 258 550 258 550 211.5 536.5 c 128,-1,5
 165 523 165 523 138 501.5 c 128,-1,6
 111 480 111 480 111 458 c 0,7,8
 111 437 111 437 130.5 421 c 128,-1,9
 150 405 150 405 173.5 396 c 128,-1,10
 197 387 197 387 206 387 c 0,11,12
 216 387 216 387 231 392 c 0,13,14
 253 398 253 398 265 398 c 0,15,16
 272 398 272 398 276.5 388.5 c 128,-1,17
 281 379 281 379 281.5 368.5 c 128,-1,18
 282 358 282 358 279 358 c 0,19,20
 226 358 226 358 201.5 342 c 128,-1,21
 177 326 177 326 177 273 c 0,22,23
 177 245 177 245 180.5 223.5 c 128,-1,24
 184 202 184 202 192 169 c 0,25,26
 205 121 205 121 205 89 c 0,27,28
 205 47 205 47 178.5 19.5 c 128,-1,29
 152 -8 152 -8 107 -8 c 0,30,31
 66 -8 66 -8 41 16.5 c 128,-1,32
 16 41 16 41 16 80 c 0,33,34
 16 118 16 118 39.5 140.5 c 128,-1,35
 63 163 63 163 91 163 c 0,36,37
 109 163 109 163 119 155.5 c 128,-1,38
 129 148 129 148 129 133 c 1,39,-1
 110 133 l 2,40,41
 82 133 82 133 67 119 c 128,-1,42
 52 105 52 105 52 80 c 0,43,44
 52 54 52 54 66.5 40 c 128,-1,45
 81 26 81 26 107 26 c 0,46,47
 135 26 135 26 150 43 c 128,-1,48
 165 60 165 60 165 91 c 0,49,50
 165 112 165 112 160.5 133.5 c 128,-1,51
 156 155 156 155 151 176 c 0,52,53
 143 205 143 205 139 227.5 c 128,-1,54
 135 250 135 250 135 275 c 0,55,56
 135 327 135 327 169 359 c 1,57,58
 130 372 130 372 97.5 398.5 c 128,-1,59
 65 425 65 425 65 455 c 0,60,61
 65 487 65 487 97 517.5 c 128,-1,62
 129 548 129 548 186 567 c 128,-1,63
 243 586 243 586 314 586 c 0,64,65
 418 586 418 586 484 534.5 c 128,-1,66
 550 483 550 483 550 366 c 2,67,-1
 550 -160 l 1,68,-1
 508 -160 l 1,69,-1
 508 366 l 2,0,1
EndSplineSet
EndChar

StartChar: uni0E27
Encoding: 3623 3623 476
Width: 528
GlyphClass: 2
Flags: W
AnchorPoint: "Anchor-12" 438 550 basechar 0
AnchorPoint: "Anchor-11" 438 0 basechar 0
LayerCount: 2
Fore
SplineSet
247.5 19 m 128,-1,1
 218 47 218 47 218 91 c 256,2,3
 218 135 218 135 246.5 162.5 c 128,-1,4
 275 190 275 190 315 190 c 0,5,6
 338 190 338 190 349.5 181.5 c 128,-1,7
 361 173 361 173 361 160 c 0,8,9
 361 157 361 157 359 151 c 1,10,11
 339 158 339 158 316 158 c 0,12,13
 287 158 287 158 270.5 140.5 c 128,-1,14
 254 123 254 123 254 91 c 0,15,16
 254 61 254 61 272 44 c 128,-1,17
 290 27 290 27 320 27 c 0,18,19
 396 27 396 27 396 120 c 2,20,-1
 396 387 l 2,21,22
 396 464 396 464 353.5 507 c 128,-1,23
 311 550 311 550 240 550 c 0,24,25
 181 550 181 550 143 527 c 128,-1,26
 105 504 105 504 73 461 c 0,27,28
 67 453 67 453 60 453 c 256,29,30
 53 453 53 453 43 459.5 c 128,-1,31
 33 466 33 466 28 474 c 1,32,33
 63 525 63 525 112.5 555.5 c 128,-1,34
 162 586 162 586 240 586 c 0,35,36
 334 586 334 586 386 535 c 128,-1,37
 438 484 438 484 438 387 c 2,38,-1
 438 122 l 2,39,40
 438 60 438 60 405 25.5 c 128,-1,41
 372 -9 372 -9 320 -9 c 0,42,0
 277 -9 277 -9 247.5 19 c 128,-1,1
EndSplineSet
EndChar

StartChar: uni0E28
Encoding: 3624 3624 477
Width: 609
GlyphClass: 2
Flags: W
AnchorPoint: "Anchor-12" 544 550 basechar 0
AnchorPoint: "Anchor-11" 544 0 basechar 0
LayerCount: 2
Fore
SplineSet
557.5 547 m 128,-1,1
 532 524 532 524 500 511 c 1,2,3
 544 454 544 454 544 361 c 2,4,-1
 544 0 l 1,5,-1
 502 0 l 1,6,-1
 502 356 l 2,7,8
 502 458 502 458 453.5 504 c 128,-1,9
 405 550 405 550 314 550 c 0,10,11
 222 550 222 550 168 500.5 c 128,-1,12
 114 451 114 451 114 356 c 0,13,14
 114 320 114 320 122 286 c 128,-1,15
 130 252 130 252 143 228 c 1,16,17
 167 296 167 296 211.5 340.5 c 128,-1,18
 256 385 256 385 318 385 c 0,19,20
 363 385 363 385 391 358 c 128,-1,21
 419 331 419 331 419 289 c 256,22,23
 419 247 419 247 391.5 221 c 128,-1,24
 364 195 364 195 322 195 c 0,25,26
 288 195 288 195 265.5 214 c 128,-1,27
 243 233 243 233 243 264 c 0,28,29
 243 275 243 275 248.5 283 c 128,-1,30
 254 291 254 291 263 293 c 1,31,32
 267 259 267 259 281 243 c 128,-1,33
 295 227 295 227 323 227 c 256,34,35
 351 227 351 227 367 243.5 c 128,-1,36
 383 260 383 260 383 289 c 0,37,38
 383 319 383 319 366 335 c 128,-1,39
 349 351 349 351 316 351 c 0,40,41
 266 351 266 351 226.5 303.5 c 128,-1,42
 187 256 187 256 164.5 175.5 c 128,-1,43
 142 95 142 95 140 0 c 1,44,-1
 113 0 l 2,45,46
 98 0 98 0 98 20 c 0,47,48
 98 64 98 64 117 142 c 0,49,50
 123 172 123 172 123 173 c 0,51,52
 123 178 123 178 112 202 c 0,53,54
 94 237 94 237 83 272 c 128,-1,55
 72 307 72 307 72 356 c 0,56,57
 72 429 72 429 103 480.5 c 128,-1,58
 134 532 134 532 189 559 c 128,-1,59
 244 586 244 586 314 586 c 0,60,61
 417 586 417 586 475 537 c 1,62,63
 524 556 524 556 550 615 c 1,64,65
 565 615 565 615 574 609 c 128,-1,66
 583 603 583 603 583 591 c 0,67,0
 583 570 583 570 557.5 547 c 128,-1,1
EndSplineSet
EndChar

StartChar: uni0E29
Encoding: 3625 3625 478
Width: 665
GlyphClass: 2
Flags: W
AnchorPoint: "Anchor-12" 585 550 basechar 0
AnchorPoint: "Anchor-11" 585 0 basechar 0
LayerCount: 2
Fore
SplineSet
585 576 m 1,0,-1
 585 180 l 2,1,2
 585 118 585 118 580 91.5 c 128,-1,3
 575 65 575 65 553 46 c 0,4,5
 490 -9 490 -9 377 -9 c 256,6,7
 264 -9 264 -9 201 46 c 0,8,9
 179 65 179 65 174 91.5 c 128,-1,10
 169 118 169 118 169 180 c 2,11,-1
 169 477 l 2,12,13
 169 514 169 514 154 533 c 128,-1,14
 139 552 139 552 111 552 c 0,15,16
 85 552 85 552 70.5 538.5 c 128,-1,17
 56 525 56 525 56 501 c 0,18,19
 56 476 56 476 70 462.5 c 128,-1,20
 84 449 84 449 109 449 c 2,21,-1
 133 449 l 1,22,23
 131 417 131 417 92 417 c 0,24,25
 66 417 66 417 43 440 c 128,-1,26
 20 463 20 463 20 501 c 0,27,28
 20 537 20 537 46 561.5 c 128,-1,29
 72 586 72 586 111 586 c 0,30,31
 157 586 157 586 184 558.5 c 128,-1,32
 211 531 211 531 211 480 c 2,33,-1
 211 190 l 2,34,35
 211 130 211 130 214 106.5 c 128,-1,36
 217 83 217 83 229 71 c 0,37,38
 250 52 250 52 288 39.5 c 128,-1,39
 326 27 326 27 377 27 c 256,40,41
 428 27 428 27 466 39.5 c 128,-1,42
 504 52 504 52 525 71 c 0,43,44
 537 83 537 83 540 106.5 c 128,-1,45
 543 130 543 130 543 190 c 2,46,-1
 543 246 l 1,47,48
 523 216 523 216 489 200.5 c 128,-1,49
 455 185 455 185 414 185 c 0,50,51
 357 185 357 185 321 214.5 c 128,-1,52
 285 244 285 244 285 295 c 0,53,54
 285 329 285 329 309.5 351 c 128,-1,55
 334 373 334 373 368 373 c 0,56,57
 400 373 400 373 422 355 c 128,-1,58
 444 337 444 337 444 305 c 0,59,60
 444 281 444 281 430 263.5 c 128,-1,61
 416 246 416 246 397 246 c 0,62,63
 384 246 384 246 379 250 c 1,64,65
 410 267 410 267 410 298 c 0,66,67
 410 317 410 317 398.5 328 c 128,-1,68
 387 339 387 339 369 339 c 0,69,70
 348 339 348 339 334.5 327.5 c 128,-1,71
 321 316 321 316 321 294 c 0,72,73
 321 260 321 260 346.5 240 c 128,-1,74
 372 220 372 220 414 220 c 0,75,76
 457 220 457 220 493 243.5 c 128,-1,77
 529 267 529 267 543 310 c 1,78,-1
 543 576 l 1,79,-1
 585 576 l 1,0,-1
EndSplineSet
EndChar

StartChar: uni0E2A
Encoding: 3626 3626 479
Width: 616
GlyphClass: 2
Flags: W
AnchorPoint: "Anchor-12" 525 550 basechar 0
AnchorPoint: "Anchor-11" 525 0 basechar 0
LayerCount: 2
Fore
SplineSet
557.5 547 m 128,-1,1
 532 524 532 524 499 511 c 1,2,3
 535 462 535 462 535 395 c 0,4,5
 535 356 535 356 529 272 c 0,6,7
 523 192 523 192 523 157 c 0,8,9
 523 116 523 116 525 83 c 128,-1,10
 527 50 527 50 527 40 c 2,11,-1
 529 10 l 2,12,13
 529 0 529 0 519 0 c 2,14,-1
 487 0 l 1,15,16
 487 108 487 108 461 185 c 128,-1,17
 435 262 435 262 387.5 301.5 c 128,-1,18
 340 341 340 341 277 341 c 0,19,20
 203 341 203 341 164.5 293.5 c 128,-1,21
 126 246 126 246 126 166 c 0,22,23
 126 94 126 94 148.5 59.5 c 128,-1,24
 171 25 171 25 210 25 c 0,25,26
 240 25 240 25 255 40 c 128,-1,27
 270 55 270 55 270 81 c 0,28,29
 270 106 270 106 256.5 119.5 c 128,-1,30
 243 133 243 133 217 133 c 0,31,32
 179 133 179 133 155 94 c 1,33,34
 152 100 152 100 152 110 c 0,35,36
 152 131 152 131 172 149 c 128,-1,37
 192 167 192 167 223 167 c 0,38,39
 261 167 261 167 283.5 142.5 c 128,-1,40
 306 118 306 118 306 79 c 0,41,42
 306 38 306 38 280 14.5 c 128,-1,43
 254 -9 254 -9 209 -9 c 0,44,45
 150 -9 150 -9 117 37 c 128,-1,46
 84 83 84 83 84 166 c 0,47,48
 84 267 84 267 137 322 c 128,-1,49
 190 377 190 377 278 377 c 0,50,51
 353 377 353 377 407.5 334 c 128,-1,52
 462 291 462 291 489 212 c 1,53,-1
 490 237 l 2,54,55
 494 342 494 342 493 388 c 0,56,57
 492 465 492 465 445.5 507.5 c 128,-1,58
 399 550 399 550 313 550 c 0,59,60
 246 550 246 550 199.5 526 c 128,-1,61
 153 502 153 502 110 459 c 0,62,63
 102 451 102 451 95 451 c 0,64,65
 89 451 89 451 80.5 458 c 128,-1,66
 72 465 72 465 68 474 c 1,67,68
 161 586 161 586 314 586 c 0,69,70
 416 586 416 586 474 537 c 1,71,72
 501 547 501 547 519 566.5 c 128,-1,73
 537 586 537 586 550 615 c 1,74,75
 565 615 565 615 574 609 c 128,-1,76
 583 603 583 603 583 591 c 0,77,0
 583 570 583 570 557.5 547 c 128,-1,1
EndSplineSet
EndChar

StartChar: uni0E2B
Encoding: 3627 3627 480
Width: 658
GlyphClass: 2
Flags: W
AnchorPoint: "Anchor-12" 579 550 basechar 0
AnchorPoint: "Anchor-11" 579 0 basechar 0
LayerCount: 2
Fore
SplineSet
565.5 324.5 m 128,-1,1
 579 301 579 301 579 268 c 2,2,-1
 579 0 l 1,3,-1
 537 0 l 1,4,-1
 537 254 l 2,5,6
 537 290 537 290 524 311.5 c 128,-1,7
 511 333 511 333 486 348 c 1,8,9
 388 302 388 302 330.5 265.5 c 128,-1,10
 273 229 273 229 242 184 c 128,-1,11
 211 139 211 139 211 79 c 2,12,-1
 211 0 l 1,13,-1
 180 0 l 2,14,15
 165 0 165 0 165 15 c 2,16,-1
 166 42 l 2,17,18
 169 105 169 105 169 116 c 2,19,-1
 169 477 l 2,20,21
 169 514 169 514 154 533 c 128,-1,22
 139 552 139 552 111 552 c 0,23,24
 85 552 85 552 70.5 538.5 c 128,-1,25
 56 525 56 525 56 501 c 0,26,27
 56 476 56 476 70 462.5 c 128,-1,28
 84 449 84 449 109 449 c 2,29,-1
 133 449 l 1,30,31
 131 417 131 417 92 417 c 0,32,33
 66 417 66 417 43 440 c 128,-1,34
 20 463 20 463 20 501 c 0,35,36
 20 537 20 537 46 561.5 c 128,-1,37
 72 586 72 586 111 586 c 0,38,39
 157 586 157 586 184 558.5 c 128,-1,40
 211 531 211 531 211 480 c 2,41,-1
 211 203 l 1,42,43
 240 246 240 246 294 283.5 c 128,-1,44
 348 321 348 321 450 370 c 1,45,46
 417 393 417 393 399 418 c 128,-1,47
 381 443 381 443 381 478 c 0,48,49
 381 526 381 526 413.5 556 c 128,-1,50
 446 586 446 586 493 586 c 0,51,52
 539 586 539 586 572 557 c 128,-1,53
 605 528 605 528 605 477 c 0,54,55
 605 440 605 440 583.5 414 c 128,-1,56
 562 388 562 388 524 367 c 1,57,0
 552 348 552 348 565.5 324.5 c 128,-1,1
437.5 429 m 128,-1,59
 454 411 454 411 490 388 c 1,60,61
 529 408 529 408 547 428 c 128,-1,62
 565 448 565 448 565 478 c 0,63,64
 565 511 565 511 547 530.5 c 128,-1,65
 529 550 529 550 493 550 c 0,66,67
 460 550 460 550 440.5 530.5 c 128,-1,68
 421 511 421 511 421 477 c 0,69,58
 421 447 421 447 437.5 429 c 128,-1,59
EndSplineSet
EndChar

